<?xml version="1.0" encoding="UTF-8" standalone="no"?><svg xmlns="http://www.w3.org/2000/svg" xmlns:xlink="http://www.w3.org/1999/xlink" contentScriptType="application/ecmascript" contentStyleType="text/css" height="1335px" preserveAspectRatio="none" style="width:2145px;height:1335px;background:#FFFFFF;" version="1.1" viewBox="0 0 2145 1335" width="2145px" zoomAndPan="magnify"><defs><filter height="300%" id="f1jr5kai7xpyqq" width="300%" x="-1" y="-1"><feGaussianBlur result="blurOut" stdDeviation="2.0"/><feColorMatrix in="blurOut" result="blurOut2" type="matrix" values="0 0 0 0 0 0 0 0 0 0 0 0 0 0 0 0 0 0 .4 0"/><feOffset dx="4.0" dy="4.0" in="blurOut2" result="blurOut3"/><feBlend in="SourceGraphic" in2="blurOut3" mode="normal"/></filter></defs><g><rect fill="#FFFFFF" filter="url(#f1jr5kai7xpyqq)" height="1197.4902" style="stroke:#A80036;stroke-width:1.0;" width="10" x="254" y="85.7988"/><rect fill="#FFFFFF" filter="url(#f1jr5kai7xpyqq)" height="318.1055" style="stroke:#A80036;stroke-width:1.0;" width="10" x="259" y="225.041"/><rect fill="#FFFFFF" filter="url(#f1jr5kai7xpyqq)" height="435.3477" style="stroke:#A80036;stroke-width:1.0;" width="10" x="259" y="748.0098"/><rect fill="#FFFFFF" filter="url(#f1jr5kai7xpyqq)" height="1168.1797" style="stroke:#A80036;stroke-width:1.0;" width="10" x="484" y="115.1094"/><rect fill="#FFFFFF" filter="url(#f1jr5kai7xpyqq)" height="1138.8691" style="stroke:#A80036;stroke-width:1.0;" width="10" x="810" y="144.4199"/><rect fill="#FFFFFF" filter="url(#f1jr5kai7xpyqq)" height="936.0059" style="stroke:#A80036;stroke-width:1.0;" width="10" x="1050.5" y="347.2832"/><rect fill="#FFFFFF" filter="url(#f1jr5kai7xpyqq)" height="1232.8008" style="stroke:#A80036;stroke-width:1.0;" width="10" x="1171.5" y="50.4883"/><rect fill="#FFFFFF" filter="url(#f1jr5kai7xpyqq)" height="1211.4902" style="stroke:#A80036;stroke-width:1.0;" width="10" x="1468.5" y="71.7988"/><rect fill="#FFFFFF" filter="url(#f1jr5kai7xpyqq)" height="615.9004" style="stroke:#A80036;stroke-width:1.0;" width="10" x="1703.5" y="667.3887"/><rect fill="#FFFFFF" filter="url(#f1jr5kai7xpyqq)" height="325.1055" style="stroke:#A80036;stroke-width:1.0;" width="10" x="1938.5" y="958.1836"/><line style="stroke:#A80036;stroke-width:1.0;stroke-dasharray:5.0,5.0;" x1="259" x2="259" y1="40.4883" y2="1292.2891"/><line style="stroke:#A80036;stroke-width:1.0;stroke-dasharray:5.0,5.0;" x1="489" x2="489" y1="40.4883" y2="1292.2891"/><line style="stroke:#A80036;stroke-width:1.0;stroke-dasharray:5.0,5.0;" x1="815" x2="815" y1="40.4883" y2="1292.2891"/><line style="stroke:#A80036;stroke-width:1.0;stroke-dasharray:5.0,5.0;" x1="1055" x2="1055" y1="40.4883" y2="1292.2891"/><line style="stroke:#A80036;stroke-width:1.0;stroke-dasharray:5.0,5.0;" x1="1176" x2="1176" y1="40.4883" y2="1292.2891"/><line style="stroke:#A80036;stroke-width:1.0;stroke-dasharray:5.0,5.0;" x1="1473" x2="1473" y1="40.4883" y2="1292.2891"/><line style="stroke:#A80036;stroke-width:1.0;stroke-dasharray:5.0,5.0;" x1="1708.5" x2="1708.5" y1="40.4883" y2="1292.2891"/><line style="stroke:#A80036;stroke-width:1.0;stroke-dasharray:5.0,5.0;" x1="1943.5" x2="1943.5" y1="40.4883" y2="1292.2891"/><line style="stroke:#A80036;stroke-width:1.0;stroke-dasharray:5.0,5.0;" x1="2081.5" x2="2081.5" y1="40.4883" y2="1292.2891"/><rect fill="#FEFECE" filter="url(#f1jr5kai7xpyqq)" height="30.4883" style="stroke:#A80036;stroke-width:1.5;" width="54" x="230" y="5"/><text fill="#000000" font-family="sans-serif" font-size="14" lengthAdjust="spacing" textLength="40" x="237" y="25.5352">Client</text><rect fill="#FEFECE" filter="url(#f1jr5kai7xpyqq)" height="30.4883" style="stroke:#A80036;stroke-width:1.5;" width="54" x="230" y="1291.2891"/><text fill="#000000" font-family="sans-serif" font-size="14" lengthAdjust="spacing" textLength="40" x="237" y="1311.8242">Client</text><rect fill="#FEFECE" filter="url(#f1jr5kai7xpyqq)" height="30.4883" style="stroke:#A80036;stroke-width:1.5;" width="146" x="414" y="5"/><text fill="#000000" font-family="sans-serif" font-size="14" lengthAdjust="spacing" textLength="132" x="421" y="25.5352">client.Classification</text><rect fill="#FEFECE" filter="url(#f1jr5kai7xpyqq)" height="30.4883" style="stroke:#A80036;stroke-width:1.5;" width="146" x="414" y="1291.2891"/><text fill="#000000" font-family="sans-serif" font-size="14" lengthAdjust="spacing" textLength="132" x="421" y="1311.8242">client.Classification</text><rect fill="#FEFECE" filter="url(#f1jr5kai7xpyqq)" height="30.4883" style="stroke:#A80036;stroke-width:1.5;" width="284" x="671" y="5"/><text fill="#000000" font-family="sans-serif" font-size="14" lengthAdjust="spacing" textLength="270" x="678" y="25.5352">common.ClassificationInitializationImpl</text><rect fill="#FEFECE" filter="url(#f1jr5kai7xpyqq)" height="30.4883" style="stroke:#A80036;stroke-width:1.5;" width="284" x="671" y="1291.2891"/><text fill="#000000" font-family="sans-serif" font-size="14" lengthAdjust="spacing" textLength="270" x="678" y="1311.8242">common.ClassificationInitializationImpl</text><rect fill="#FEFECE" filter="url(#f1jr5kai7xpyqq)" height="30.4883" style="stroke:#A80036;stroke-width:1.5;" width="169" x="969" y="5"/><text fill="#000000" font-family="sans-serif" font-size="14" lengthAdjust="spacing" textLength="155" x="976" y="25.5352">common.Classification</text><rect fill="#FEFECE" filter="url(#f1jr5kai7xpyqq)" height="30.4883" style="stroke:#A80036;stroke-width:1.5;" width="169" x="969" y="1291.2891"/><text fill="#000000" font-family="sans-serif" font-size="14" lengthAdjust="spacing" textLength="155" x="976" y="1311.8242">common.Classification</text><rect fill="#FEFECE" filter="url(#f1jr5kai7xpyqq)" height="30.4883" style="stroke:#A80036;stroke-width:1.5;" width="45" x="1152" y="5"/><text fill="#000000" font-family="sans-serif" font-size="14" lengthAdjust="spacing" textLength="31" x="1159" y="25.5352">Host</text><rect fill="#FEFECE" filter="url(#f1jr5kai7xpyqq)" height="30.4883" style="stroke:#A80036;stroke-width:1.5;" width="45" x="1152" y="1291.2891"/><text fill="#000000" font-family="sans-serif" font-size="14" lengthAdjust="spacing" textLength="31" x="1159" y="1311.8242">Host</text><rect fill="#FEFECE" filter="url(#f1jr5kai7xpyqq)" height="30.4883" style="stroke:#A80036;stroke-width:1.5;" width="111" x="1416" y="5"/><text fill="#000000" font-family="sans-serif" font-size="14" lengthAdjust="spacing" textLength="97" x="1423" y="25.5352">TribuoEnclave</text><rect fill="#FEFECE" filter="url(#f1jr5kai7xpyqq)" height="30.4883" style="stroke:#A80036;stroke-width:1.5;" width="111" x="1416" y="1291.2891"/><text fill="#000000" font-family="sans-serif" font-size="14" lengthAdjust="spacing" textLength="97" x="1423" y="1311.8242">TribuoEnclave</text><rect fill="#FEFECE" filter="url(#f1jr5kai7xpyqq)" height="30.4883" style="stroke:#A80036;stroke-width:1.5;" width="78" x="1667.5" y="5"/><text fill="#000000" font-family="sans-serif" font-size="14" lengthAdjust="spacing" textLength="64" x="1674.5" y="25.5352">DataStats</text><rect fill="#FEFECE" filter="url(#f1jr5kai7xpyqq)" height="30.4883" style="stroke:#A80036;stroke-width:1.5;" width="78" x="1667.5" y="1291.2891"/><text fill="#000000" font-family="sans-serif" font-size="14" lengthAdjust="spacing" textLength="64" x="1674.5" y="1311.8242">DataStats</text><rect fill="#FEFECE" filter="url(#f1jr5kai7xpyqq)" height="30.4883" style="stroke:#A80036;stroke-width:1.5;" width="144" x="1869.5" y="5"/><text fill="#000000" font-family="sans-serif" font-size="14" lengthAdjust="spacing" textLength="130" x="1876.5" y="25.5352">DataStatsResponse</text><rect fill="#FEFECE" filter="url(#f1jr5kai7xpyqq)" height="30.4883" style="stroke:#A80036;stroke-width:1.5;" width="144" x="1869.5" y="1291.2891"/><text fill="#000000" font-family="sans-serif" font-size="14" lengthAdjust="spacing" textLength="130" x="1876.5" y="1311.8242">DataStatsResponse</text><rect fill="#FEFECE" filter="url(#f1jr5kai7xpyqq)" height="30.4883" style="stroke:#A80036;stroke-width:1.5;" width="104" x="2027.5" y="5"/><text fill="#000000" font-family="sans-serif" font-size="14" lengthAdjust="spacing" textLength="90" x="2034.5" y="25.5352">TribuoObject</text><rect fill="#FEFECE" filter="url(#f1jr5kai7xpyqq)" height="30.4883" style="stroke:#A80036;stroke-width:1.5;" width="104" x="2027.5" y="1291.2891"/><text fill="#000000" font-family="sans-serif" font-size="14" lengthAdjust="spacing" textLength="90" x="2034.5" y="1311.8242">TribuoObject</text><rect fill="#FFFFFF" filter="url(#f1jr5kai7xpyqq)" height="1197.4902" style="stroke:#A80036;stroke-width:1.0;" width="10" x="254" y="85.7988"/><rect fill="#FFFFFF" filter="url(#f1jr5kai7xpyqq)" height="318.1055" style="stroke:#A80036;stroke-width:1.0;" width="10" x="259" y="225.041"/><rect fill="#FFFFFF" filter="url(#f1jr5kai7xpyqq)" height="435.3477" style="stroke:#A80036;stroke-width:1.0;" width="10" x="259" y="748.0098"/><rect fill="#FFFFFF" filter="url(#f1jr5kai7xpyqq)" height="1168.1797" style="stroke:#A80036;stroke-width:1.0;" width="10" x="484" y="115.1094"/><rect fill="#FFFFFF" filter="url(#f1jr5kai7xpyqq)" height="1138.8691" style="stroke:#A80036;stroke-width:1.0;" width="10" x="810" y="144.4199"/><rect fill="#FFFFFF" filter="url(#f1jr5kai7xpyqq)" height="936.0059" style="stroke:#A80036;stroke-width:1.0;" width="10" x="1050.5" y="347.2832"/><rect fill="#FFFFFF" filter="url(#f1jr5kai7xpyqq)" height="1232.8008" style="stroke:#A80036;stroke-width:1.0;" width="10" x="1171.5" y="50.4883"/><rect fill="#FFFFFF" filter="url(#f1jr5kai7xpyqq)" height="1211.4902" style="stroke:#A80036;stroke-width:1.0;" width="10" x="1468.5" y="71.7988"/><rect fill="#FFFFFF" filter="url(#f1jr5kai7xpyqq)" height="615.9004" style="stroke:#A80036;stroke-width:1.0;" width="10" x="1703.5" y="667.3887"/><rect fill="#FFFFFF" filter="url(#f1jr5kai7xpyqq)" height="325.1055" style="stroke:#A80036;stroke-width:1.0;" width="10" x="1938.5" y="958.1836"/><polygon fill="#A80036" points="1456.5,67.7988,1466.5,71.7988,1456.5,75.7988,1460.5,71.7988" style="stroke:#A80036;stroke-width:1.0;"/><line style="stroke:#A80036;stroke-width:1.0;" x1="1181.5" x2="1462.5" y1="71.7988" y2="71.7988"/><text fill="#000000" font-family="sans-serif" font-size="13" lengthAdjust="spacing" textLength="29" x="1188.5" y="67.0566">start</text><polygon fill="#A80036" points="1192.5,81.7988,1182.5,85.7988,1192.5,89.7988,1188.5,85.7988" style="stroke:#A80036;stroke-width:1.0;"/><line style="stroke:#A80036;stroke-width:1.0;stroke-dasharray:2.0,2.0;" x1="1186.5" x2="1467.5" y1="85.7988" y2="85.7988"/><polygon fill="#A80036" points="472,111.1094,482,115.1094,472,119.1094,476,115.1094" style="stroke:#A80036;stroke-width:1.0;"/><line style="stroke:#A80036;stroke-width:1.0;" x1="264" x2="478" y1="115.1094" y2="115.1094"/><text fill="#000000" font-family="sans-serif" font-size="13" lengthAdjust="spacing" textLength="73" x="271" y="110.3672">constructor</text><polygon fill="#A80036" points="798,140.4199,808,144.4199,798,148.4199,802,144.4199" style="stroke:#A80036;stroke-width:1.0;"/><line style="stroke:#A80036;stroke-width:1.0;" x1="494" x2="804" y1="144.4199" y2="144.4199"/><text fill="#000000" font-family="sans-serif" font-size="13" lengthAdjust="spacing" textLength="297" x="501" y="139.6777">constructor(irisDataPath, trainProportion, seed)</text><polygon fill="#A80036" points="505,154.4199,495,158.4199,505,162.4199,501,158.4199" style="stroke:#A80036;stroke-width:1.0;"/><line style="stroke:#A80036;stroke-width:1.0;stroke-dasharray:2.0,2.0;" x1="499" x2="809" y1="158.4199" y2="158.4199"/><polygon fill="#A80036" points="275,183.7305,265,187.7305,275,191.7305,271,187.7305" style="stroke:#A80036;stroke-width:1.0;"/><line style="stroke:#A80036;stroke-width:1.0;" x1="269" x2="483" y1="187.7305" y2="187.7305"/><text fill="#000000" font-family="sans-serif" font-size="13" lengthAdjust="spacing" textLength="102" x="281" y="182.9883">sendAndReceive</text><line style="stroke:#A80036;stroke-width:1.0;" x1="264" x2="311" y1="212.041" y2="212.041"/><line style="stroke:#A80036;stroke-width:1.0;" x1="311" x2="311" y1="212.041" y2="225.041"/><line style="stroke:#A80036;stroke-width:1.0;" x1="270" x2="311" y1="225.041" y2="225.041"/><polygon fill="#A80036" points="280,221.041,270,225.041,280,229.041,276,225.041" style="stroke:#A80036;stroke-width:1.0;"/><text fill="#000000" font-family="sans-serif" font-size="13" lengthAdjust="spacing" textLength="56" x="276" y="207.2988">sendMail</text><polygon fill="#A80036" points="1159.5,255.3516,1169.5,259.3516,1159.5,263.3516,1163.5,259.3516" style="stroke:#A80036;stroke-width:1.0;"/><line style="stroke:#A80036;stroke-width:1.0;" x1="269" x2="1165.5" y1="259.3516" y2="259.3516"/><text fill="#000000" font-family="sans-serif" font-size="13" lengthAdjust="spacing" textLength="31" x="276" y="254.6094">write</text><polygon fill="#A80036" points="1456.5,284.6621,1466.5,288.6621,1456.5,292.6621,1460.5,288.6621" style="stroke:#A80036;stroke-width:1.0;"/><line style="stroke:#A80036;stroke-width:1.0;" x1="1181.5" x2="1462.5" y1="288.6621" y2="288.6621"/><text fill="#000000" font-family="sans-serif" font-size="13" lengthAdjust="spacing" textLength="68" x="1188.5" y="283.9199">deliverMail</text><polygon fill="#A80036" points="831,313.9727,821,317.9727,831,321.9727,827,317.9727" style="stroke:#A80036;stroke-width:1.0;"/><line style="stroke:#A80036;stroke-width:1.0;" x1="825" x2="1467.5" y1="317.9727" y2="317.9727"/><text fill="#000000" font-family="sans-serif" font-size="13" lengthAdjust="spacing" textLength="49" x="837" y="313.2305">execute</text><polygon fill="#A80036" points="1038.5,343.2832,1048.5,347.2832,1038.5,351.2832,1042.5,347.2832" style="stroke:#A80036;stroke-width:1.0;"/><line style="stroke:#A80036;stroke-width:1.0;" x1="820" x2="1044.5" y1="347.2832" y2="347.2832"/><text fill="#000000" font-family="sans-serif" font-size="13" lengthAdjust="spacing" textLength="73" x="827" y="342.541">constructor</text><polygon fill="#A80036" points="831,357.2832,821,361.2832,831,365.2832,827,361.2832" style="stroke:#A80036;stroke-width:1.0;"/><line style="stroke:#A80036;stroke-width:1.0;stroke-dasharray:2.0,2.0;" x1="825" x2="1049.5" y1="361.2832" y2="361.2832"/><polygon fill="#A80036" points="2069.5,386.5938,2079.5,390.5938,2069.5,394.5938,2073.5,390.5938" style="stroke:#A80036;stroke-width:1.0;"/><line style="stroke:#A80036;stroke-width:1.0;" x1="820" x2="2075.5" y1="390.5938" y2="390.5938"/><text fill="#000000" font-family="sans-serif" font-size="13" lengthAdjust="spacing" textLength="139" x="827" y="385.8516">encode(Classification)</text><polygon fill="#A80036" points="831,415.9043,821,419.9043,831,423.9043,827,419.9043" style="stroke:#A80036;stroke-width:1.0;"/><line style="stroke:#A80036;stroke-width:1.0;stroke-dasharray:2.0,2.0;" x1="825" x2="2080.5" y1="419.9043" y2="419.9043"/><text fill="#000000" font-family="sans-serif" font-size="13" lengthAdjust="spacing" textLength="12" x="837" y="415.1621">id</text><polygon fill="#A80036" points="1456.5,445.2148,1466.5,449.2148,1456.5,453.2148,1460.5,449.2148" style="stroke:#A80036;stroke-width:1.0;"/><line style="stroke:#A80036;stroke-width:1.0;stroke-dasharray:2.0,2.0;" x1="820" x2="1462.5" y1="449.2148" y2="449.2148"/><text fill="#000000" font-family="sans-serif" font-size="13" lengthAdjust="spacing" textLength="12" x="827" y="444.4727">id</text><polygon fill="#A80036" points="1192.5,474.5254,1182.5,478.5254,1192.5,482.5254,1188.5,478.5254" style="stroke:#A80036;stroke-width:1.0;"/><line style="stroke:#A80036;stroke-width:1.0;stroke-dasharray:2.0,2.0;" x1="1186.5" x2="1467.5" y1="478.5254" y2="478.5254"/><text fill="#000000" font-family="sans-serif" font-size="13" lengthAdjust="spacing" textLength="74" x="1198.5" y="473.7832">postMail(id)</text><polygon fill="#A80036" points="280,503.8359,270,507.8359,280,511.8359,276,507.8359" style="stroke:#A80036;stroke-width:1.0;"/><line style="stroke:#A80036;stroke-width:1.0;stroke-dasharray:2.0,2.0;" x1="274" x2="1170.5" y1="507.8359" y2="507.8359"/><text fill="#000000" font-family="sans-serif" font-size="13" lengthAdjust="spacing" textLength="51" x="286" y="503.0938">write(id)</text><line style="stroke:#A80036;stroke-width:1.0;stroke-dasharray:2.0,2.0;" x1="269" x2="311" y1="542.1465" y2="542.1465"/><line style="stroke:#A80036;stroke-width:1.0;stroke-dasharray:2.0,2.0;" x1="311" x2="311" y1="542.1465" y2="555.1465"/><line style="stroke:#A80036;stroke-width:1.0;stroke-dasharray:2.0,2.0;" x1="264" x2="311" y1="555.1465" y2="555.1465"/><polygon fill="#A80036" points="274,551.1465,264,555.1465,274,559.1465,270,555.1465" style="stroke:#A80036;stroke-width:1.0;"/><text fill="#000000" font-family="sans-serif" font-size="13" lengthAdjust="spacing" textLength="12" x="276" y="537.4043">id</text><polygon fill="#A80036" points="472,575.457,482,579.457,472,583.457,476,579.457" style="stroke:#A80036;stroke-width:1.0;"/><line style="stroke:#A80036;stroke-width:1.0;stroke-dasharray:2.0,2.0;" x1="264" x2="478" y1="579.457" y2="579.457"/><text fill="#000000" font-family="sans-serif" font-size="13" lengthAdjust="spacing" textLength="12" x="271" y="574.7148">id</text><polygon fill="#A80036" points="275,604.7676,265,608.7676,275,612.7676,271,608.7676" style="stroke:#A80036;stroke-width:1.0;"/><line style="stroke:#A80036;stroke-width:1.0;stroke-dasharray:2.0,2.0;" x1="269" x2="483" y1="608.7676" y2="608.7676"/><text fill="#000000" font-family="sans-serif" font-size="13" lengthAdjust="spacing" textLength="182" x="281" y="604.0254">client.Classification instance</text><polygon fill="#A80036" points="472,634.0781,482,638.0781,472,642.0781,476,638.0781" style="stroke:#A80036;stroke-width:1.0;"/><line style="stroke:#A80036;stroke-width:1.0;" x1="264" x2="478" y1="638.0781" y2="638.0781"/><text fill="#000000" font-family="sans-serif" font-size="13" lengthAdjust="spacing" textLength="58" x="271" y="633.3359">dataStats</text><polygon fill="#A80036" points="1691.5,663.3887,1701.5,667.3887,1691.5,671.3887,1695.5,667.3887" style="stroke:#A80036;stroke-width:1.0;"/><line style="stroke:#A80036;stroke-width:1.0;" x1="494" x2="1697.5" y1="667.3887" y2="667.3887"/><text fill="#000000" font-family="sans-serif" font-size="13" lengthAdjust="spacing" textLength="73" x="501" y="662.6465">constructor</text><polygon fill="#A80036" points="505,677.3887,495,681.3887,505,685.3887,501,681.3887" style="stroke:#A80036;stroke-width:1.0;"/><line style="stroke:#A80036;stroke-width:1.0;stroke-dasharray:2.0,2.0;" x1="499" x2="1702.5" y1="681.3887" y2="681.3887"/><polygon fill="#A80036" points="275,706.6992,265,710.6992,275,714.6992,271,710.6992" style="stroke:#A80036;stroke-width:1.0;"/><line style="stroke:#A80036;stroke-width:1.0;" x1="269" x2="483" y1="710.6992" y2="710.6992"/><text fill="#000000" font-family="sans-serif" font-size="13" lengthAdjust="spacing" textLength="102" x="281" y="705.957">sendAndReceive</text><line style="stroke:#A80036;stroke-width:1.0;" x1="264" x2="311" y1="735.0098" y2="735.0098"/><line style="stroke:#A80036;stroke-width:1.0;" x1="311" x2="311" y1="735.0098" y2="748.0098"/><line style="stroke:#A80036;stroke-width:1.0;" x1="270" x2="311" y1="748.0098" y2="748.0098"/><polygon fill="#A80036" points="280,744.0098,270,748.0098,280,752.0098,276,748.0098" style="stroke:#A80036;stroke-width:1.0;"/><text fill="#000000" font-family="sans-serif" font-size="13" lengthAdjust="spacing" textLength="56" x="276" y="730.2676">sendMail</text><polygon fill="#A80036" points="1159.5,778.3203,1169.5,782.3203,1159.5,786.3203,1163.5,782.3203" style="stroke:#A80036;stroke-width:1.0;"/><line style="stroke:#A80036;stroke-width:1.0;" x1="269" x2="1165.5" y1="782.3203" y2="782.3203"/><text fill="#000000" font-family="sans-serif" font-size="13" lengthAdjust="spacing" textLength="119" x="276" y="777.5781">write(DataStats(id))</text><polygon fill="#A80036" points="1456.5,807.6309,1466.5,811.6309,1456.5,815.6309,1460.5,811.6309" style="stroke:#A80036;stroke-width:1.0;"/><line style="stroke:#A80036;stroke-width:1.0;" x1="1181.5" x2="1462.5" y1="811.6309" y2="811.6309"/><text fill="#000000" font-family="sans-serif" font-size="13" lengthAdjust="spacing" textLength="68" x="1188.5" y="806.8887">deliverMail</text><polygon fill="#A80036" points="1691.5,836.9414,1701.5,840.9414,1691.5,844.9414,1695.5,840.9414" style="stroke:#A80036;stroke-width:1.0;"/><line style="stroke:#A80036;stroke-width:1.0;" x1="1478.5" x2="1697.5" y1="840.9414" y2="840.9414"/><text fill="#000000" font-family="sans-serif" font-size="13" lengthAdjust="spacing" textLength="49" x="1485.5" y="836.1992">execute</text><polygon fill="#A80036" points="2069.5,866.252,2079.5,870.252,2069.5,874.252,2073.5,870.252" style="stroke:#A80036;stroke-width:1.0;"/><line style="stroke:#A80036;stroke-width:1.0;" x1="1713.5" x2="2075.5" y1="870.252" y2="870.252"/><text fill="#000000" font-family="sans-serif" font-size="13" lengthAdjust="spacing" textLength="66" x="1720.5" y="865.5098">objects[id]</text><polygon fill="#A80036" points="1724.5,895.5625,1714.5,899.5625,1724.5,903.5625,1720.5,899.5625" style="stroke:#A80036;stroke-width:1.0;"/><line style="stroke:#A80036;stroke-width:1.0;stroke-dasharray:2.0,2.0;" x1="1718.5" x2="2080.5" y1="899.5625" y2="899.5625"/><text fill="#000000" font-family="sans-serif" font-size="13" lengthAdjust="spacing" textLength="86" x="1730.5" y="894.8203">Classification</text><polygon fill="#A80036" points="1071.5,924.873,1061.5,928.873,1071.5,932.873,1067.5,928.873" style="stroke:#A80036;stroke-width:1.0;"/><line style="stroke:#A80036;stroke-width:1.0;" x1="1065.5" x2="1702.5" y1="928.873" y2="928.873"/><text fill="#000000" font-family="sans-serif" font-size="13" lengthAdjust="spacing" textLength="58" x="1077.5" y="924.1309">dataStats</text><polygon fill="#A80036" points="1926.5,954.1836,1936.5,958.1836,1926.5,962.1836,1930.5,958.1836" style="stroke:#A80036;stroke-width:1.0;"/><line style="stroke:#A80036;stroke-width:1.0;" x1="1060.5" x2="1932.5" y1="958.1836" y2="958.1836"/><text fill="#000000" font-family="sans-serif" font-size="13" lengthAdjust="spacing" textLength="73" x="1067.5" y="953.4414">constructor</text><polygon fill="#A80036" points="1071.5,968.1836,1061.5,972.1836,1071.5,976.1836,1067.5,972.1836" style="stroke:#A80036;stroke-width:1.0;"/><line style="stroke:#A80036;stroke-width:1.0;stroke-dasharray:2.0,2.0;" x1="1065.5" x2="1937.5" y1="972.1836" y2="972.1836"/><polygon fill="#A80036" points="1691.5,997.4941,1701.5,1001.4941,1691.5,1005.4941,1695.5,1001.4941" style="stroke:#A80036;stroke-width:1.0;"/><line style="stroke:#A80036;stroke-width:1.0;stroke-dasharray:2.0,2.0;" x1="1060.5" x2="1697.5" y1="1001.4941" y2="1001.4941"/><text fill="#000000" font-family="sans-serif" font-size="13" lengthAdjust="spacing" textLength="120" x="1067.5" y="996.752">DataStatsResponse</text><polygon fill="#A80036" points="1926.5,1026.8047,1936.5,1030.8047,1926.5,1034.8047,1930.5,1030.8047" style="stroke:#A80036;stroke-width:1.0;"/><line style="stroke:#A80036;stroke-width:1.0;" x1="1713.5" x2="1932.5" y1="1030.8047" y2="1030.8047"/><text fill="#000000" font-family="sans-serif" font-size="13" lengthAdjust="spacing" textLength="173" x="1720.5" y="1026.0625">encode(DataStatsResponse)</text><polygon fill="#A80036" points="1724.5,1056.1152,1714.5,1060.1152,1724.5,1064.1152,1720.5,1060.1152" style="stroke:#A80036;stroke-width:1.0;"/><line style="stroke:#A80036;stroke-width:1.0;stroke-dasharray:2.0,2.0;" x1="1718.5" x2="1937.5" y1="1060.1152" y2="1060.1152"/><text fill="#000000" font-family="sans-serif" font-size="13" lengthAdjust="spacing" textLength="201" x="1730.5" y="1055.373">DataStatsResponse as ByteArray</text><polygon fill="#A80036" points="1489.5,1085.4258,1479.5,1089.4258,1489.5,1093.4258,1485.5,1089.4258" style="stroke:#A80036;stroke-width:1.0;"/><line style="stroke:#A80036;stroke-width:1.0;stroke-dasharray:2.0,2.0;" x1="1483.5" x2="1702.5" y1="1089.4258" y2="1089.4258"/><text fill="#000000" font-family="sans-serif" font-size="13" lengthAdjust="spacing" textLength="201" x="1495.5" y="1084.6836">DataStatsResponse as ByteArray</text><polygon fill="#A80036" points="1192.5,1114.7363,1182.5,1118.7363,1192.5,1122.7363,1188.5,1118.7363" style="stroke:#A80036;stroke-width:1.0;"/><line style="stroke:#A80036;stroke-width:1.0;stroke-dasharray:2.0,2.0;" x1="1186.5" x2="1467.5" y1="1118.7363" y2="1118.7363"/><text fill="#000000" font-family="sans-serif" font-size="13" lengthAdjust="spacing" textLength="263" x="1198.5" y="1113.9941">postMail(DataStatsResponse as ByteArray)</text><polygon fill="#A80036" points="280,1144.0469,270,1148.0469,280,1152.0469,276,1148.0469" style="stroke:#A80036;stroke-width:1.0;"/><line style="stroke:#A80036;stroke-width:1.0;stroke-dasharray:2.0,2.0;" x1="274" x2="1170.5" y1="1148.0469" y2="1148.0469"/><text fill="#000000" font-family="sans-serif" font-size="13" lengthAdjust="spacing" textLength="240" x="286" y="1143.3047">write(DataStatsResponse as ByteArray)</text><line style="stroke:#A80036;stroke-width:1.0;stroke-dasharray:2.0,2.0;" x1="269" x2="311" y1="1182.3574" y2="1182.3574"/><line style="stroke:#A80036;stroke-width:1.0;stroke-dasharray:2.0,2.0;" x1="311" x2="311" y1="1182.3574" y2="1195.3574"/><line style="stroke:#A80036;stroke-width:1.0;stroke-dasharray:2.0,2.0;" x1="264" x2="311" y1="1195.3574" y2="1195.3574"/><polygon fill="#A80036" points="274,1191.3574,264,1195.3574,274,1199.3574,270,1195.3574" style="stroke:#A80036;stroke-width:1.0;"/><text fill="#000000" font-family="sans-serif" font-size="13" lengthAdjust="spacing" textLength="201" x="276" y="1177.6152">DataStatsResponse as ByteArray</text><polygon fill="#A80036" points="472,1215.668,482,1219.668,472,1223.668,476,1219.668" style="stroke:#A80036;stroke-width:1.0;"/><line style="stroke:#A80036;stroke-width:1.0;stroke-dasharray:2.0,2.0;" x1="264" x2="478" y1="1219.668" y2="1219.668"/><text fill="#000000" font-family="sans-serif" font-size="13" lengthAdjust="spacing" textLength="120" x="271" y="1214.9258">DataStatsResponse</text><polygon fill="#A80036" points="275,1249.9785,265,1253.9785,275,1257.9785,271,1253.9785" style="stroke:#A80036;stroke-width:1.0;"/><line style="stroke:#A80036;stroke-width:1.0;stroke-dasharray:2.0,2.0;" x1="269" x2="483" y1="1253.9785" y2="1253.9785"/><path d="M5,1232.668 L5,1272.668 L245,1272.668 L245,1242.668 L235,1232.668 L5,1232.668 " fill="#FBFB77" filter="url(#f1jr5kai7xpyqq)" style="stroke:#A80036;stroke-width:1.0;"/><path d="M235,1232.668 L235,1242.668 L245,1242.668 L235,1232.668 " fill="#FBFB77" style="stroke:#A80036;stroke-width:1.0;"/><text fill="#000000" font-family="sans-serif" font-size="13" lengthAdjust="spacing" textLength="219" x="11" y="1250.2363">Client logs DataStatsResponse and</text><text fill="#000000" font-family="sans-serif" font-size="13" lengthAdjust="spacing" textLength="181" x="11" y="1265.5469">proceeds to the next request</text><!--MD5=[318d369c1b5eadb4fd3ba9d27057b840]
@startuml "classification-data-stats"

participant Client
participant "client.Classification" as client_classification
participant "common.ClassificationInitializationImpl" as common_classification_initialization_impl
participant "common.Classification" as common_classification
participant Host
participant TribuoEnclave
participant DataStats
participant DataStatsResponse
participant TribuoObject

' Host and Enclave start
activate Host
Host -> TribuoEnclave: start
activate TribuoEnclave
TribuoEnclave - -> Host

' Client start
activate Client
Client -> client_classification : constructor
activate client_classification

' Classification initialization
client_classification -> common_classification_initialization_impl : constructor(irisDataPath, trainProportion, seed)
activate common_classification_initialization_impl
common_classification_initialization_impl - -> client_classification

' Sending the request to the Host
client_classification -> Client : sendAndReceive
Client -> Client : sendMail
activate Client
Client -> Host : write

' Host delivers mails
Host -> TribuoEnclave: deliverMail

' Enclave processes mail
TribuoEnclave -> common_classification_initialization_impl : execute
common_classification_initialization_impl -> common_classification : constructor
activate common_classification
common_classification - -> common_classification_initialization_impl

common_classification_initialization_impl -> TribuoObject : encode(Classification)
TribuoObject - -> common_classification_initialization_impl : id
common_classification_initialization_impl - -> TribuoEnclave : id

' Enclave writes back to Host
TribuoEnclave - -> Host: postMail(id)

' Host writes back to Client
Host - -> Client : write(id)

Client - -> Client : id
deactivate Client

Client - -> client_classification : id
client_classification - -> Client : client.Classification instance
' Client now has the id for the Classification instance and can use it to send requests

' Client sends DataStats request
Client -> client_classification : dataStats
client_classification -> DataStats : constructor
activate DataStats
DataStats - -> client_classification

' Sending the request to the Host
client_classification -> Client : sendAndReceive
Client -> Client : sendMail
activate Client
Client -> Host : write(DataStats(id))

' Host delivers mail to the Enclave
Host -> TribuoEnclave : deliverMail

' Enclave processes mail
TribuoEnclave -> DataStats : execute
DataStats -> TribuoObject : objects[id]
TribuoObject - -> DataStats : Classification
DataStats -> common_classification : dataStats
common_classification -> DataStatsResponse : constructor
activate DataStatsResponse
DataStatsResponse - -> common_classification
common_classification - -> DataStats : DataStatsResponse
DataStats -> DataStatsResponse : encode(DataStatsResponse)
DataStatsResponse - -> DataStats : DataStatsResponse as ByteArray
DataStats - -> TribuoEnclave : DataStatsResponse as ByteArray

' Enclave writes back to Host
TribuoEnclave - -> Host : postMail(DataStatsResponse as ByteArray)

' Host writes back to Client
Host - -> Client : write(DataStatsResponse as ByteArray)

Client - -> Client : DataStatsResponse as ByteArray
deactivate Client
Client - -> client_classification : DataStatsResponse
client_classification - -> Client

' Client logs the response to data stats
note left
Client logs DataStatsResponse and
proceeds to the next request
end note

@enduml

@startuml "classification-data-stats"

participant Client
participant "client.Classification" as client_classification
participant "common.ClassificationInitializationImpl" as common_classification_initialization_impl
participant "common.Classification" as common_classification
participant Host
participant TribuoEnclave
participant DataStats
participant DataStatsResponse
participant TribuoObject

activate Host
Host -> TribuoEnclave: start
activate TribuoEnclave
TribuoEnclave - -> Host

activate Client
Client -> client_classification : constructor
activate client_classification

client_classification -> common_classification_initialization_impl : constructor(irisDataPath, trainProportion, seed)
activate common_classification_initialization_impl
common_classification_initialization_impl - -> client_classification

client_classification -> Client : sendAndReceive
Client -> Client : sendMail
activate Client
Client -> Host : write

Host -> TribuoEnclave: deliverMail

TribuoEnclave -> common_classification_initialization_impl : execute
common_classification_initialization_impl -> common_classification : constructor
activate common_classification
common_classification - -> common_classification_initialization_impl

common_classification_initialization_impl -> TribuoObject : encode(Classification)
TribuoObject - -> common_classification_initialization_impl : id
common_classification_initialization_impl - -> TribuoEnclave : id

TribuoEnclave - -> Host: postMail(id)

Host - -> Client : write(id)

Client - -> Client : id
deactivate Client

Client - -> client_classification : id
client_classification - -> Client : client.Classification instance

Client -> client_classification : dataStats
client_classification -> DataStats : constructor
activate DataStats
DataStats - -> client_classification

client_classification -> Client : sendAndReceive
Client -> Client : sendMail
activate Client
Client -> Host : write(DataStats(id))

Host -> TribuoEnclave : deliverMail

TribuoEnclave -> DataStats : execute
DataStats -> TribuoObject : objects[id]
TribuoObject - -> DataStats : Classification
DataStats -> common_classification : dataStats
common_classification -> DataStatsResponse : constructor
activate DataStatsResponse
DataStatsResponse - -> common_classification
common_classification - -> DataStats : DataStatsResponse
DataStats -> DataStatsResponse : encode(DataStatsResponse)
DataStatsResponse - -> DataStats : DataStatsResponse as ByteArray
DataStats - -> TribuoEnclave : DataStatsResponse as ByteArray

TribuoEnclave - -> Host : postMail(DataStatsResponse as ByteArray)

Host - -> Client : write(DataStatsResponse as ByteArray)

Client - -> Client : DataStatsResponse as ByteArray
deactivate Client
Client - -> client_classification : DataStatsResponse
client_classification - -> Client

note left
Client logs DataStatsResponse and
proceeds to the next request
end note

@enduml

PlantUML version 1.2021.7(Sun May 23 13:40:07 BST 2021)
(GPL source distribution)
Java Runtime: OpenJDK Runtime Environment
JVM: OpenJDK 64-Bit Server VM
Default Encoding: UTF-8
Language: en
Country: GB
--></g></svg>