<?xml version="1.0" encoding="UTF-8" standalone="no"?><svg xmlns="http://www.w3.org/2000/svg" xmlns:xlink="http://www.w3.org/1999/xlink" contentScriptType="application/ecmascript" contentStyleType="text/css" height="186px" preserveAspectRatio="none" style="width:816px;height:186px;background:#FFFFFF;" version="1.1" viewBox="0 0 816 186" width="816px" zoomAndPan="magnify"><defs><filter height="300%" id="fr2gxkd7tsu0t" width="300%" x="-1" y="-1"><feGaussianBlur result="blurOut" stdDeviation="2.0"/><feColorMatrix in="blurOut" result="blurOut2" type="matrix" values="0 0 0 0 0 0 0 0 0 0 0 0 0 0 0 0 0 0 .4 0"/><feOffset dx="4.0" dy="4.0" in="blurOut2" result="blurOut3"/><feBlend in="SourceGraphic" in2="blurOut3" mode="normal"/></filter></defs><g><!--MD5=[b28fcb397abe995d6d4652e4c54b3002]
cluster common--><polygon fill="#FFFFFF" filter="url(#fr2gxkd7tsu0t)" points="16,80,84,80,91,102.4883,799,102.4883,799,179,16,179,16,80" style="stroke:#000000;stroke-width:1.5;"/><line style="stroke:#000000;stroke-width:1.5;" x1="16" x2="91" y1="102.4883" y2="102.4883"/><text fill="#000000" font-family="sans-serif" font-size="14" font-weight="bold" lengthAdjust="spacing" textLength="62" x="20" y="95.5352">common</text><!--MD5=[9c93712604d1a69279fb627fee8aec65]
class InitializeClassification--><rect codeLine="6" fill="#FEFECE" filter="url(#fr2gxkd7tsu0t)" height="48" id="InitializeClassification" style="stroke:#A80036;stroke-width:1.5;" width="153" x="629.5" y="115"/><ellipse cx="644.5" cy="131" fill="#ADD1B2" rx="11" ry="11" style="stroke:#A80036;stroke-width:1.0;"/><path d="M646.9731,137.1431 Q646.3921,137.4419 645.7529,137.5913 Q645.1138,137.7407 644.4082,137.7407 Q641.9014,137.7407 640.5815,136.0889 Q639.2617,134.437 639.2617,131.3159 Q639.2617,128.1865 640.5815,126.5347 Q641.9014,124.8828 644.4082,124.8828 Q645.1138,124.8828 645.7612,125.0322 Q646.4087,125.1816 646.9731,125.4805 L646.9731,128.2031 Q646.3423,127.6221 645.7488,127.3523 Q645.1553,127.0825 644.5244,127.0825 Q643.1797,127.0825 642.4949,128.1492 Q641.8101,129.2158 641.8101,131.3159 Q641.8101,133.4077 642.4949,134.4744 Q643.1797,135.541 644.5244,135.541 Q645.1553,135.541 645.7488,135.2712 Q646.3423,135.0015 646.9731,134.4204 Z " fill="#000000"/><text fill="#000000" font-family="sans-serif" font-size="12" lengthAdjust="spacing" textLength="121" x="658.5" y="135.5352">InitializeClassification</text><line style="stroke:#A80036;stroke-width:1.5;" x1="630.5" x2="781.5" y1="147" y2="147"/><line style="stroke:#A80036;stroke-width:1.5;" x1="630.5" x2="781.5" y1="155" y2="155"/><!--MD5=[cd3044b27f8c559d25d8da1fdeae0329]
class DataStats--><rect codeLine="7" fill="#FEFECE" filter="url(#fr2gxkd7tsu0t)" height="48" id="DataStats" style="stroke:#A80036;stroke-width:1.5;" width="86" x="508" y="115"/><ellipse cx="523" cy="131" fill="#ADD1B2" rx="11" ry="11" style="stroke:#A80036;stroke-width:1.0;"/><path d="M525.4731,137.1431 Q524.8921,137.4419 524.2529,137.5913 Q523.6138,137.7407 522.9082,137.7407 Q520.4014,137.7407 519.0815,136.0889 Q517.7617,134.437 517.7617,131.3159 Q517.7617,128.1865 519.0815,126.5347 Q520.4014,124.8828 522.9082,124.8828 Q523.6138,124.8828 524.2612,125.0322 Q524.9087,125.1816 525.4731,125.4805 L525.4731,128.2031 Q524.8423,127.6221 524.2488,127.3523 Q523.6553,127.0825 523.0244,127.0825 Q521.6797,127.0825 520.9949,128.1492 Q520.3101,129.2158 520.3101,131.3159 Q520.3101,133.4077 520.9949,134.4744 Q521.6797,135.541 523.0244,135.541 Q523.6553,135.541 524.2488,135.2712 Q524.8423,135.0015 525.4731,134.4204 Z " fill="#000000"/><text fill="#000000" font-family="sans-serif" font-size="12" lengthAdjust="spacing" textLength="54" x="537" y="135.5352">DataStats</text><line style="stroke:#A80036;stroke-width:1.5;" x1="509" x2="593" y1="147" y2="147"/><line style="stroke:#A80036;stroke-width:1.5;" x1="509" x2="593" y1="155" y2="155"/><!--MD5=[179568b94427a75d0eabbbfb7d2c61e1]
class DataStatsResponse--><rect codeLine="8" fill="#FEFECE" filter="url(#fr2gxkd7tsu0t)" height="48" id="DataStatsResponse" style="stroke:#A80036;stroke-width:1.5;" width="142" x="331" y="115"/><ellipse cx="346" cy="131" fill="#ADD1B2" rx="11" ry="11" style="stroke:#A80036;stroke-width:1.0;"/><path d="M348.4731,137.1431 Q347.8921,137.4419 347.2529,137.5913 Q346.6138,137.7407 345.9082,137.7407 Q343.4014,137.7407 342.0815,136.0889 Q340.7617,134.437 340.7617,131.3159 Q340.7617,128.1865 342.0815,126.5347 Q343.4014,124.8828 345.9082,124.8828 Q346.6138,124.8828 347.2612,125.0322 Q347.9087,125.1816 348.4731,125.4805 L348.4731,128.2031 Q347.8423,127.6221 347.2488,127.3523 Q346.6553,127.0825 346.0244,127.0825 Q344.6797,127.0825 343.9949,128.1492 Q343.3101,129.2158 343.3101,131.3159 Q343.3101,133.4077 343.9949,134.4744 Q344.6797,135.541 346.0244,135.541 Q346.6553,135.541 347.2488,135.2712 Q347.8423,135.0015 348.4731,134.4204 Z " fill="#000000"/><text fill="#000000" font-family="sans-serif" font-size="12" lengthAdjust="spacing" textLength="110" x="360" y="135.5352">DataStatsResponse</text><line style="stroke:#A80036;stroke-width:1.5;" x1="332" x2="472" y1="147" y2="147"/><line style="stroke:#A80036;stroke-width:1.5;" x1="332" x2="472" y1="155" y2="155"/><!--MD5=[49e38df922dd3a16be955050f5f7b30c]
class TrainerInfo--><rect codeLine="9" fill="#FEFECE" filter="url(#fr2gxkd7tsu0t)" height="48" id="TrainerInfo" style="stroke:#A80036;stroke-width:1.5;" width="95" x="200.5" y="115"/><ellipse cx="215.5" cy="131" fill="#ADD1B2" rx="11" ry="11" style="stroke:#A80036;stroke-width:1.0;"/><path d="M217.9731,137.1431 Q217.3921,137.4419 216.7529,137.5913 Q216.1138,137.7407 215.4082,137.7407 Q212.9014,137.7407 211.5815,136.0889 Q210.2617,134.437 210.2617,131.3159 Q210.2617,128.1865 211.5815,126.5347 Q212.9014,124.8828 215.4082,124.8828 Q216.1138,124.8828 216.7612,125.0322 Q217.4087,125.1816 217.9731,125.4805 L217.9731,128.2031 Q217.3423,127.6221 216.7488,127.3523 Q216.1553,127.0825 215.5244,127.0825 Q214.1797,127.0825 213.4949,128.1492 Q212.8101,129.2158 212.8101,131.3159 Q212.8101,133.4077 213.4949,134.4744 Q214.1797,135.541 215.5244,135.541 Q216.1553,135.541 216.7488,135.2712 Q217.3423,135.0015 217.9731,134.4204 Z " fill="#000000"/><text fill="#000000" font-family="sans-serif" font-size="12" lengthAdjust="spacing" textLength="63" x="229.5" y="135.5352">TrainerInfo</text><line style="stroke:#A80036;stroke-width:1.5;" x1="201.5" x2="294.5" y1="147" y2="147"/><line style="stroke:#A80036;stroke-width:1.5;" x1="201.5" x2="294.5" y1="155" y2="155"/><!--MD5=[69020310643386b44d64bac4c1f6ccfe]
class TrainAndEvaluate--><rect codeLine="10" fill="#FEFECE" filter="url(#fr2gxkd7tsu0t)" height="48" id="TrainAndEvaluate" style="stroke:#A80036;stroke-width:1.5;" width="133" x="32.5" y="115"/><ellipse cx="47.5" cy="131" fill="#ADD1B2" rx="11" ry="11" style="stroke:#A80036;stroke-width:1.0;"/><path d="M49.9731,137.1431 Q49.3921,137.4419 48.7529,137.5913 Q48.1138,137.7407 47.4082,137.7407 Q44.9014,137.7407 43.5815,136.0889 Q42.2617,134.437 42.2617,131.3159 Q42.2617,128.1865 43.5815,126.5347 Q44.9014,124.8828 47.4082,124.8828 Q48.1138,124.8828 48.7612,125.0322 Q49.4087,125.1816 49.9731,125.4805 L49.9731,128.2031 Q49.3423,127.6221 48.7488,127.3523 Q48.1553,127.0825 47.5244,127.0825 Q46.1797,127.0825 45.4949,128.1492 Q44.8101,129.2158 44.8101,131.3159 Q44.8101,133.4077 45.4949,134.4744 Q46.1797,135.541 47.5244,135.541 Q48.1553,135.541 48.7488,135.2712 Q49.3423,135.0015 49.9731,134.4204 Z " fill="#000000"/><text fill="#000000" font-family="sans-serif" font-size="12" lengthAdjust="spacing" textLength="101" x="61.5" y="135.5352">TrainAndEvaluate</text><line style="stroke:#A80036;stroke-width:1.5;" x1="33.5" x2="164.5" y1="147" y2="147"/><line style="stroke:#A80036;stroke-width:1.5;" x1="33.5" x2="164.5" y1="155" y2="155"/><!--MD5=[cc3de0a176daa3c4ec875deafdf5ddd1]
class Serializable--><rect codeLine="3" fill="#FEFECE" filter="url(#fr2gxkd7tsu0t)" height="48" id="Serializable" style="stroke:#A80036;stroke-width:1.5;" width="98" x="353" y="7"/><ellipse cx="368" cy="23" fill="#E3664A" rx="11" ry="11" style="stroke:#A80036;stroke-width:1.0;"/><path d="M370.0767,23.2261 Q370.0767,22.2881 369.6533,21.7568 Q369.23,21.2256 368.4912,21.2256 Q367.7524,21.2256 367.3333,21.7568 Q366.9141,22.2881 366.9141,23.2261 Q366.9141,24.1724 367.3333,24.7036 Q367.7524,25.2349 368.4912,25.2349 Q369.23,25.2349 369.6533,24.7036 Q370.0767,24.1724 370.0767,23.2261 Z M371.6206,26.6294 L369.9937,26.6294 L369.9937,25.9487 Q369.6782,26.3887 369.2507,26.592 Q368.8232,26.7954 368.2256,26.7954 Q366.8643,26.7954 366.03,25.8159 Q365.1958,24.8364 365.1958,23.2261 Q365.1958,21.624 366.0259,20.6487 Q366.856,19.6733 368.2256,19.6733 Q368.8149,19.6733 369.2632,19.8767 Q369.7114,20.0801 369.9937,20.4702 L369.9937,20.1299 Q369.9937,19.001 369.3752,18.3867 Q368.7568,17.7725 367.6113,17.7725 Q365.8848,17.7725 364.7932,19.2915 Q363.7017,20.8105 363.7017,23.2427 Q363.7017,25.791 364.9634,27.2976 Q366.2251,28.8042 368.3252,28.8042 Q368.9893,28.8042 369.6118,28.6091 Q370.2344,28.4141 370.8071,28.0239 L371.5708,29.4849 Q370.8984,29.9414 370.1057,30.1697 Q369.313,30.3979 368.4082,30.3979 Q365.5029,30.3979 363.7764,28.4639 Q362.0498,26.5298 362.0498,23.2427 Q362.0498,20.0303 363.6021,18.1003 Q365.1543,16.1704 367.7109,16.1704 Q369.5205,16.1704 370.5706,17.262 Q371.6206,18.3535 371.6206,20.2378 Z " fill="#000000"/><text fill="#000000" font-family="sans-serif" font-size="12" lengthAdjust="spacing" textLength="66" x="382" y="27.5352">Serializable</text><line style="stroke:#A80036;stroke-width:1.5;" x1="354" x2="450" y1="39" y2="39"/><line style="stroke:#A80036;stroke-width:1.5;" x1="354" x2="450" y1="47" y2="47"/><!--MD5=[98b3c8175e14a4ba2bc174b9c2456e8f]
reverse link Serializable to InitializeClassification--><path codeLine="13" d="M456.18,23 C456.18,23 706,23 706,23 C706,23 706,80.99 706,114.96 " fill="none" id="Serializable-backto-InitializeClassification" style="stroke:#A80036;stroke-width:1.0;"/><polygon fill="#A80036" points="451.18,23,460.18,27,456.18,23,460.18,19,451.18,23" style="stroke:#A80036;stroke-width:1.0;"/><!--MD5=[bd5849ffe5b161644764765dc095cd1a]
reverse link Serializable to DataStats--><path codeLine="14" d="M456.2,39 C456.2,39 551,39 551,39 C551,39 551,85.2 551,114.79 " fill="none" id="Serializable-backto-DataStats" style="stroke:#A80036;stroke-width:1.0;"/><polygon fill="#A80036" points="451.2,39,460.2,43,456.2,39,460.2,35,451.2,39" style="stroke:#A80036;stroke-width:1.0;"/><!--MD5=[3ad4db81e9cfea006b7987bebd8c4024]
reverse link Serializable to DataStatsResponse--><path codeLine="15" d="M402,60.24 C402,60.24 402,114.84 402,114.84 " fill="none" id="Serializable-backto-DataStatsResponse" style="stroke:#A80036;stroke-width:1.0;"/><polygon fill="#A80036" points="402,55.24,398,64.24,402,60.24,406,64.24,402,55.24" style="stroke:#A80036;stroke-width:1.0;"/><!--MD5=[8f3bd4681b9805a9962bb548e4b23d74]
reverse link Serializable to TrainerInfo--><path codeLine="16" d="M347.85,39 C347.85,39 248,39 248,39 C248,39 248,85.2 248,114.79 " fill="none" id="Serializable-backto-TrainerInfo" style="stroke:#A80036;stroke-width:1.0;"/><polygon fill="#A80036" points="352.85,39,343.85,35,347.85,39,343.85,43,352.85,39" style="stroke:#A80036;stroke-width:1.0;"/><!--MD5=[89b0abc0b2bd8c733ad8aa5acc761ba9]
reverse link Serializable to TrainAndEvaluate--><path codeLine="17" d="M347.98,23 C347.98,23 99,23 99,23 C99,23 99,80.99 99,114.96 " fill="none" id="Serializable-backto-TrainAndEvaluate" style="stroke:#A80036;stroke-width:1.0;"/><polygon fill="#A80036" points="352.98,23,343.98,19,347.98,23,343.98,27,352.98,23" style="stroke:#A80036;stroke-width:1.0;"/><!--MD5=[828a7bcf982b5038e3a4be6fdaf13af9]
@startuml "classification"
skinparam linetype ortho

annotation Serializable

package common {
    class InitializeClassification
    class DataStats
    class DataStatsResponse
    class TrainerInfo
    class TrainAndEvaluate
}

InitializeClassification -u-> Serializable
DataStats -u-> Serializable
DataStatsResponse -u-> Serializable
TrainerInfo -u-> Serializable
TrainAndEvaluate -u-> Serializable

@enduml

PlantUML version 1.2021.7(Sun May 23 13:40:07 BST 2021)
(GPL source distribution)
Java Runtime: OpenJDK Runtime Environment
JVM: OpenJDK 64-Bit Server VM
Default Encoding: UTF-8
Language: en
Country: GB
--></g></svg>