<?xml version="1.0" encoding="UTF-8" standalone="no"?><svg xmlns="http://www.w3.org/2000/svg" xmlns:xlink="http://www.w3.org/1999/xlink" contentScriptType="application/ecmascript" contentStyleType="text/css" height="594px" preserveAspectRatio="none" style="width:1951px;height:594px;background:#FFFFFF;" version="1.1" viewBox="0 0 1951 594" width="1951px" zoomAndPan="magnify"><defs><filter height="300%" id="fjuli6nf5e1te" width="300%" x="-1" y="-1"><feGaussianBlur result="blurOut" stdDeviation="2.0"/><feColorMatrix in="blurOut" result="blurOut2" type="matrix" values="0 0 0 0 0 0 0 0 0 0 0 0 0 0 0 0 0 0 .4 0"/><feOffset dx="4.0" dy="4.0" in="blurOut2" result="blurOut3"/><feBlend in="SourceGraphic" in2="blurOut3" mode="normal"/></filter></defs><g><!--MD5=[aa2f05b2676d7d34ffa7e771fb7634f3]
cluster client--><polygon fill="#FFFFFF" filter="url(#fjuli6nf5e1te)" points="611,380,657,380,664,402.4883,1317,402.4883,1317,587,611,587,611,380" style="stroke:#000000;stroke-width:1.5;"/><line style="stroke:#000000;stroke-width:1.5;" x1="611" x2="664" y1="402.4883" y2="402.4883"/><text fill="#000000" font-family="sans-serif" font-size="14" font-weight="bold" lengthAdjust="spacing" textLength="40" x="615" y="395.5352">client</text><!--MD5=[b28fcb397abe995d6d4652e4c54b3002]
cluster common--><polygon fill="#FFFFFF" filter="url(#fjuli6nf5e1te)" points="16,6,84,6,91,28.4883,1934,28.4883,1934,356,16,356,16,6" style="stroke:#000000;stroke-width:1.5;"/><line style="stroke:#000000;stroke-width:1.5;" x1="16" x2="91" y1="28.4883" y2="28.4883"/><text fill="#000000" font-family="sans-serif" font-size="14" font-weight="bold" lengthAdjust="spacing" textLength="62" x="20" y="21.5352">common</text><!--MD5=[ed6624c6556d5e7b1bd23032162d20b7]
class Client--><rect codeLine="4" fill="#FEFECE" filter="url(#fjuli6nf5e1te)" height="48" id="Client" style="stroke:#A80036;stroke-width:1.5;" width="64" x="956" y="523"/><ellipse cx="971" cy="539" fill="#ADD1B2" rx="11" ry="11" style="stroke:#A80036;stroke-width:1.0;"/><path d="M973.4731,545.1431 Q972.8921,545.4419 972.2529,545.5913 Q971.6138,545.7407 970.9082,545.7407 Q968.4014,545.7407 967.0815,544.0889 Q965.7617,542.437 965.7617,539.3159 Q965.7617,536.1865 967.0815,534.5347 Q968.4014,532.8828 970.9082,532.8828 Q971.6138,532.8828 972.2612,533.0322 Q972.9087,533.1816 973.4731,533.4805 L973.4731,536.2031 Q972.8423,535.6221 972.2488,535.3523 Q971.6553,535.0825 971.0244,535.0825 Q969.6797,535.0825 968.9949,536.1492 Q968.3101,537.2158 968.3101,539.3159 Q968.3101,541.4077 968.9949,542.4744 Q969.6797,543.541 971.0244,543.541 Q971.6553,543.541 972.2488,543.2712 Q972.8423,543.0015 973.4731,542.4204 Z " fill="#000000"/><text fill="#000000" font-family="sans-serif" font-size="12" lengthAdjust="spacing" textLength="32" x="985" y="543.5352">Client</text><line style="stroke:#A80036;stroke-width:1.5;" x1="957" x2="1019" y1="555" y2="555"/><line style="stroke:#A80036;stroke-width:1.5;" x1="957" x2="1019" y1="563" y2="563"/><!--MD5=[a9ead43f23a6c0ebb4024b7a2100913b]
class client_classification--><rect codeLine="5" fill="#FEFECE" filter="url(#fjuli6nf5e1te)" height="48" id="client_classification" style="stroke:#A80036;stroke-width:1.5;" width="106" x="1195" y="415"/><ellipse cx="1210" cy="431" fill="#ADD1B2" rx="11" ry="11" style="stroke:#A80036;stroke-width:1.0;"/><path d="M1212.4731,437.1431 Q1211.8921,437.4419 1211.2529,437.5913 Q1210.6138,437.7407 1209.9082,437.7407 Q1207.4014,437.7407 1206.0815,436.0889 Q1204.7617,434.437 1204.7617,431.3159 Q1204.7617,428.1865 1206.0815,426.5347 Q1207.4014,424.8828 1209.9082,424.8828 Q1210.6138,424.8828 1211.2612,425.0322 Q1211.9087,425.1816 1212.4731,425.4805 L1212.4731,428.2031 Q1211.8423,427.6221 1211.2488,427.3523 Q1210.6553,427.0825 1210.0244,427.0825 Q1208.6797,427.0825 1207.9949,428.1492 Q1207.3101,429.2158 1207.3101,431.3159 Q1207.3101,433.4077 1207.9949,434.4744 Q1208.6797,435.541 1210.0244,435.541 Q1210.6553,435.541 1211.2488,435.2712 Q1211.8423,435.0015 1212.4731,434.4204 Z " fill="#000000"/><text fill="#000000" font-family="sans-serif" font-size="12" lengthAdjust="spacing" textLength="74" x="1224" y="435.5352">Classification</text><line style="stroke:#A80036;stroke-width:1.5;" x1="1196" x2="1300" y1="447" y2="447"/><line style="stroke:#A80036;stroke-width:1.5;" x1="1196" x2="1300" y1="455" y2="455"/><!--MD5=[076ba4a9ab27bc90462c17d20e6e31d3]
class client_clustering--><rect codeLine="6" fill="#FEFECE" filter="url(#fjuli6nf5e1te)" height="48" id="client_clustering" style="stroke:#A80036;stroke-width:1.5;" width="89" x="1070.5" y="415"/><ellipse cx="1085.5" cy="431" fill="#ADD1B2" rx="11" ry="11" style="stroke:#A80036;stroke-width:1.0;"/><path d="M1087.9731,437.1431 Q1087.3921,437.4419 1086.7529,437.5913 Q1086.1138,437.7407 1085.4082,437.7407 Q1082.9014,437.7407 1081.5815,436.0889 Q1080.2617,434.437 1080.2617,431.3159 Q1080.2617,428.1865 1081.5815,426.5347 Q1082.9014,424.8828 1085.4082,424.8828 Q1086.1138,424.8828 1086.7612,425.0322 Q1087.4087,425.1816 1087.9731,425.4805 L1087.9731,428.2031 Q1087.3423,427.6221 1086.7488,427.3523 Q1086.1553,427.0825 1085.5244,427.0825 Q1084.1797,427.0825 1083.4949,428.1492 Q1082.8101,429.2158 1082.8101,431.3159 Q1082.8101,433.4077 1083.4949,434.4744 Q1084.1797,435.541 1085.5244,435.541 Q1086.1553,435.541 1086.7488,435.2712 Q1087.3423,435.0015 1087.9731,434.4204 Z " fill="#000000"/><text fill="#000000" font-family="sans-serif" font-size="12" lengthAdjust="spacing" textLength="57" x="1099.5" y="435.5352">Clustering</text><line style="stroke:#A80036;stroke-width:1.5;" x1="1071.5" x2="1158.5" y1="447" y2="447"/><line style="stroke:#A80036;stroke-width:1.5;" x1="1071.5" x2="1158.5" y1="455" y2="455"/><!--MD5=[e287d894ccf71dd3eb5a2967bd476b79]
class client_regression--><rect codeLine="7" fill="#FEFECE" filter="url(#fjuli6nf5e1te)" height="48" id="client_regression" style="stroke:#A80036;stroke-width:1.5;" width="95" x="940.5" y="415"/><ellipse cx="955.5" cy="431" fill="#ADD1B2" rx="11" ry="11" style="stroke:#A80036;stroke-width:1.0;"/><path d="M957.9731,437.1431 Q957.3921,437.4419 956.7529,437.5913 Q956.1138,437.7407 955.4082,437.7407 Q952.9014,437.7407 951.5815,436.0889 Q950.2617,434.437 950.2617,431.3159 Q950.2617,428.1865 951.5815,426.5347 Q952.9014,424.8828 955.4082,424.8828 Q956.1138,424.8828 956.7612,425.0322 Q957.4087,425.1816 957.9731,425.4805 L957.9731,428.2031 Q957.3423,427.6221 956.7488,427.3523 Q956.1553,427.0825 955.5244,427.0825 Q954.1797,427.0825 953.4949,428.1492 Q952.8101,429.2158 952.8101,431.3159 Q952.8101,433.4077 953.4949,434.4744 Q954.1797,435.541 955.5244,435.541 Q956.1553,435.541 956.7488,435.2712 Q957.3423,435.0015 957.9731,434.4204 Z " fill="#000000"/><text fill="#000000" font-family="sans-serif" font-size="12" lengthAdjust="spacing" textLength="63" x="969.5" y="435.5352">Regression</text><line style="stroke:#A80036;stroke-width:1.5;" x1="941.5" x2="1034.5" y1="447" y2="447"/><line style="stroke:#A80036;stroke-width:1.5;" x1="941.5" x2="1034.5" y1="455" y2="455"/><!--MD5=[f49ea083fcfc3d21b1b3dc65bb13c5f4]
class client_anomaly_detection--><rect codeLine="8" fill="#FEFECE" filter="url(#fjuli6nf5e1te)" height="48" id="client_anomaly_detection" style="stroke:#A80036;stroke-width:1.5;" width="135" x="770.5" y="415"/><ellipse cx="785.5" cy="431" fill="#ADD1B2" rx="11" ry="11" style="stroke:#A80036;stroke-width:1.0;"/><path d="M787.9731,437.1431 Q787.3921,437.4419 786.7529,437.5913 Q786.1138,437.7407 785.4082,437.7407 Q782.9014,437.7407 781.5815,436.0889 Q780.2617,434.437 780.2617,431.3159 Q780.2617,428.1865 781.5815,426.5347 Q782.9014,424.8828 785.4082,424.8828 Q786.1138,424.8828 786.7612,425.0322 Q787.4087,425.1816 787.9731,425.4805 L787.9731,428.2031 Q787.3423,427.6221 786.7488,427.3523 Q786.1553,427.0825 785.5244,427.0825 Q784.1797,427.0825 783.4949,428.1492 Q782.8101,429.2158 782.8101,431.3159 Q782.8101,433.4077 783.4949,434.4744 Q784.1797,435.541 785.5244,435.541 Q786.1553,435.541 786.7488,435.2712 Q787.3423,435.0015 787.9731,434.4204 Z " fill="#000000"/><text fill="#000000" font-family="sans-serif" font-size="12" lengthAdjust="spacing" textLength="103" x="799.5" y="435.5352">AnomalyDetection</text><line style="stroke:#A80036;stroke-width:1.5;" x1="771.5" x2="904.5" y1="447" y2="447"/><line style="stroke:#A80036;stroke-width:1.5;" x1="771.5" x2="904.5" y1="455" y2="455"/><!--MD5=[dbff53e97ea105410f428174bbf1a783]
class client_configuration--><rect codeLine="9" fill="#FEFECE" filter="url(#fjuli6nf5e1te)" height="48" id="client_configuration" style="stroke:#A80036;stroke-width:1.5;" width="108" x="627" y="415"/><ellipse cx="642" cy="431" fill="#ADD1B2" rx="11" ry="11" style="stroke:#A80036;stroke-width:1.0;"/><path d="M644.4731,437.1431 Q643.8921,437.4419 643.2529,437.5913 Q642.6138,437.7407 641.9082,437.7407 Q639.4014,437.7407 638.0815,436.0889 Q636.7617,434.437 636.7617,431.3159 Q636.7617,428.1865 638.0815,426.5347 Q639.4014,424.8828 641.9082,424.8828 Q642.6138,424.8828 643.2612,425.0322 Q643.9087,425.1816 644.4731,425.4805 L644.4731,428.2031 Q643.8423,427.6221 643.2488,427.3523 Q642.6553,427.0825 642.0244,427.0825 Q640.6797,427.0825 639.9949,428.1492 Q639.3101,429.2158 639.3101,431.3159 Q639.3101,433.4077 639.9949,434.4744 Q640.6797,435.541 642.0244,435.541 Q642.6553,435.541 643.2488,435.2712 Q643.8423,435.0015 644.4731,434.4204 Z " fill="#000000"/><text fill="#000000" font-family="sans-serif" font-size="12" lengthAdjust="spacing" textLength="76" x="656" y="435.5352">Configuration</text><line style="stroke:#A80036;stroke-width:1.5;" x1="628" x2="734" y1="447" y2="447"/><line style="stroke:#A80036;stroke-width:1.5;" x1="628" x2="734" y1="455" y2="455"/><!--MD5=[a3712a81e3216f1ee640c4176fa18730]
class IClassification--><rect codeLine="4" fill="#FEFECE" filter="url(#fjuli6nf5e1te)" height="112.7754" id="IClassification" style="stroke:#A80036;stroke-width:1.5;" width="270" x="1648" y="80"/><ellipse cx="1740.25" cy="96" fill="#B4A7E5" rx="11" ry="11" style="stroke:#A80036;stroke-width:1.0;"/><path d="M1736.6777,92.2651 L1736.6777,90.1069 L1744.0571,90.1069 L1744.0571,92.2651 L1741.5918,92.2651 L1741.5918,100.3418 L1744.0571,100.3418 L1744.0571,102.5 L1736.6777,102.5 L1736.6777,100.3418 L1739.1431,100.3418 L1739.1431,92.2651 Z " fill="#000000"/><text fill="#000000" font-family="sans-serif" font-size="12" font-style="italic" lengthAdjust="spacing" textLength="77" x="1760.75" y="100.5352">IClassification</text><line style="stroke:#A80036;stroke-width:1.5;" x1="1649" x2="1917" y1="112" y2="112"/><line style="stroke:#A80036;stroke-width:1.5;" x1="1649" x2="1917" y1="120" y2="120"/><ellipse cx="1659" cy="131" fill="#84BE84" rx="3" ry="3" style="stroke:#038048;stroke-width:1.0;"/><text fill="#000000" font-family="sans-serif" font-size="11" lengthAdjust="spacing" textLength="165" x="1668" y="134.6348">dataStats(): DataStatsResponse</text><ellipse cx="1659" cy="143.9551" fill="#84BE84" rx="3" ry="3" style="stroke:#038048;stroke-width:1.0;"/><text fill="#000000" font-family="sans-serif" font-size="11" lengthAdjust="spacing" textLength="103" x="1668" y="147.5898">trainerInfo(): String</text><ellipse cx="1659" cy="156.9102" fill="#84BE84" rx="3" ry="3" style="stroke:#038048;stroke-width:1.0;"/><text fill="#000000" font-family="sans-serif" font-size="11" lengthAdjust="spacing" textLength="212" x="1668" y="160.5449">trainAndEvaluate(): EvaluationResponse</text><ellipse cx="1659" cy="169.8652" fill="#84BE84" rx="3" ry="3" style="stroke:#038048;stroke-width:1.0;"/><text fill="#000000" font-family="sans-serif" font-size="11" lengthAdjust="spacing" textLength="244" x="1668" y="173.5">confusionMatrix(): ConfusionMatrixResponse</text><ellipse cx="1659" cy="182.8203" fill="#84BE84" rx="3" ry="3" style="stroke:#038048;stroke-width:1.0;"/><text fill="#000000" font-family="sans-serif" font-size="11" lengthAdjust="spacing" textLength="174" x="1668" y="186.4551">serializedModel(): ModelWrapper</text><!--MD5=[96dc21af906a864c26a2e0786950d9f6]
class common_classification--><rect codeLine="11" fill="#FEFECE" filter="url(#fjuli6nf5e1te)" height="48" id="common_classification" style="stroke:#A80036;stroke-width:1.5;" width="106" x="1000" y="292"/><ellipse cx="1015" cy="308" fill="#ADD1B2" rx="11" ry="11" style="stroke:#A80036;stroke-width:1.0;"/><path d="M1017.4731,314.1431 Q1016.8921,314.4419 1016.2529,314.5913 Q1015.6138,314.7407 1014.9082,314.7407 Q1012.4014,314.7407 1011.0815,313.0889 Q1009.7617,311.437 1009.7617,308.3159 Q1009.7617,305.1865 1011.0815,303.5347 Q1012.4014,301.8828 1014.9082,301.8828 Q1015.6138,301.8828 1016.2612,302.0322 Q1016.9087,302.1816 1017.4731,302.4805 L1017.4731,305.2031 Q1016.8423,304.6221 1016.2488,304.3523 Q1015.6553,304.0825 1015.0244,304.0825 Q1013.6797,304.0825 1012.9949,305.1492 Q1012.3101,306.2158 1012.3101,308.3159 Q1012.3101,310.4077 1012.9949,311.4744 Q1013.6797,312.541 1015.0244,312.541 Q1015.6553,312.541 1016.2488,312.2712 Q1016.8423,312.0015 1017.4731,311.4204 Z " fill="#000000"/><text fill="#000000" font-family="sans-serif" font-size="12" lengthAdjust="spacing" textLength="74" x="1029" y="312.5352">Classification</text><line style="stroke:#A80036;stroke-width:1.5;" x1="1001" x2="1105" y1="324" y2="324"/><line style="stroke:#A80036;stroke-width:1.5;" x1="1001" x2="1105" y1="332" y2="332"/><!--MD5=[d935affd0ee964109d8c961354f84dba]
class IClustering--><rect codeLine="14" fill="#FEFECE" filter="url(#fjuli6nf5e1te)" height="99.8203" id="IClustering" style="stroke:#A80036;stroke-width:1.5;" width="418" x="1195" y="86.5"/><ellipse cx="1369.75" cy="102.5" fill="#B4A7E5" rx="11" ry="11" style="stroke:#A80036;stroke-width:1.0;"/><path d="M1366.1777,98.7651 L1366.1777,96.6069 L1373.5571,96.6069 L1373.5571,98.7651 L1371.0918,98.7651 L1371.0918,106.8418 L1373.5571,106.8418 L1373.5571,109 L1366.1777,109 L1366.1777,106.8418 L1368.6431,106.8418 L1368.6431,98.7651 Z " fill="#000000"/><text fill="#000000" font-family="sans-serif" font-size="12" font-style="italic" lengthAdjust="spacing" textLength="60" x="1390.25" y="107.0352">IClustering</text><line style="stroke:#A80036;stroke-width:1.5;" x1="1196" x2="1612" y1="118.5" y2="118.5"/><line style="stroke:#A80036;stroke-width:1.5;" x1="1196" x2="1612" y1="126.5" y2="126.5"/><ellipse cx="1206" cy="137.5" fill="#84BE84" rx="3" ry="3" style="stroke:#038048;stroke-width:1.0;"/><text fill="#000000" font-family="sans-serif" font-size="11" lengthAdjust="spacing" textLength="392" x="1215" y="141.1348">train(centroids: Int, iterations: Int, distanceType: KMeansTrainer.Distance,</text><text fill="#000000" font-family="sans-serif" font-size="11" lengthAdjust="spacing" textLength="325" x="1215" y="154.0898">numThreads: Int, seed: Long): ClusteringEvaluationResponse</text><ellipse cx="1206" cy="163.4102" fill="#84BE84" rx="3" ry="3" style="stroke:#038048;stroke-width:1.0;"/><text fill="#000000" font-family="sans-serif" font-size="11" lengthAdjust="spacing" textLength="170" x="1215" y="167.0449">centroids(): CentroidsResponse</text><ellipse cx="1206" cy="176.3652" fill="#84BE84" rx="3" ry="3" style="stroke:#038048;stroke-width:1.0;"/><text fill="#000000" font-family="sans-serif" font-size="11" lengthAdjust="spacing" textLength="221" x="1215" y="180">evaluate(): ClusteringEvaluationResponse</text><!--MD5=[14ab531d374cbb22cdd745cf8ae3b009]
class common_clustering--><rect codeLine="20" fill="#FEFECE" filter="url(#fjuli6nf5e1te)" height="48" id="common_clustering" style="stroke:#A80036;stroke-width:1.5;" width="89" x="875.5" y="292"/><ellipse cx="890.5" cy="308" fill="#ADD1B2" rx="11" ry="11" style="stroke:#A80036;stroke-width:1.0;"/><path d="M892.9731,314.1431 Q892.3921,314.4419 891.7529,314.5913 Q891.1138,314.7407 890.4082,314.7407 Q887.9014,314.7407 886.5815,313.0889 Q885.2617,311.437 885.2617,308.3159 Q885.2617,305.1865 886.5815,303.5347 Q887.9014,301.8828 890.4082,301.8828 Q891.1138,301.8828 891.7612,302.0322 Q892.4087,302.1816 892.9731,302.4805 L892.9731,305.2031 Q892.3423,304.6221 891.7488,304.3523 Q891.1553,304.0825 890.5244,304.0825 Q889.1797,304.0825 888.4949,305.1492 Q887.8101,306.2158 887.8101,308.3159 Q887.8101,310.4077 888.4949,311.4744 Q889.1797,312.541 890.5244,312.541 Q891.1553,312.541 891.7488,312.2712 Q892.3423,312.0015 892.9731,311.4204 Z " fill="#000000"/><text fill="#000000" font-family="sans-serif" font-size="12" lengthAdjust="spacing" textLength="57" x="904.5" y="312.5352">Clustering</text><line style="stroke:#A80036;stroke-width:1.5;" x1="876.5" x2="963.5" y1="324" y2="324"/><line style="stroke:#A80036;stroke-width:1.5;" x1="876.5" x2="963.5" y1="332" y2="332"/><!--MD5=[306e7f75c98cd0299b3556e0ecd40ec6]
class IRegression--><rect codeLine="23" fill="#FEFECE" filter="url(#fjuli6nf5e1te)" height="86.8652" id="IRegression" style="stroke:#A80036;stroke-width:1.5;" width="402" x="758" y="93"/><ellipse cx="921.75" cy="109" fill="#B4A7E5" rx="11" ry="11" style="stroke:#A80036;stroke-width:1.0;"/><path d="M918.1777,105.2651 L918.1777,103.1069 L925.5571,103.1069 L925.5571,105.2651 L923.0918,105.2651 L923.0918,113.3418 L925.5571,113.3418 L925.5571,115.5 L918.1777,115.5 L918.1777,113.3418 L920.6431,113.3418 L920.6431,105.2651 Z " fill="#000000"/><text fill="#000000" font-family="sans-serif" font-size="12" font-style="italic" lengthAdjust="spacing" textLength="66" x="942.25" y="113.5352">IRegression</text><line style="stroke:#A80036;stroke-width:1.5;" x1="759" x2="1159" y1="125" y2="125"/><line style="stroke:#A80036;stroke-width:1.5;" x1="759" x2="1159" y1="133" y2="133"/><ellipse cx="769" cy="144" fill="#84BE84" rx="3" ry="3" style="stroke:#038048;stroke-width:1.0;"/><text fill="#000000" font-family="sans-serif" font-size="11" lengthAdjust="spacing" textLength="351" x="778" y="147.6348">trainSGD(epochs: Int, seed: Long): RegressionEvaluationResponse</text><ellipse cx="769" cy="156.9551" fill="#84BE84" rx="3" ry="3" style="stroke:#038048;stroke-width:1.0;"/><text fill="#000000" font-family="sans-serif" font-size="11" lengthAdjust="spacing" textLength="376" x="778" y="160.5898">trainAdaGrad(epochs: Int, seed: Long): RegressionEvaluationResponse</text><ellipse cx="769" cy="169.9102" fill="#84BE84" rx="3" ry="3" style="stroke:#038048;stroke-width:1.0;"/><text fill="#000000" font-family="sans-serif" font-size="11" lengthAdjust="spacing" textLength="311" x="778" y="173.5449">trainCART(maxDepth: Int): RegressionEvaluationResponse</text><!--MD5=[df7a0345382cf737f6a42af10fe68554]
class common_regression--><rect codeLine="28" fill="#FEFECE" filter="url(#fjuli6nf5e1te)" height="48" id="common_regression" style="stroke:#A80036;stroke-width:1.5;" width="95" x="745.5" y="292"/><ellipse cx="760.5" cy="308" fill="#ADD1B2" rx="11" ry="11" style="stroke:#A80036;stroke-width:1.0;"/><path d="M762.9731,314.1431 Q762.3921,314.4419 761.7529,314.5913 Q761.1138,314.7407 760.4082,314.7407 Q757.9014,314.7407 756.5815,313.0889 Q755.2617,311.437 755.2617,308.3159 Q755.2617,305.1865 756.5815,303.5347 Q757.9014,301.8828 760.4082,301.8828 Q761.1138,301.8828 761.7612,302.0322 Q762.4087,302.1816 762.9731,302.4805 L762.9731,305.2031 Q762.3423,304.6221 761.7488,304.3523 Q761.1553,304.0825 760.5244,304.0825 Q759.1797,304.0825 758.4949,305.1492 Q757.8101,306.2158 757.8101,308.3159 Q757.8101,310.4077 758.4949,311.4744 Q759.1797,312.541 760.5244,312.541 Q761.1553,312.541 761.7488,312.2712 Q762.3423,312.0015 762.9731,311.4204 Z " fill="#000000"/><text fill="#000000" font-family="sans-serif" font-size="12" lengthAdjust="spacing" textLength="63" x="774.5" y="312.5352">Regression</text><line style="stroke:#A80036;stroke-width:1.5;" x1="746.5" x2="839.5" y1="324" y2="324"/><line style="stroke:#A80036;stroke-width:1.5;" x1="746.5" x2="839.5" y1="332" y2="332"/><!--MD5=[f52a476548ebc64fafc0249088dee62c]
class IAnomalyDetection--><rect codeLine="31" fill="#FEFECE" filter="url(#fjuli6nf5e1te)" height="73.9102" id="IAnomalyDetection" style="stroke:#A80036;stroke-width:1.5;" width="266" x="457" y="99.5"/><ellipse cx="532.75" cy="115.5" fill="#B4A7E5" rx="11" ry="11" style="stroke:#A80036;stroke-width:1.0;"/><path d="M529.1777,111.7651 L529.1777,109.6069 L536.5571,109.6069 L536.5571,111.7651 L534.0918,111.7651 L534.0918,119.8418 L536.5571,119.8418 L536.5571,122 L529.1777,122 L529.1777,119.8418 L531.6431,119.8418 L531.6431,111.7651 Z " fill="#000000"/><text fill="#000000" font-family="sans-serif" font-size="12" font-style="italic" lengthAdjust="spacing" textLength="106" x="553.25" y="120.0352">IAnomalyDetection</text><line style="stroke:#A80036;stroke-width:1.5;" x1="458" x2="722" y1="131.5" y2="131.5"/><line style="stroke:#A80036;stroke-width:1.5;" x1="458" x2="722" y1="139.5" y2="139.5"/><ellipse cx="468" cy="150.5" fill="#84BE84" rx="3" ry="3" style="stroke:#038048;stroke-width:1.0;"/><text fill="#000000" font-family="sans-serif" font-size="11" lengthAdjust="spacing" textLength="240" x="477" y="154.1348">trainAndEvaluate(): AnomalyEvaluationResult</text><ellipse cx="468" cy="163.4551" fill="#84BE84" rx="3" ry="3" style="stroke:#038048;stroke-width:1.0;"/><text fill="#000000" font-family="sans-serif" font-size="11" lengthAdjust="spacing" textLength="134" x="477" y="167.0898">confusionMatrix(): String</text><!--MD5=[bb9937edd3538a431fc1b74eab276c28]
class common_anomaly_detection--><rect codeLine="35" fill="#FEFECE" filter="url(#fjuli6nf5e1te)" height="48" id="common_anomaly_detection" style="stroke:#A80036;stroke-width:1.5;" width="135" x="533.5" y="292"/><ellipse cx="548.5" cy="308" fill="#ADD1B2" rx="11" ry="11" style="stroke:#A80036;stroke-width:1.0;"/><path d="M550.9731,314.1431 Q550.3921,314.4419 549.7529,314.5913 Q549.1138,314.7407 548.4082,314.7407 Q545.9014,314.7407 544.5815,313.0889 Q543.2617,311.437 543.2617,308.3159 Q543.2617,305.1865 544.5815,303.5347 Q545.9014,301.8828 548.4082,301.8828 Q549.1138,301.8828 549.7612,302.0322 Q550.4087,302.1816 550.9731,302.4805 L550.9731,305.2031 Q550.3423,304.6221 549.7488,304.3523 Q549.1553,304.0825 548.5244,304.0825 Q547.1797,304.0825 546.4949,305.1492 Q545.8101,306.2158 545.8101,308.3159 Q545.8101,310.4077 546.4949,311.4744 Q547.1797,312.541 548.5244,312.541 Q549.1553,312.541 549.7488,312.2712 Q550.3423,312.0015 550.9731,311.4204 Z " fill="#000000"/><text fill="#000000" font-family="sans-serif" font-size="12" lengthAdjust="spacing" textLength="103" x="562.5" y="312.5352">AnomalyDetection</text><line style="stroke:#A80036;stroke-width:1.5;" x1="534.5" x2="667.5" y1="324" y2="324"/><line style="stroke:#A80036;stroke-width:1.5;" x1="534.5" x2="667.5" y1="332" y2="332"/><!--MD5=[abbbcb1c8f1500e902234e16564fb62e]
class IConfiguration--><rect codeLine="38" fill="#FEFECE" filter="url(#fjuli6nf5e1te)" height="190.5059" id="IConfiguration" style="stroke:#A80036;stroke-width:1.5;" width="389" x="32.5" y="41"/><ellipse cx="183.25" cy="57" fill="#B4A7E5" rx="11" ry="11" style="stroke:#A80036;stroke-width:1.0;"/><path d="M179.6777,53.2651 L179.6777,51.1069 L187.0571,51.1069 L187.0571,53.2651 L184.5918,53.2651 L184.5918,61.3418 L187.0571,61.3418 L187.0571,63.5 L179.6777,63.5 L179.6777,61.3418 L182.1431,61.3418 L182.1431,53.2651 Z " fill="#000000"/><text fill="#000000" font-family="sans-serif" font-size="12" font-style="italic" lengthAdjust="spacing" textLength="79" x="203.75" y="61.5352">IConfiguration</text><line style="stroke:#A80036;stroke-width:1.5;" x1="33.5" x2="420.5" y1="73" y2="73"/><line style="stroke:#A80036;stroke-width:1.5;" x1="33.5" x2="420.5" y1="81" y2="81"/><ellipse cx="43.5" cy="92" fill="#84BE84" rx="3" ry="3" style="stroke:#038048;stroke-width:1.0;"/><text fill="#000000" font-family="sans-serif" font-size="11" lengthAdjust="spacing" textLength="95" x="52.5" y="95.6348">dataStats(): String</text><ellipse cx="43.5" cy="104.9551" fill="#84BE84" rx="3" ry="3" style="stroke:#038048;stroke-width:1.0;"/><text fill="#000000" font-family="sans-serif" font-size="11" lengthAdjust="spacing" textLength="171" x="52.5" y="108.5898">initializeLogisticTrainer(): String</text><ellipse cx="43.5" cy="117.9102" fill="#84BE84" rx="3" ry="3" style="stroke:#038048;stroke-width:1.0;"/><text fill="#000000" font-family="sans-serif" font-size="11" lengthAdjust="spacing" textLength="174" x="52.5" y="121.5449">mnistLogisticConfig(): ByteArray</text><ellipse cx="43.5" cy="130.8652" fill="#84BE84" rx="3" ry="3" style="stroke:#038048;stroke-width:1.0;"/><text fill="#000000" font-family="sans-serif" font-size="11" lengthAdjust="spacing" textLength="179" x="52.5" y="134.5">lrEvaluator(): EvaluationResponse</text><ellipse cx="43.5" cy="143.8203" fill="#84BE84" rx="3" ry="3" style="stroke:#038048;stroke-width:1.0;"/><text fill="#000000" font-family="sans-serif" font-size="11" lengthAdjust="spacing" textLength="304" x="52.5" y="147.4551">lrEvaluatorConfusionMatrix(): ConfusionMatrixResponse</text><ellipse cx="43.5" cy="156.7754" fill="#84BE84" rx="3" ry="3" style="stroke:#038048;stroke-width:1.0;"/><text fill="#000000" font-family="sans-serif" font-size="11" lengthAdjust="spacing" textLength="192" x="52.5" y="160.4102">newEvaluator(): EvaluationResponse</text><ellipse cx="43.5" cy="169.7305" fill="#84BE84" rx="3" ry="3" style="stroke:#038048;stroke-width:1.0;"/><text fill="#000000" font-family="sans-serif" font-size="11" lengthAdjust="spacing" textLength="317" x="52.5" y="173.3652">newEvaluatorConfusionMatrix(): ConfusionMatrixResponse</text><ellipse cx="43.5" cy="182.6855" fill="#84BE84" rx="3" ry="3" style="stroke:#038048;stroke-width:1.0;"/><text fill="#000000" font-family="sans-serif" font-size="11" lengthAdjust="spacing" textLength="179" x="52.5" y="186.3203">newEvaluatorProvenance(): String</text><ellipse cx="43.5" cy="195.6406" fill="#84BE84" rx="3" ry="3" style="stroke:#038048;stroke-width:1.0;"/><text fill="#000000" font-family="sans-serif" font-size="11" lengthAdjust="spacing" textLength="238" x="52.5" y="199.2754">transformedEvaluator(): EvaluationResponse</text><ellipse cx="43.5" cy="208.5957" fill="#84BE84" rx="3" ry="3" style="stroke:#038048;stroke-width:1.0;"/><text fill="#000000" font-family="sans-serif" font-size="11" lengthAdjust="spacing" textLength="363" x="52.5" y="212.2305">transformedEvaluatorConfusionMatrix(): ConfusionMatrixResponse</text><ellipse cx="43.5" cy="221.5508" fill="#84BE84" rx="3" ry="3" style="stroke:#038048;stroke-width:1.0;"/><text fill="#000000" font-family="sans-serif" font-size="11" lengthAdjust="spacing" textLength="244" x="52.5" y="225.1855">mnistTransformedLogisticConfig(): ByteArray</text><!--MD5=[a7e37f5ed935d3a049ea1d38640e6bf8]
class common_configuration--><rect codeLine="51" fill="#FEFECE" filter="url(#fjuli6nf5e1te)" height="48" id="common_configuration" style="stroke:#A80036;stroke-width:1.5;" width="108" x="276" y="292"/><ellipse cx="291" cy="308" fill="#ADD1B2" rx="11" ry="11" style="stroke:#A80036;stroke-width:1.0;"/><path d="M293.4731,314.1431 Q292.8921,314.4419 292.2529,314.5913 Q291.6138,314.7407 290.9082,314.7407 Q288.4014,314.7407 287.0815,313.0889 Q285.7617,311.437 285.7617,308.3159 Q285.7617,305.1865 287.0815,303.5347 Q288.4014,301.8828 290.9082,301.8828 Q291.6138,301.8828 292.2612,302.0322 Q292.9087,302.1816 293.4731,302.4805 L293.4731,305.2031 Q292.8423,304.6221 292.2488,304.3523 Q291.6553,304.0825 291.0244,304.0825 Q289.6797,304.0825 288.9949,305.1492 Q288.3101,306.2158 288.3101,308.3159 Q288.3101,310.4077 288.9949,311.4744 Q289.6797,312.541 291.0244,312.541 Q291.6553,312.541 292.2488,312.2712 Q292.8423,312.0015 293.4731,311.4204 Z " fill="#000000"/><text fill="#000000" font-family="sans-serif" font-size="12" lengthAdjust="spacing" textLength="76" x="305" y="312.5352">Configuration</text><line style="stroke:#A80036;stroke-width:1.5;" x1="277" x2="383" y1="324" y2="324"/><line style="stroke:#A80036;stroke-width:1.5;" x1="277" x2="383" y1="332" y2="332"/><!--MD5=[5e77562dce365d1c991848d88f4ca2b1]
link client_classification to Client--><path codeLine="10" d="M1248,463.04 C1248,497.01 1248,555 1248,555 C1248,555 1089.71,555 1020.14,555 " fill="none" id="client_classification-Client" style="stroke:#A80036;stroke-width:1.0;"/><!--MD5=[34bfce2e3112a157e553ebf1cbaadebc]
link client_clustering to Client--><path codeLine="11" d="M1115,463.21 C1115,492.8 1115,539 1115,539 C1115,539 1057.67,539 1020.05,539 " fill="none" id="client_clustering-Client" style="stroke:#A80036;stroke-width:1.0;"/><!--MD5=[a5cc4774555e1c2d8177139db920ebec]
link client_regression to Client--><path codeLine="12" d="M988,463.24 C988,481.02 988,505.08 988,522.84 " fill="none" id="client_regression-Client" style="stroke:#A80036;stroke-width:1.0;"/><!--MD5=[e31241865d7f3e900266436c87d85272]
link client_anomaly_detection to Client--><path codeLine="13" d="M838,463.21 C838,492.8 838,539 838,539 C838,539 911.75,539 955.82,539 " fill="none" id="client_anomaly_detection-Client" style="stroke:#A80036;stroke-width:1.0;"/><!--MD5=[ea79898c131fedbdcc1298a76cbae4e4]
link client_configuration to Client--><path codeLine="14" d="M681,463.04 C681,497.01 681,555 681,555 C681,555 876.9,555 955.73,555 " fill="none" id="client_configuration-Client" style="stroke:#A80036;stroke-width:1.0;"/><!--MD5=[6c4f7c576da192e81543d3c9e7fd5eca]
reverse link IClassification to common_classification--><path codeLine="12" d="M1738,198.13 C1738,198.13 1738,308 1738,308 C1738,308 1267.12,308 1106.18,308 " fill="none" id="IClassification-backto-common_classification" style="stroke:#A80036;stroke-width:1.0;"/><polygon fill="#A80036" points="1738,193.13,1734,202.13,1738,198.13,1742,202.13,1738,193.13" style="stroke:#A80036;stroke-width:1.0;"/><!--MD5=[777fabf4122577fac2f828d137e214ac]
reverse link IClustering to common_clustering--><path codeLine="21" d="M1230.33,191.67 C1230.33,191.67 1230.33,213 1230.33,213 C1230.33,213 920,213 920,213 C920,213 920,261.41 920,291.85 " fill="none" id="IClustering-backto-common_clustering" style="stroke:#A80036;stroke-width:1.0;"/><polygon fill="#A80036" points="1230.33,186.67,1226.33,195.67,1230.33,191.67,1234.33,195.67,1230.33,186.67" style="stroke:#A80036;stroke-width:1.0;"/><!--MD5=[c0b2c0e779393aab2544d3cdaee90b51]
reverse link IRegression to common_regression--><path codeLine="29" d="M799.25,185.41 C799.25,185.41 799.25,291.82 799.25,291.82 " fill="none" id="IRegression-backto-common_regression" style="stroke:#A80036;stroke-width:1.0;"/><polygon fill="#A80036" points="799.25,180.41,795.25,189.41,799.25,185.41,803.25,189.41,799.25,180.41" style="stroke:#A80036;stroke-width:1.0;"/><!--MD5=[065952e7f8dc087f5153ce1188c4d49b]
reverse link IAnomalyDetection to common_anomaly_detection--><path codeLine="36" d="M601,178.69 C601,178.69 601,291.76 601,291.76 " fill="none" id="IAnomalyDetection-backto-common_anomaly_detection" style="stroke:#A80036;stroke-width:1.0;"/><polygon fill="#A80036" points="601,173.69,597,182.69,601,178.69,605,182.69,601,173.69" style="stroke:#A80036;stroke-width:1.0;"/><!--MD5=[8636b8677fd095602ab66affc00e7c10]
reverse link IConfiguration to common_configuration--><path codeLine="52" d="M330,237.03 C330,237.03 330,291.9 330,291.9 " fill="none" id="IConfiguration-backto-common_configuration" style="stroke:#A80036;stroke-width:1.0;"/><polygon fill="#A80036" points="330,232.03,326,241.03,330,237.03,334,241.03,330,232.03" style="stroke:#A80036;stroke-width:1.0;"/><!--MD5=[152cfb4ce3cf98aa9314785a3d4d02ab]
reverse link IClassification to client_classification--><path codeLine="6" d="M1828,198.04 C1828,198.04 1828,439 1828,439 C1828,439 1444.19,439 1301.01,439 " fill="none" id="IClassification-backto-client_classification" style="stroke:#A80036;stroke-width:1.0;"/><polygon fill="#A80036" points="1828,193.04,1824,202.04,1828,198.04,1832,202.04,1828,193.04" style="stroke:#A80036;stroke-width:1.0;"/><!--MD5=[6616a333dda478bdca209b03b529c93d]
reverse link IClustering to client_clustering--><path codeLine="7" d="M1189.9,137 C1189.9,137 1177.5,137 1177.5,137 C1177.5,137 1177.5,439 1177.5,439 C1177.5,439 1169.78,439 1159.76,439 " fill="none" id="IClustering-backto-client_clustering" style="stroke:#A80036;stroke-width:1.0;"/><polygon fill="#A80036" points="1194.9,137,1185.9,133,1189.9,137,1185.9,141,1194.9,137" style="stroke:#A80036;stroke-width:1.0;"/><!--MD5=[d445f0e0b0a1b57b278eeb5cd79301ae]
reverse link IRegression to client_regression--><path codeLine="8" d="M982.25,185.16 C982.25,185.16 982.25,414.75 982.25,414.75 " fill="none" id="IRegression-backto-client_regression" style="stroke:#A80036;stroke-width:1.0;"/><polygon fill="#A80036" points="982.25,180.16,978.25,189.16,982.25,185.16,986.25,189.16,982.25,180.16" style="stroke:#A80036;stroke-width:1.0;"/><!--MD5=[fd73ebc30881461da6751724a83393c9]
reverse link IAnomalyDetection to client_anomaly_detection--><path codeLine="9" d="M695.75,178.55 C695.75,178.55 695.75,397 695.75,397 C695.75,397 793.83,397 793.83,397 C793.83,397 793.83,405.33 793.83,414.57 " fill="none" id="IAnomalyDetection-backto-client_anomaly_detection" style="stroke:#A80036;stroke-width:1.0;"/><polygon fill="#A80036" points="695.75,173.55,691.75,182.55,695.75,178.55,699.75,182.55,695.75,173.55" style="stroke:#A80036;stroke-width:1.0;"/><!--MD5=[7820c2e3d9483714344fc47f32ebdd8a]
reverse link IConfiguration to client_configuration--><path codeLine="10" d="M402.75,237.12 C402.75,237.12 402.75,431 402.75,431 C402.75,431 545.71,431 626.69,431 " fill="none" id="IConfiguration-backto-client_configuration" style="stroke:#A80036;stroke-width:1.0;"/><polygon fill="#A80036" points="402.75,232.12,398.75,241.12,402.75,237.12,406.75,241.12,402.75,232.12" style="stroke:#A80036;stroke-width:1.0;"/><!--MD5=[8bedf3a86df287645fe86d83b0bf31ef]
link client_classification to common_classification--><path codeLine="12" d="M1265.67,414.89 C1265.67,381.17 1265.67,324 1265.67,324 C1265.67,324 1169.11,324 1106.12,324 " fill="none" id="client_classification-common_classification" style="stroke:#A80036;stroke-width:1.0;"/><!--MD5=[83730b495ebe99f2f27c26e73653bf23]
link client_clustering to common_clustering--><path codeLine="13" d="M1088.25,415 C1088.25,391.43 1088.25,359 1088.25,359 C1088.25,359 956.5,359 956.5,359 C956.5,359 956.5,349.86 956.5,340.01 " fill="none" id="client_clustering-common_clustering" style="stroke:#A80036;stroke-width:1.0;"/><!--MD5=[5979bf9ee707874e83e9969ab5df6137]
link client_regression to common_regression--><path codeLine="14" d="M948.5,414.89 C948.5,397.84 948.5,378 948.5,378 C948.5,378 817.17,378 817.17,378 C817.17,378 817.17,357.56 817.17,340.15 " fill="none" id="client_regression-common_regression" style="stroke:#A80036;stroke-width:1.0;"/><!--MD5=[4df7d2130446791d1ade1489f0776444]
link client_anomaly_detection to common_anomaly_detection--><path codeLine="15" d="M770.38,439 C753.57,439 740.25,439 740.25,439 C740.25,439 740.25,316 740.25,316 C740.25,316 704.06,316 668.59,316 " fill="none" id="client_anomaly_detection-common_anomaly_detection" style="stroke:#A80036;stroke-width:1.0;"/><!--MD5=[5b671984468c6388496526cd11e43486]
link client_configuration to common_configuration--><path codeLine="16" d="M626.93,447 C528.47,447 330,447 330,447 C330,447 330,377.85 330,340.03 " fill="none" id="client_configuration-common_configuration" style="stroke:#A80036;stroke-width:1.0;"/><!--MD5=[f74790621c64b54bd08d42a1a382e919]
@startuml "client-common"
skinparam linetype ortho

!include client.puml
!include common.puml

client_classification -u- -> IClassification
client_clustering -u- -> IClustering
client_regression -u- -> IRegression
client_anomaly_detection -u- -> IAnomalyDetection
client_configuration -u- -> IConfiguration

client_classification - common_classification
client_clustering - common_clustering
client_regression - common_regression
client_anomaly_detection - common_anomaly_detection
client_configuration - common_configuration

@enduml

@startuml "client-common"
skinparam linetype ortho

skinparam linetype ortho

package client {
    class Client
    class "Classification" as client_classification
    class "Clustering" as client_clustering
    class "Regression" as client_regression
    class "AnomalyDetection" as client_anomaly_detection
    class "Configuration" as client_configuration
    Client -u- client_classification
    Client -u- client_clustering
    Client -u- client_regression
    Client -u- client_anomaly_detection
    Client -u- client_configuration
}

skinparam linetype ortho

package common {
    interface IClassification {
        + dataStats(): DataStatsResponse
        + trainerInfo(): String
        + trainAndEvaluate(): EvaluationResponse
        + confusionMatrix(): ConfusionMatrixResponse
        + serializedModel(): ModelWrapper
    }
    class  "Classification" as common_classification
    common_classification -u-> IClassification

    interface IClustering {
        + train(centroids: Int, iterations: Int, distanceType: KMeansTrainer.Distance,
                numThreads: Int, seed: Long): ClusteringEvaluationResponse
        + centroids(): CentroidsResponse
        + evaluate(): ClusteringEvaluationResponse
    }
    class "Clustering" as common_clustering
    common_clustering -u-> IClustering

    interface IRegression {
        + trainSGD(epochs: Int, seed: Long): RegressionEvaluationResponse
        + trainAdaGrad(epochs: Int, seed: Long): RegressionEvaluationResponse
        + trainCART(maxDepth: Int): RegressionEvaluationResponse
    }
    class "Regression" as common_regression
    common_regression -u-> IRegression

    interface IAnomalyDetection {
        + trainAndEvaluate(): AnomalyEvaluationResult
        + confusionMatrix(): String
    }
    class "AnomalyDetection" as common_anomaly_detection
    common_anomaly_detection -u-> IAnomalyDetection

    interface IConfiguration {
        + dataStats(): String
        + initializeLogisticTrainer(): String
        + mnistLogisticConfig(): ByteArray
        + lrEvaluator(): EvaluationResponse
        + lrEvaluatorConfusionMatrix(): ConfusionMatrixResponse
        + newEvaluator(): EvaluationResponse
        + newEvaluatorConfusionMatrix(): ConfusionMatrixResponse
        + newEvaluatorProvenance(): String
        + transformedEvaluator(): EvaluationResponse
        + transformedEvaluatorConfusionMatrix(): ConfusionMatrixResponse
        + mnistTransformedLogisticConfig(): ByteArray
    }
    class "Configuration" as common_configuration
    common_configuration -u-> IConfiguration
}


client_classification -u- -> IClassification
client_clustering -u- -> IClustering
client_regression -u- -> IRegression
client_anomaly_detection -u- -> IAnomalyDetection
client_configuration -u- -> IConfiguration

client_classification - common_classification
client_clustering - common_clustering
client_regression - common_regression
client_anomaly_detection - common_anomaly_detection
client_configuration - common_configuration

@enduml

PlantUML version 1.2021.7(Sun May 23 13:40:07 BST 2021)
(GPL source distribution)
Java Runtime: OpenJDK Runtime Environment
JVM: OpenJDK 64-Bit Server VM
Default Encoding: UTF-8
Language: en
Country: GB
--></g></svg>