<?xml version="1.0" encoding="UTF-8" standalone="no"?><svg xmlns="http://www.w3.org/2000/svg" xmlns:xlink="http://www.w3.org/1999/xlink" contentScriptType="application/ecmascript" contentStyleType="text/css" height="220px" preserveAspectRatio="none" style="width:739px;height:220px;background:#FFFFFF;" version="1.1" viewBox="0 0 739 220" width="739px" zoomAndPan="magnify"><defs><filter height="300%" id="f6c73hz8vn4es" width="300%" x="-1" y="-1"><feGaussianBlur result="blurOut" stdDeviation="2.0"/><feColorMatrix in="blurOut" result="blurOut2" type="matrix" values="0 0 0 0 0 0 0 0 0 0 0 0 0 0 0 0 0 0 .4 0"/><feOffset dx="4.0" dy="4.0" in="blurOut2" result="blurOut3"/><feBlend in="SourceGraphic" in2="blurOut3" mode="normal"/></filter></defs><g><!--MD5=[aa2f05b2676d7d34ffa7e771fb7634f3]
cluster client--><polygon fill="#FFFFFF" filter="url(#f6c73hz8vn4es)" points="16,6,62,6,69,28.4883,722,28.4883,722,213,16,213,16,6" style="stroke:#000000;stroke-width:1.5;"/><line style="stroke:#000000;stroke-width:1.5;" x1="16" x2="69" y1="28.4883" y2="28.4883"/><text fill="#000000" font-family="sans-serif" font-size="14" font-weight="bold" lengthAdjust="spacing" textLength="40" x="20" y="21.5352">client</text><!--MD5=[ed6624c6556d5e7b1bd23032162d20b7]
class Client--><rect codeLine="4" fill="#FEFECE" filter="url(#f6c73hz8vn4es)" height="48" id="Client" style="stroke:#A80036;stroke-width:1.5;" width="64" x="313" y="149"/><ellipse cx="328" cy="165" fill="#ADD1B2" rx="11" ry="11" style="stroke:#A80036;stroke-width:1.0;"/><path d="M330.4731,171.1431 Q329.8921,171.4419 329.2529,171.5913 Q328.6138,171.7407 327.9082,171.7407 Q325.4014,171.7407 324.0815,170.0889 Q322.7617,168.437 322.7617,165.3159 Q322.7617,162.1865 324.0815,160.5347 Q325.4014,158.8828 327.9082,158.8828 Q328.6138,158.8828 329.2612,159.0322 Q329.9087,159.1816 330.4731,159.4805 L330.4731,162.2031 Q329.8423,161.6221 329.2488,161.3523 Q328.6553,161.0825 328.0244,161.0825 Q326.6797,161.0825 325.9949,162.1492 Q325.3101,163.2158 325.3101,165.3159 Q325.3101,167.4077 325.9949,168.4744 Q326.6797,169.541 328.0244,169.541 Q328.6553,169.541 329.2488,169.2712 Q329.8423,169.0015 330.4731,168.4204 Z " fill="#000000"/><text fill="#000000" font-family="sans-serif" font-size="12" lengthAdjust="spacing" textLength="32" x="342" y="169.5352">Client</text><line style="stroke:#A80036;stroke-width:1.5;" x1="314" x2="376" y1="181" y2="181"/><line style="stroke:#A80036;stroke-width:1.5;" x1="314" x2="376" y1="189" y2="189"/><!--MD5=[a9ead43f23a6c0ebb4024b7a2100913b]
class client_classification--><rect codeLine="5" fill="#FEFECE" filter="url(#f6c73hz8vn4es)" height="48" id="client_classification" style="stroke:#A80036;stroke-width:1.5;" width="106" x="32" y="41"/><ellipse cx="47" cy="57" fill="#ADD1B2" rx="11" ry="11" style="stroke:#A80036;stroke-width:1.0;"/><path d="M49.4731,63.1431 Q48.8921,63.4419 48.2529,63.5913 Q47.6138,63.7407 46.9082,63.7407 Q44.4014,63.7407 43.0815,62.0889 Q41.7617,60.437 41.7617,57.3159 Q41.7617,54.1865 43.0815,52.5347 Q44.4014,50.8828 46.9082,50.8828 Q47.6138,50.8828 48.2612,51.0322 Q48.9087,51.1816 49.4731,51.4805 L49.4731,54.2031 Q48.8423,53.6221 48.2488,53.3523 Q47.6553,53.0825 47.0244,53.0825 Q45.6797,53.0825 44.9949,54.1492 Q44.3101,55.2158 44.3101,57.3159 Q44.3101,59.4077 44.9949,60.4744 Q45.6797,61.541 47.0244,61.541 Q47.6553,61.541 48.2488,61.2712 Q48.8423,61.0015 49.4731,60.4204 Z " fill="#000000"/><text fill="#000000" font-family="sans-serif" font-size="12" lengthAdjust="spacing" textLength="74" x="61" y="61.5352">Classification</text><line style="stroke:#A80036;stroke-width:1.5;" x1="33" x2="137" y1="73" y2="73"/><line style="stroke:#A80036;stroke-width:1.5;" x1="33" x2="137" y1="81" y2="81"/><!--MD5=[076ba4a9ab27bc90462c17d20e6e31d3]
class client_clustering--><rect codeLine="6" fill="#FEFECE" filter="url(#f6c73hz8vn4es)" height="48" id="client_clustering" style="stroke:#A80036;stroke-width:1.5;" width="89" x="173.5" y="41"/><ellipse cx="188.5" cy="57" fill="#ADD1B2" rx="11" ry="11" style="stroke:#A80036;stroke-width:1.0;"/><path d="M190.9731,63.1431 Q190.3921,63.4419 189.7529,63.5913 Q189.1138,63.7407 188.4082,63.7407 Q185.9014,63.7407 184.5815,62.0889 Q183.2617,60.437 183.2617,57.3159 Q183.2617,54.1865 184.5815,52.5347 Q185.9014,50.8828 188.4082,50.8828 Q189.1138,50.8828 189.7612,51.0322 Q190.4087,51.1816 190.9731,51.4805 L190.9731,54.2031 Q190.3423,53.6221 189.7488,53.3523 Q189.1553,53.0825 188.5244,53.0825 Q187.1797,53.0825 186.4949,54.1492 Q185.8101,55.2158 185.8101,57.3159 Q185.8101,59.4077 186.4949,60.4744 Q187.1797,61.541 188.5244,61.541 Q189.1553,61.541 189.7488,61.2712 Q190.3423,61.0015 190.9731,60.4204 Z " fill="#000000"/><text fill="#000000" font-family="sans-serif" font-size="12" lengthAdjust="spacing" textLength="57" x="202.5" y="61.5352">Clustering</text><line style="stroke:#A80036;stroke-width:1.5;" x1="174.5" x2="261.5" y1="73" y2="73"/><line style="stroke:#A80036;stroke-width:1.5;" x1="174.5" x2="261.5" y1="81" y2="81"/><!--MD5=[e287d894ccf71dd3eb5a2967bd476b79]
class client_regression--><rect codeLine="7" fill="#FEFECE" filter="url(#f6c73hz8vn4es)" height="48" id="client_regression" style="stroke:#A80036;stroke-width:1.5;" width="95" x="297.5" y="41"/><ellipse cx="312.5" cy="57" fill="#ADD1B2" rx="11" ry="11" style="stroke:#A80036;stroke-width:1.0;"/><path d="M314.9731,63.1431 Q314.3921,63.4419 313.7529,63.5913 Q313.1138,63.7407 312.4082,63.7407 Q309.9014,63.7407 308.5815,62.0889 Q307.2617,60.437 307.2617,57.3159 Q307.2617,54.1865 308.5815,52.5347 Q309.9014,50.8828 312.4082,50.8828 Q313.1138,50.8828 313.7612,51.0322 Q314.4087,51.1816 314.9731,51.4805 L314.9731,54.2031 Q314.3423,53.6221 313.7488,53.3523 Q313.1553,53.0825 312.5244,53.0825 Q311.1797,53.0825 310.4949,54.1492 Q309.8101,55.2158 309.8101,57.3159 Q309.8101,59.4077 310.4949,60.4744 Q311.1797,61.541 312.5244,61.541 Q313.1553,61.541 313.7488,61.2712 Q314.3423,61.0015 314.9731,60.4204 Z " fill="#000000"/><text fill="#000000" font-family="sans-serif" font-size="12" lengthAdjust="spacing" textLength="63" x="326.5" y="61.5352">Regression</text><line style="stroke:#A80036;stroke-width:1.5;" x1="298.5" x2="391.5" y1="73" y2="73"/><line style="stroke:#A80036;stroke-width:1.5;" x1="298.5" x2="391.5" y1="81" y2="81"/><!--MD5=[f49ea083fcfc3d21b1b3dc65bb13c5f4]
class client_anomaly_detection--><rect codeLine="8" fill="#FEFECE" filter="url(#f6c73hz8vn4es)" height="48" id="client_anomaly_detection" style="stroke:#A80036;stroke-width:1.5;" width="135" x="427.5" y="41"/><ellipse cx="442.5" cy="57" fill="#ADD1B2" rx="11" ry="11" style="stroke:#A80036;stroke-width:1.0;"/><path d="M444.9731,63.1431 Q444.3921,63.4419 443.7529,63.5913 Q443.1138,63.7407 442.4082,63.7407 Q439.9014,63.7407 438.5815,62.0889 Q437.2617,60.437 437.2617,57.3159 Q437.2617,54.1865 438.5815,52.5347 Q439.9014,50.8828 442.4082,50.8828 Q443.1138,50.8828 443.7612,51.0322 Q444.4087,51.1816 444.9731,51.4805 L444.9731,54.2031 Q444.3423,53.6221 443.7488,53.3523 Q443.1553,53.0825 442.5244,53.0825 Q441.1797,53.0825 440.4949,54.1492 Q439.8101,55.2158 439.8101,57.3159 Q439.8101,59.4077 440.4949,60.4744 Q441.1797,61.541 442.5244,61.541 Q443.1553,61.541 443.7488,61.2712 Q444.3423,61.0015 444.9731,60.4204 Z " fill="#000000"/><text fill="#000000" font-family="sans-serif" font-size="12" lengthAdjust="spacing" textLength="103" x="456.5" y="61.5352">AnomalyDetection</text><line style="stroke:#A80036;stroke-width:1.5;" x1="428.5" x2="561.5" y1="73" y2="73"/><line style="stroke:#A80036;stroke-width:1.5;" x1="428.5" x2="561.5" y1="81" y2="81"/><!--MD5=[dbff53e97ea105410f428174bbf1a783]
class client_configuration--><rect codeLine="9" fill="#FEFECE" filter="url(#f6c73hz8vn4es)" height="48" id="client_configuration" style="stroke:#A80036;stroke-width:1.5;" width="108" x="598" y="41"/><ellipse cx="613" cy="57" fill="#ADD1B2" rx="11" ry="11" style="stroke:#A80036;stroke-width:1.0;"/><path d="M615.4731,63.1431 Q614.8921,63.4419 614.2529,63.5913 Q613.6138,63.7407 612.9082,63.7407 Q610.4014,63.7407 609.0815,62.0889 Q607.7617,60.437 607.7617,57.3159 Q607.7617,54.1865 609.0815,52.5347 Q610.4014,50.8828 612.9082,50.8828 Q613.6138,50.8828 614.2612,51.0322 Q614.9087,51.1816 615.4731,51.4805 L615.4731,54.2031 Q614.8423,53.6221 614.2488,53.3523 Q613.6553,53.0825 613.0244,53.0825 Q611.6797,53.0825 610.9949,54.1492 Q610.3101,55.2158 610.3101,57.3159 Q610.3101,59.4077 610.9949,60.4744 Q611.6797,61.541 613.0244,61.541 Q613.6553,61.541 614.2488,61.2712 Q614.8423,61.0015 615.4731,60.4204 Z " fill="#000000"/><text fill="#000000" font-family="sans-serif" font-size="12" lengthAdjust="spacing" textLength="76" x="627" y="61.5352">Configuration</text><line style="stroke:#A80036;stroke-width:1.5;" x1="599" x2="705" y1="73" y2="73"/><line style="stroke:#A80036;stroke-width:1.5;" x1="599" x2="705" y1="81" y2="81"/><!--MD5=[5e77562dce365d1c991848d88f4ca2b1]
link client_classification to Client--><path codeLine="10" d="M85,89.04 C85,123.01 85,181 85,181 C85,181 243.29,181 312.86,181 " fill="none" id="client_classification-Client" style="stroke:#A80036;stroke-width:1.0;"/><!--MD5=[34bfce2e3112a157e553ebf1cbaadebc]
link client_clustering to Client--><path codeLine="11" d="M218,89.21 C218,118.8 218,165 218,165 C218,165 275.33,165 312.95,165 " fill="none" id="client_clustering-Client" style="stroke:#A80036;stroke-width:1.0;"/><!--MD5=[a5cc4774555e1c2d8177139db920ebec]
link client_regression to Client--><path codeLine="12" d="M345,89.24 C345,107.02 345,131.08 345,148.84 " fill="none" id="client_regression-Client" style="stroke:#A80036;stroke-width:1.0;"/><!--MD5=[e31241865d7f3e900266436c87d85272]
link client_anomaly_detection to Client--><path codeLine="13" d="M495,89.21 C495,118.8 495,165 495,165 C495,165 421.25,165 377.18,165 " fill="none" id="client_anomaly_detection-Client" style="stroke:#A80036;stroke-width:1.0;"/><!--MD5=[ea79898c131fedbdcc1298a76cbae4e4]
link client_configuration to Client--><path codeLine="14" d="M652,89.04 C652,123.01 652,181 652,181 C652,181 456.1,181 377.27,181 " fill="none" id="client_configuration-Client" style="stroke:#A80036;stroke-width:1.0;"/><!--MD5=[393461ed6e73cbd8c3ccb0c62ddee0ff]
@startuml "client"
skinparam linetype ortho

package client {
    class Client
    class "Classification" as client_classification
    class "Clustering" as client_clustering
    class "Regression" as client_regression
    class "AnomalyDetection" as client_anomaly_detection
    class "Configuration" as client_configuration
    Client -u- client_classification
    Client -u- client_clustering
    Client -u- client_regression
    Client -u- client_anomaly_detection
    Client -u- client_configuration
}

@enduml

PlantUML version 1.2021.7(Sun May 23 13:40:07 BST 2021)
(GPL source distribution)
Java Runtime: OpenJDK Runtime Environment
JVM: OpenJDK 64-Bit Server VM
Default Encoding: UTF-8
Language: en
Country: GB
--></g></svg>