<?xml version="1.0" encoding="UTF-8" standalone="no"?><svg xmlns="http://www.w3.org/2000/svg" xmlns:xlink="http://www.w3.org/1999/xlink" contentScriptType="application/ecmascript" contentStyleType="text/css" height="363px" preserveAspectRatio="none" style="width:1951px;height:363px;background:#FFFFFF;" version="1.1" viewBox="0 0 1951 363" width="1951px" zoomAndPan="magnify"><defs><filter height="300%" id="f1s31w3lvy2ap7" width="300%" x="-1" y="-1"><feGaussianBlur result="blurOut" stdDeviation="2.0"/><feColorMatrix in="blurOut" result="blurOut2" type="matrix" values="0 0 0 0 0 0 0 0 0 0 0 0 0 0 0 0 0 0 .4 0"/><feOffset dx="4.0" dy="4.0" in="blurOut2" result="blurOut3"/><feBlend in="SourceGraphic" in2="blurOut3" mode="normal"/></filter></defs><g><!--MD5=[b28fcb397abe995d6d4652e4c54b3002]
cluster common--><polygon fill="#FFFFFF" filter="url(#f1s31w3lvy2ap7)" points="16,6,84,6,91,28.4883,1934,28.4883,1934,356,16,356,16,6" style="stroke:#000000;stroke-width:1.5;"/><line style="stroke:#000000;stroke-width:1.5;" x1="16" x2="91" y1="28.4883" y2="28.4883"/><text fill="#000000" font-family="sans-serif" font-size="14" font-weight="bold" lengthAdjust="spacing" textLength="62" x="20" y="21.5352">common</text><!--MD5=[a3712a81e3216f1ee640c4176fa18730]
class IClassification--><rect codeLine="4" fill="#FEFECE" filter="url(#f1s31w3lvy2ap7)" height="112.7754" id="IClassification" style="stroke:#A80036;stroke-width:1.5;" width="270" x="32" y="80"/><ellipse cx="124.25" cy="96" fill="#B4A7E5" rx="11" ry="11" style="stroke:#A80036;stroke-width:1.0;"/><path d="M120.6777,92.2651 L120.6777,90.1069 L128.0571,90.1069 L128.0571,92.2651 L125.5918,92.2651 L125.5918,100.3418 L128.0571,100.3418 L128.0571,102.5 L120.6777,102.5 L120.6777,100.3418 L123.1431,100.3418 L123.1431,92.2651 Z " fill="#000000"/><text fill="#000000" font-family="sans-serif" font-size="12" font-style="italic" lengthAdjust="spacing" textLength="77" x="144.75" y="100.5352">IClassification</text><line style="stroke:#A80036;stroke-width:1.5;" x1="33" x2="301" y1="112" y2="112"/><line style="stroke:#A80036;stroke-width:1.5;" x1="33" x2="301" y1="120" y2="120"/><ellipse cx="43" cy="131" fill="#84BE84" rx="3" ry="3" style="stroke:#038048;stroke-width:1.0;"/><text fill="#000000" font-family="sans-serif" font-size="11" lengthAdjust="spacing" textLength="165" x="52" y="134.6348">dataStats(): DataStatsResponse</text><ellipse cx="43" cy="143.9551" fill="#84BE84" rx="3" ry="3" style="stroke:#038048;stroke-width:1.0;"/><text fill="#000000" font-family="sans-serif" font-size="11" lengthAdjust="spacing" textLength="103" x="52" y="147.5898">trainerInfo(): String</text><ellipse cx="43" cy="156.9102" fill="#84BE84" rx="3" ry="3" style="stroke:#038048;stroke-width:1.0;"/><text fill="#000000" font-family="sans-serif" font-size="11" lengthAdjust="spacing" textLength="212" x="52" y="160.5449">trainAndEvaluate(): EvaluationResponse</text><ellipse cx="43" cy="169.8652" fill="#84BE84" rx="3" ry="3" style="stroke:#038048;stroke-width:1.0;"/><text fill="#000000" font-family="sans-serif" font-size="11" lengthAdjust="spacing" textLength="244" x="52" y="173.5">confusionMatrix(): ConfusionMatrixResponse</text><ellipse cx="43" cy="182.8203" fill="#84BE84" rx="3" ry="3" style="stroke:#038048;stroke-width:1.0;"/><text fill="#000000" font-family="sans-serif" font-size="11" lengthAdjust="spacing" textLength="174" x="52" y="186.4551">serializedModel(): ModelWrapper</text><!--MD5=[96dc21af906a864c26a2e0786950d9f6]
class common_classification--><rect codeLine="11" fill="#FEFECE" filter="url(#f1s31w3lvy2ap7)" height="48" id="common_classification" style="stroke:#A80036;stroke-width:1.5;" width="106" x="114" y="292"/><ellipse cx="129" cy="308" fill="#ADD1B2" rx="11" ry="11" style="stroke:#A80036;stroke-width:1.0;"/><path d="M131.4731,314.1431 Q130.8921,314.4419 130.2529,314.5913 Q129.6138,314.7407 128.9082,314.7407 Q126.4014,314.7407 125.0815,313.0889 Q123.7617,311.437 123.7617,308.3159 Q123.7617,305.1865 125.0815,303.5347 Q126.4014,301.8828 128.9082,301.8828 Q129.6138,301.8828 130.2612,302.0322 Q130.9087,302.1816 131.4731,302.4805 L131.4731,305.2031 Q130.8423,304.6221 130.2488,304.3523 Q129.6553,304.0825 129.0244,304.0825 Q127.6797,304.0825 126.9949,305.1492 Q126.3101,306.2158 126.3101,308.3159 Q126.3101,310.4077 126.9949,311.4744 Q127.6797,312.541 129.0244,312.541 Q129.6553,312.541 130.2488,312.2712 Q130.8423,312.0015 131.4731,311.4204 Z " fill="#000000"/><text fill="#000000" font-family="sans-serif" font-size="12" lengthAdjust="spacing" textLength="74" x="143" y="312.5352">Classification</text><line style="stroke:#A80036;stroke-width:1.5;" x1="115" x2="219" y1="324" y2="324"/><line style="stroke:#A80036;stroke-width:1.5;" x1="115" x2="219" y1="332" y2="332"/><!--MD5=[d935affd0ee964109d8c961354f84dba]
class IClustering--><rect codeLine="14" fill="#FEFECE" filter="url(#f1s31w3lvy2ap7)" height="99.8203" id="IClustering" style="stroke:#A80036;stroke-width:1.5;" width="418" x="337" y="86.5"/><ellipse cx="511.75" cy="102.5" fill="#B4A7E5" rx="11" ry="11" style="stroke:#A80036;stroke-width:1.0;"/><path d="M508.1777,98.7651 L508.1777,96.6069 L515.5571,96.6069 L515.5571,98.7651 L513.0918,98.7651 L513.0918,106.8418 L515.5571,106.8418 L515.5571,109 L508.1777,109 L508.1777,106.8418 L510.6431,106.8418 L510.6431,98.7651 Z " fill="#000000"/><text fill="#000000" font-family="sans-serif" font-size="12" font-style="italic" lengthAdjust="spacing" textLength="60" x="532.25" y="107.0352">IClustering</text><line style="stroke:#A80036;stroke-width:1.5;" x1="338" x2="754" y1="118.5" y2="118.5"/><line style="stroke:#A80036;stroke-width:1.5;" x1="338" x2="754" y1="126.5" y2="126.5"/><ellipse cx="348" cy="137.5" fill="#84BE84" rx="3" ry="3" style="stroke:#038048;stroke-width:1.0;"/><text fill="#000000" font-family="sans-serif" font-size="11" lengthAdjust="spacing" textLength="392" x="357" y="141.1348">train(centroids: Int, iterations: Int, distanceType: KMeansTrainer.Distance,</text><text fill="#000000" font-family="sans-serif" font-size="11" lengthAdjust="spacing" textLength="325" x="357" y="154.0898">numThreads: Int, seed: Long): ClusteringEvaluationResponse</text><ellipse cx="348" cy="163.4102" fill="#84BE84" rx="3" ry="3" style="stroke:#038048;stroke-width:1.0;"/><text fill="#000000" font-family="sans-serif" font-size="11" lengthAdjust="spacing" textLength="170" x="357" y="167.0449">centroids(): CentroidsResponse</text><ellipse cx="348" cy="176.3652" fill="#84BE84" rx="3" ry="3" style="stroke:#038048;stroke-width:1.0;"/><text fill="#000000" font-family="sans-serif" font-size="11" lengthAdjust="spacing" textLength="221" x="357" y="180">evaluate(): ClusteringEvaluationResponse</text><!--MD5=[14ab531d374cbb22cdd745cf8ae3b009]
class common_clustering--><rect codeLine="20" fill="#FEFECE" filter="url(#f1s31w3lvy2ap7)" height="48" id="common_clustering" style="stroke:#A80036;stroke-width:1.5;" width="89" x="501.5" y="292"/><ellipse cx="516.5" cy="308" fill="#ADD1B2" rx="11" ry="11" style="stroke:#A80036;stroke-width:1.0;"/><path d="M518.9731,314.1431 Q518.3921,314.4419 517.7529,314.5913 Q517.1138,314.7407 516.4082,314.7407 Q513.9014,314.7407 512.5815,313.0889 Q511.2617,311.437 511.2617,308.3159 Q511.2617,305.1865 512.5815,303.5347 Q513.9014,301.8828 516.4082,301.8828 Q517.1138,301.8828 517.7612,302.0322 Q518.4087,302.1816 518.9731,302.4805 L518.9731,305.2031 Q518.3423,304.6221 517.7488,304.3523 Q517.1553,304.0825 516.5244,304.0825 Q515.1797,304.0825 514.4949,305.1492 Q513.8101,306.2158 513.8101,308.3159 Q513.8101,310.4077 514.4949,311.4744 Q515.1797,312.541 516.5244,312.541 Q517.1553,312.541 517.7488,312.2712 Q518.3423,312.0015 518.9731,311.4204 Z " fill="#000000"/><text fill="#000000" font-family="sans-serif" font-size="12" lengthAdjust="spacing" textLength="57" x="530.5" y="312.5352">Clustering</text><line style="stroke:#A80036;stroke-width:1.5;" x1="502.5" x2="589.5" y1="324" y2="324"/><line style="stroke:#A80036;stroke-width:1.5;" x1="502.5" x2="589.5" y1="332" y2="332"/><!--MD5=[306e7f75c98cd0299b3556e0ecd40ec6]
class IRegression--><rect codeLine="23" fill="#FEFECE" filter="url(#f1s31w3lvy2ap7)" height="86.8652" id="IRegression" style="stroke:#A80036;stroke-width:1.5;" width="402" x="790" y="93"/><ellipse cx="953.75" cy="109" fill="#B4A7E5" rx="11" ry="11" style="stroke:#A80036;stroke-width:1.0;"/><path d="M950.1777,105.2651 L950.1777,103.1069 L957.5571,103.1069 L957.5571,105.2651 L955.0918,105.2651 L955.0918,113.3418 L957.5571,113.3418 L957.5571,115.5 L950.1777,115.5 L950.1777,113.3418 L952.6431,113.3418 L952.6431,105.2651 Z " fill="#000000"/><text fill="#000000" font-family="sans-serif" font-size="12" font-style="italic" lengthAdjust="spacing" textLength="66" x="974.25" y="113.5352">IRegression</text><line style="stroke:#A80036;stroke-width:1.5;" x1="791" x2="1191" y1="125" y2="125"/><line style="stroke:#A80036;stroke-width:1.5;" x1="791" x2="1191" y1="133" y2="133"/><ellipse cx="801" cy="144" fill="#84BE84" rx="3" ry="3" style="stroke:#038048;stroke-width:1.0;"/><text fill="#000000" font-family="sans-serif" font-size="11" lengthAdjust="spacing" textLength="351" x="810" y="147.6348">trainSGD(epochs: Int, seed: Long): RegressionEvaluationResponse</text><ellipse cx="801" cy="156.9551" fill="#84BE84" rx="3" ry="3" style="stroke:#038048;stroke-width:1.0;"/><text fill="#000000" font-family="sans-serif" font-size="11" lengthAdjust="spacing" textLength="376" x="810" y="160.5898">trainAdaGrad(epochs: Int, seed: Long): RegressionEvaluationResponse</text><ellipse cx="801" cy="169.9102" fill="#84BE84" rx="3" ry="3" style="stroke:#038048;stroke-width:1.0;"/><text fill="#000000" font-family="sans-serif" font-size="11" lengthAdjust="spacing" textLength="311" x="810" y="173.5449">trainCART(maxDepth: Int): RegressionEvaluationResponse</text><!--MD5=[df7a0345382cf737f6a42af10fe68554]
class common_regression--><rect codeLine="28" fill="#FEFECE" filter="url(#f1s31w3lvy2ap7)" height="48" id="common_regression" style="stroke:#A80036;stroke-width:1.5;" width="95" x="943.5" y="292"/><ellipse cx="958.5" cy="308" fill="#ADD1B2" rx="11" ry="11" style="stroke:#A80036;stroke-width:1.0;"/><path d="M960.9731,314.1431 Q960.3921,314.4419 959.7529,314.5913 Q959.1138,314.7407 958.4082,314.7407 Q955.9014,314.7407 954.5815,313.0889 Q953.2617,311.437 953.2617,308.3159 Q953.2617,305.1865 954.5815,303.5347 Q955.9014,301.8828 958.4082,301.8828 Q959.1138,301.8828 959.7612,302.0322 Q960.4087,302.1816 960.9731,302.4805 L960.9731,305.2031 Q960.3423,304.6221 959.7488,304.3523 Q959.1553,304.0825 958.5244,304.0825 Q957.1797,304.0825 956.4949,305.1492 Q955.8101,306.2158 955.8101,308.3159 Q955.8101,310.4077 956.4949,311.4744 Q957.1797,312.541 958.5244,312.541 Q959.1553,312.541 959.7488,312.2712 Q960.3423,312.0015 960.9731,311.4204 Z " fill="#000000"/><text fill="#000000" font-family="sans-serif" font-size="12" lengthAdjust="spacing" textLength="63" x="972.5" y="312.5352">Regression</text><line style="stroke:#A80036;stroke-width:1.5;" x1="944.5" x2="1037.5" y1="324" y2="324"/><line style="stroke:#A80036;stroke-width:1.5;" x1="944.5" x2="1037.5" y1="332" y2="332"/><!--MD5=[f52a476548ebc64fafc0249088dee62c]
class IAnomalyDetection--><rect codeLine="31" fill="#FEFECE" filter="url(#f1s31w3lvy2ap7)" height="73.9102" id="IAnomalyDetection" style="stroke:#A80036;stroke-width:1.5;" width="266" x="1227" y="99.5"/><ellipse cx="1302.75" cy="115.5" fill="#B4A7E5" rx="11" ry="11" style="stroke:#A80036;stroke-width:1.0;"/><path d="M1299.1777,111.7651 L1299.1777,109.6069 L1306.5571,109.6069 L1306.5571,111.7651 L1304.0918,111.7651 L1304.0918,119.8418 L1306.5571,119.8418 L1306.5571,122 L1299.1777,122 L1299.1777,119.8418 L1301.6431,119.8418 L1301.6431,111.7651 Z " fill="#000000"/><text fill="#000000" font-family="sans-serif" font-size="12" font-style="italic" lengthAdjust="spacing" textLength="106" x="1323.25" y="120.0352">IAnomalyDetection</text><line style="stroke:#A80036;stroke-width:1.5;" x1="1228" x2="1492" y1="131.5" y2="131.5"/><line style="stroke:#A80036;stroke-width:1.5;" x1="1228" x2="1492" y1="139.5" y2="139.5"/><ellipse cx="1238" cy="150.5" fill="#84BE84" rx="3" ry="3" style="stroke:#038048;stroke-width:1.0;"/><text fill="#000000" font-family="sans-serif" font-size="11" lengthAdjust="spacing" textLength="240" x="1247" y="154.1348">trainAndEvaluate(): AnomalyEvaluationResult</text><ellipse cx="1238" cy="163.4551" fill="#84BE84" rx="3" ry="3" style="stroke:#038048;stroke-width:1.0;"/><text fill="#000000" font-family="sans-serif" font-size="11" lengthAdjust="spacing" textLength="134" x="1247" y="167.0898">confusionMatrix(): String</text><!--MD5=[bb9937edd3538a431fc1b74eab276c28]
class common_anomaly_detection--><rect codeLine="35" fill="#FEFECE" filter="url(#f1s31w3lvy2ap7)" height="48" id="common_anomaly_detection" style="stroke:#A80036;stroke-width:1.5;" width="135" x="1292.5" y="292"/><ellipse cx="1307.5" cy="308" fill="#ADD1B2" rx="11" ry="11" style="stroke:#A80036;stroke-width:1.0;"/><path d="M1309.9731,314.1431 Q1309.3921,314.4419 1308.7529,314.5913 Q1308.1138,314.7407 1307.4082,314.7407 Q1304.9014,314.7407 1303.5815,313.0889 Q1302.2617,311.437 1302.2617,308.3159 Q1302.2617,305.1865 1303.5815,303.5347 Q1304.9014,301.8828 1307.4082,301.8828 Q1308.1138,301.8828 1308.7612,302.0322 Q1309.4087,302.1816 1309.9731,302.4805 L1309.9731,305.2031 Q1309.3423,304.6221 1308.7488,304.3523 Q1308.1553,304.0825 1307.5244,304.0825 Q1306.1797,304.0825 1305.4949,305.1492 Q1304.8101,306.2158 1304.8101,308.3159 Q1304.8101,310.4077 1305.4949,311.4744 Q1306.1797,312.541 1307.5244,312.541 Q1308.1553,312.541 1308.7488,312.2712 Q1309.3423,312.0015 1309.9731,311.4204 Z " fill="#000000"/><text fill="#000000" font-family="sans-serif" font-size="12" lengthAdjust="spacing" textLength="103" x="1321.5" y="312.5352">AnomalyDetection</text><line style="stroke:#A80036;stroke-width:1.5;" x1="1293.5" x2="1426.5" y1="324" y2="324"/><line style="stroke:#A80036;stroke-width:1.5;" x1="1293.5" x2="1426.5" y1="332" y2="332"/><!--MD5=[abbbcb1c8f1500e902234e16564fb62e]
class IConfiguration--><rect codeLine="38" fill="#FEFECE" filter="url(#f1s31w3lvy2ap7)" height="190.5059" id="IConfiguration" style="stroke:#A80036;stroke-width:1.5;" width="389" x="1528.5" y="41"/><ellipse cx="1679.25" cy="57" fill="#B4A7E5" rx="11" ry="11" style="stroke:#A80036;stroke-width:1.0;"/><path d="M1675.6777,53.2651 L1675.6777,51.1069 L1683.0571,51.1069 L1683.0571,53.2651 L1680.5918,53.2651 L1680.5918,61.3418 L1683.0571,61.3418 L1683.0571,63.5 L1675.6777,63.5 L1675.6777,61.3418 L1678.1431,61.3418 L1678.1431,53.2651 Z " fill="#000000"/><text fill="#000000" font-family="sans-serif" font-size="12" font-style="italic" lengthAdjust="spacing" textLength="79" x="1699.75" y="61.5352">IConfiguration</text><line style="stroke:#A80036;stroke-width:1.5;" x1="1529.5" x2="1916.5" y1="73" y2="73"/><line style="stroke:#A80036;stroke-width:1.5;" x1="1529.5" x2="1916.5" y1="81" y2="81"/><ellipse cx="1539.5" cy="92" fill="#84BE84" rx="3" ry="3" style="stroke:#038048;stroke-width:1.0;"/><text fill="#000000" font-family="sans-serif" font-size="11" lengthAdjust="spacing" textLength="95" x="1548.5" y="95.6348">dataStats(): String</text><ellipse cx="1539.5" cy="104.9551" fill="#84BE84" rx="3" ry="3" style="stroke:#038048;stroke-width:1.0;"/><text fill="#000000" font-family="sans-serif" font-size="11" lengthAdjust="spacing" textLength="171" x="1548.5" y="108.5898">initializeLogisticTrainer(): String</text><ellipse cx="1539.5" cy="117.9102" fill="#84BE84" rx="3" ry="3" style="stroke:#038048;stroke-width:1.0;"/><text fill="#000000" font-family="sans-serif" font-size="11" lengthAdjust="spacing" textLength="174" x="1548.5" y="121.5449">mnistLogisticConfig(): ByteArray</text><ellipse cx="1539.5" cy="130.8652" fill="#84BE84" rx="3" ry="3" style="stroke:#038048;stroke-width:1.0;"/><text fill="#000000" font-family="sans-serif" font-size="11" lengthAdjust="spacing" textLength="179" x="1548.5" y="134.5">lrEvaluator(): EvaluationResponse</text><ellipse cx="1539.5" cy="143.8203" fill="#84BE84" rx="3" ry="3" style="stroke:#038048;stroke-width:1.0;"/><text fill="#000000" font-family="sans-serif" font-size="11" lengthAdjust="spacing" textLength="304" x="1548.5" y="147.4551">lrEvaluatorConfusionMatrix(): ConfusionMatrixResponse</text><ellipse cx="1539.5" cy="156.7754" fill="#84BE84" rx="3" ry="3" style="stroke:#038048;stroke-width:1.0;"/><text fill="#000000" font-family="sans-serif" font-size="11" lengthAdjust="spacing" textLength="192" x="1548.5" y="160.4102">newEvaluator(): EvaluationResponse</text><ellipse cx="1539.5" cy="169.7305" fill="#84BE84" rx="3" ry="3" style="stroke:#038048;stroke-width:1.0;"/><text fill="#000000" font-family="sans-serif" font-size="11" lengthAdjust="spacing" textLength="317" x="1548.5" y="173.3652">newEvaluatorConfusionMatrix(): ConfusionMatrixResponse</text><ellipse cx="1539.5" cy="182.6855" fill="#84BE84" rx="3" ry="3" style="stroke:#038048;stroke-width:1.0;"/><text fill="#000000" font-family="sans-serif" font-size="11" lengthAdjust="spacing" textLength="179" x="1548.5" y="186.3203">newEvaluatorProvenance(): String</text><ellipse cx="1539.5" cy="195.6406" fill="#84BE84" rx="3" ry="3" style="stroke:#038048;stroke-width:1.0;"/><text fill="#000000" font-family="sans-serif" font-size="11" lengthAdjust="spacing" textLength="238" x="1548.5" y="199.2754">transformedEvaluator(): EvaluationResponse</text><ellipse cx="1539.5" cy="208.5957" fill="#84BE84" rx="3" ry="3" style="stroke:#038048;stroke-width:1.0;"/><text fill="#000000" font-family="sans-serif" font-size="11" lengthAdjust="spacing" textLength="363" x="1548.5" y="212.2305">transformedEvaluatorConfusionMatrix(): ConfusionMatrixResponse</text><ellipse cx="1539.5" cy="221.5508" fill="#84BE84" rx="3" ry="3" style="stroke:#038048;stroke-width:1.0;"/><text fill="#000000" font-family="sans-serif" font-size="11" lengthAdjust="spacing" textLength="244" x="1548.5" y="225.1855">mnistTransformedLogisticConfig(): ByteArray</text><!--MD5=[a7e37f5ed935d3a049ea1d38640e6bf8]
class common_configuration--><rect codeLine="51" fill="#FEFECE" filter="url(#f1s31w3lvy2ap7)" height="48" id="common_configuration" style="stroke:#A80036;stroke-width:1.5;" width="108" x="1669" y="292"/><ellipse cx="1684" cy="308" fill="#ADD1B2" rx="11" ry="11" style="stroke:#A80036;stroke-width:1.0;"/><path d="M1686.4731,314.1431 Q1685.8921,314.4419 1685.2529,314.5913 Q1684.6138,314.7407 1683.9082,314.7407 Q1681.4014,314.7407 1680.0815,313.0889 Q1678.7617,311.437 1678.7617,308.3159 Q1678.7617,305.1865 1680.0815,303.5347 Q1681.4014,301.8828 1683.9082,301.8828 Q1684.6138,301.8828 1685.2612,302.0322 Q1685.9087,302.1816 1686.4731,302.4805 L1686.4731,305.2031 Q1685.8423,304.6221 1685.2488,304.3523 Q1684.6553,304.0825 1684.0244,304.0825 Q1682.6797,304.0825 1681.9949,305.1492 Q1681.3101,306.2158 1681.3101,308.3159 Q1681.3101,310.4077 1681.9949,311.4744 Q1682.6797,312.541 1684.0244,312.541 Q1684.6553,312.541 1685.2488,312.2712 Q1685.8423,312.0015 1686.4731,311.4204 Z " fill="#000000"/><text fill="#000000" font-family="sans-serif" font-size="12" lengthAdjust="spacing" textLength="76" x="1698" y="312.5352">Configuration</text><line style="stroke:#A80036;stroke-width:1.5;" x1="1670" x2="1776" y1="324" y2="324"/><line style="stroke:#A80036;stroke-width:1.5;" x1="1670" x2="1776" y1="332" y2="332"/><!--MD5=[6c4f7c576da192e81543d3c9e7fd5eca]
reverse link IClassification to common_classification--><path codeLine="12" d="M167,198.29 C167,198.29 167,291.98 167,291.98 " fill="none" id="IClassification-backto-common_classification" style="stroke:#A80036;stroke-width:1.0;"/><polygon fill="#A80036" points="167,193.29,163,202.29,167,198.29,171,202.29,167,193.29" style="stroke:#A80036;stroke-width:1.0;"/><!--MD5=[777fabf4122577fac2f828d137e214ac]
reverse link IClustering to common_clustering--><path codeLine="21" d="M546,191.5 C546,191.5 546,291.52 546,291.52 " fill="none" id="IClustering-backto-common_clustering" style="stroke:#A80036;stroke-width:1.0;"/><polygon fill="#A80036" points="546,186.5,542,195.5,546,191.5,550,195.5,546,186.5" style="stroke:#A80036;stroke-width:1.0;"/><!--MD5=[c0b2c0e779393aab2544d3cdaee90b51]
reverse link IRegression to common_regression--><path codeLine="29" d="M991,185.41 C991,185.41 991,291.82 991,291.82 " fill="none" id="IRegression-backto-common_regression" style="stroke:#A80036;stroke-width:1.0;"/><polygon fill="#A80036" points="991,180.41,987,189.41,991,185.41,995,189.41,991,180.41" style="stroke:#A80036;stroke-width:1.0;"/><!--MD5=[065952e7f8dc087f5153ce1188c4d49b]
reverse link IAnomalyDetection to common_anomaly_detection--><path codeLine="36" d="M1360,178.69 C1360,178.69 1360,291.76 1360,291.76 " fill="none" id="IAnomalyDetection-backto-common_anomaly_detection" style="stroke:#A80036;stroke-width:1.0;"/><polygon fill="#A80036" points="1360,173.69,1356,182.69,1360,178.69,1364,182.69,1360,173.69" style="stroke:#A80036;stroke-width:1.0;"/><!--MD5=[8636b8677fd095602ab66affc00e7c10]
reverse link IConfiguration to common_configuration--><path codeLine="52" d="M1723,237.03 C1723,237.03 1723,291.9 1723,291.9 " fill="none" id="IConfiguration-backto-common_configuration" style="stroke:#A80036;stroke-width:1.0;"/><polygon fill="#A80036" points="1723,232.03,1719,241.03,1723,237.03,1727,241.03,1723,232.03" style="stroke:#A80036;stroke-width:1.0;"/><!--MD5=[3e734c3105ac9078662f035c3e04c3b9]
@startuml "common"
skinparam linetype ortho

package common {
    interface IClassification {
        + dataStats(): DataStatsResponse
        + trainerInfo(): String
        + trainAndEvaluate(): EvaluationResponse
        + confusionMatrix(): ConfusionMatrixResponse
        + serializedModel(): ModelWrapper
    }
    class  "Classification" as common_classification
    common_classification -u-> IClassification

    interface IClustering {
        + train(centroids: Int, iterations: Int, distanceType: KMeansTrainer.Distance,
                numThreads: Int, seed: Long): ClusteringEvaluationResponse
        + centroids(): CentroidsResponse
        + evaluate(): ClusteringEvaluationResponse
    }
    class "Clustering" as common_clustering
    common_clustering -u-> IClustering

    interface IRegression {
        + trainSGD(epochs: Int, seed: Long): RegressionEvaluationResponse
        + trainAdaGrad(epochs: Int, seed: Long): RegressionEvaluationResponse
        + trainCART(maxDepth: Int): RegressionEvaluationResponse
    }
    class "Regression" as common_regression
    common_regression -u-> IRegression

    interface IAnomalyDetection {
        + trainAndEvaluate(): AnomalyEvaluationResult
        + confusionMatrix(): String
    }
    class "AnomalyDetection" as common_anomaly_detection
    common_anomaly_detection -u-> IAnomalyDetection

    interface IConfiguration {
        + dataStats(): String
        + initializeLogisticTrainer(): String
        + mnistLogisticConfig(): ByteArray
        + lrEvaluator(): EvaluationResponse
        + lrEvaluatorConfusionMatrix(): ConfusionMatrixResponse
        + newEvaluator(): EvaluationResponse
        + newEvaluatorConfusionMatrix(): ConfusionMatrixResponse
        + newEvaluatorProvenance(): String
        + transformedEvaluator(): EvaluationResponse
        + transformedEvaluatorConfusionMatrix(): ConfusionMatrixResponse
        + mnistTransformedLogisticConfig(): ByteArray
    }
    class "Configuration" as common_configuration
    common_configuration -u-> IConfiguration
}

@enduml

PlantUML version 1.2021.7(Sun May 23 13:40:07 BST 2021)
(GPL source distribution)
Java Runtime: OpenJDK Runtime Environment
JVM: OpenJDK 64-Bit Server VM
Default Encoding: UTF-8
Language: en
Country: GB
--></g></svg>