<?xml version="1.0" encoding="UTF-8" standalone="no"?><svg xmlns="http://www.w3.org/2000/svg" xmlns:xlink="http://www.w3.org/1999/xlink" contentScriptType="application/ecmascript" contentStyleType="text/css" height="279px" preserveAspectRatio="none" style="width:224px;height:279px;background:#FFFFFF;" version="1.1" viewBox="0 0 224 279" width="224px" zoomAndPan="magnify"><defs><filter height="300%" id="fovtcxtjsdob4" width="300%" x="-1" y="-1"><feGaussianBlur result="blurOut" stdDeviation="2.0"/><feColorMatrix in="blurOut" result="blurOut2" type="matrix" values="0 0 0 0 0 0 0 0 0 0 0 0 0 0 0 0 0 0 .4 0"/><feOffset dx="4.0" dy="4.0" in="blurOut2" result="blurOut3"/><feBlend in="SourceGraphic" in2="blurOut3" mode="normal"/></filter></defs><g><!--MD5=[4a65e84059005d12693a083370a06717]
entity client--><rect fill="#FEFECE" filter="url(#fovtcxtjsdob4)" height="46.4883" style="stroke:#A80036;stroke-width:1.5;" width="77" x="133" y="113"/><rect fill="#FEFECE" height="10" style="stroke:#A80036;stroke-width:1.5;" width="15" x="190" y="118"/><rect fill="#FEFECE" height="2" style="stroke:#A80036;stroke-width:1.5;" width="4" x="188" y="120"/><rect fill="#FEFECE" height="2" style="stroke:#A80036;stroke-width:1.5;" width="4" x="188" y="124"/><text fill="#000000" font-family="sans-serif" font-size="14" lengthAdjust="spacing" textLength="37" x="148" y="146.5352">client</text><!--MD5=[8274bfb416b6365278739ca5c48d26ea]
entity common--><rect fill="#FEFECE" filter="url(#fovtcxtjsdob4)" height="46.4883" style="stroke:#A80036;stroke-width:1.5;" width="100" x="61.5" y="7"/><rect fill="#FEFECE" height="10" style="stroke:#A80036;stroke-width:1.5;" width="15" x="141.5" y="12"/><rect fill="#FEFECE" height="2" style="stroke:#A80036;stroke-width:1.5;" width="4" x="139.5" y="14"/><rect fill="#FEFECE" height="2" style="stroke:#A80036;stroke-width:1.5;" width="4" x="139.5" y="18"/><text fill="#000000" font-family="sans-serif" font-size="14" lengthAdjust="spacing" textLength="60" x="76.5" y="40.5352">common</text><!--MD5=[0cc74860aa3b741526361a57c5e95c04]
entity enclave--><rect fill="#FEFECE" filter="url(#fovtcxtjsdob4)" height="46.4883" style="stroke:#A80036;stroke-width:1.5;" width="91" x="7" y="113"/><rect fill="#FEFECE" height="10" style="stroke:#A80036;stroke-width:1.5;" width="15" x="78" y="118"/><rect fill="#FEFECE" height="2" style="stroke:#A80036;stroke-width:1.5;" width="4" x="76" y="120"/><rect fill="#FEFECE" height="2" style="stroke:#A80036;stroke-width:1.5;" width="4" x="76" y="124"/><text fill="#000000" font-family="sans-serif" font-size="14" lengthAdjust="spacing" textLength="51" x="22" y="146.5352">enclave</text><!--MD5=[da9746410650acf9fab14ea35e32d13b]
entity host--><rect fill="#FEFECE" filter="url(#fovtcxtjsdob4)" height="46.4883" style="stroke:#A80036;stroke-width:1.5;" width="70" x="17.5" y="219"/><rect fill="#FEFECE" height="10" style="stroke:#A80036;stroke-width:1.5;" width="15" x="67.5" y="224"/><rect fill="#FEFECE" height="2" style="stroke:#A80036;stroke-width:1.5;" width="4" x="65.5" y="226"/><rect fill="#FEFECE" height="2" style="stroke:#A80036;stroke-width:1.5;" width="4" x="65.5" y="230"/><text fill="#000000" font-family="sans-serif" font-size="14" lengthAdjust="spacing" textLength="30" x="32.5" y="252.5352">host</text><!--MD5=[17f48f886060062bf0f4a43f4afd53dc]
reverse link common to client--><path d="M147.25,58 C147.25,58 147.25,112.68 147.25,112.68 " fill="none" id="common-backto-client" style="stroke:#A80036;stroke-width:1.0;"/><polygon fill="#A80036" points="147.25,53,143.25,62,147.25,58,151.25,62,147.25,53" style="stroke:#A80036;stroke-width:1.0;"/><!--MD5=[d4931d493f58b5536c19a78a435674fb]
reverse link common to enclave--><path d="M79.75,58 C79.75,58 79.75,112.68 79.75,112.68 " fill="none" id="common-backto-enclave" style="stroke:#A80036;stroke-width:1.0;"/><polygon fill="#A80036" points="79.75,53,75.75,62,79.75,58,83.75,62,79.75,53" style="stroke:#A80036;stroke-width:1.0;"/><!--MD5=[05a139016f9ec55d117430f9f147fbe2]
reverse link enclave to host--><path d="M52.5,164 C52.5,164 52.5,218.68 52.5,218.68 " fill="none" id="enclave-backto-host" style="stroke:#A80036;stroke-width:1.0;"/><polygon fill="#A80036" points="52.5,159,48.5,168,52.5,164,56.5,168,52.5,159" style="stroke:#A80036;stroke-width:1.0;"/><!--MD5=[f6d718cdb728305a96e5a9805c5d73a5]
@startuml "modules"
skinparam linetype ortho

component client
component common
component enclave
component host

client -u-> common
enclave -u-> common
host -u-> enclave

@enduml

PlantUML version 1.2021.7(Sun May 23 13:40:07 BST 2021)
(GPL source distribution)
Java Runtime: OpenJDK Runtime Environment
JVM: OpenJDK 64-Bit Server VM
Default Encoding: UTF-8
Language: en
Country: GB
--></g></svg>