<?xml version="1.0" encoding="UTF-8" standalone="no"?><svg xmlns="http://www.w3.org/2000/svg" xmlns:xlink="http://www.w3.org/1999/xlink" contentScriptType="application/ecmascript" contentStyleType="text/css" height="467px" preserveAspectRatio="none" style="width:985px;height:467px;background:#FFFFFF;" version="1.1" viewBox="0 0 985 467" width="985px" zoomAndPan="magnify"><defs><filter height="300%" id="fb097evi696vn" width="300%" x="-1" y="-1"><feGaussianBlur result="blurOut" stdDeviation="2.0"/><feColorMatrix in="blurOut" result="blurOut2" type="matrix" values="0 0 0 0 0 0 0 0 0 0 0 0 0 0 0 0 0 0 .4 0"/><feOffset dx="4.0" dy="4.0" in="blurOut2" result="blurOut3"/><feBlend in="SourceGraphic" in2="blurOut3" mode="normal"/></filter></defs><g><!--MD5=[b28fcb397abe995d6d4652e4c54b3002]
cluster common--><polygon fill="#FFFFFF" filter="url(#fb097evi696vn)" points="16,80,84,80,91,102.4883,968,102.4883,968,460,16,460,16,80" style="stroke:#000000;stroke-width:1.5;"/><line style="stroke:#000000;stroke-width:1.5;" x1="16" x2="91" y1="102.4883" y2="102.4883"/><text fill="#000000" font-family="sans-serif" font-size="14" font-weight="bold" lengthAdjust="spacing" textLength="62" x="20" y="95.5352">common</text><!--MD5=[db75156e3f5fd2da0ae07e924fadffdf]
class TribuoTask--><rect codeLine="6" fill="#FEFECE" filter="url(#fb097evi696vn)" height="73.9102" id="TribuoTask" style="stroke:#A80036;stroke-width:1.5;" width="134" x="818" y="115"/><ellipse cx="849.2" cy="131" fill="#A9DCDF" rx="11" ry="11" style="stroke:#A80036;stroke-width:1.0;"/><path d="M849.3133,126.5981 L848.1595,131.6699 L850.4754,131.6699 Z M847.8191,124.3569 L850.8157,124.3569 L854.1609,136.75 L851.7122,136.75 L850.9485,133.687 L847.6697,133.687 L846.9227,136.75 L844.4739,136.75 Z " fill="#000000"/><text fill="#000000" font-family="sans-serif" font-size="12" font-style="italic" lengthAdjust="spacing" textLength="66" x="866.8" y="135.5352">TribuoTask</text><line style="stroke:#A80036;stroke-width:1.5;" x1="819" x2="951" y1="147" y2="147"/><line style="stroke:#A80036;stroke-width:1.5;" x1="819" x2="951" y1="155" y2="155"/><ellipse cx="829" cy="166" fill="#84BE84" rx="3" ry="3" style="stroke:#038048;stroke-width:1.0;"/><text fill="#000000" font-family="sans-serif" font-size="11" font-style="italic" lengthAdjust="spacing" textLength="108" x="838" y="169.6348">execute(): ByteArray</text><ellipse cx="829" cy="178.9551" fill="#84BE84" rx="3" ry="3" style="stroke:#038048;stroke-width:1.0;"/><text fill="#000000" font-family="sans-serif" font-size="11" lengthAdjust="spacing" textLength="105" x="838" y="182.5898">encode(): ByteArray</text><!--MD5=[fa87e93831cb810591d9992e0e5855bd]
class TribuoObject--><rect codeLine="10" fill="#FEFECE" filter="url(#fb097evi696vn)" height="86.8652" id="TribuoObject" style="stroke:#A80036;stroke-width:1.5;" width="323" x="504.5" y="249"/><ellipse cx="623.75" cy="265" fill="#A9DCDF" rx="11" ry="11" style="stroke:#A80036;stroke-width:1.0;"/><path d="M623.8633,260.5981 L622.7095,265.6699 L625.0254,265.6699 Z M622.3691,258.3569 L625.3657,258.3569 L628.7109,270.75 L626.2622,270.75 L625.4985,267.687 L622.2197,267.687 L621.4727,270.75 L619.0239,270.75 Z " fill="#000000"/><text fill="#000000" font-family="sans-serif" font-size="12" font-style="italic" lengthAdjust="spacing" textLength="76" x="644.25" y="269.5352">TribuoObject</text><line style="stroke:#A80036;stroke-width:1.5;" x1="505.5" x2="826.5" y1="281" y2="281"/><ellipse cx="515.5" cy="292" rx="3" ry="3" style="stroke:#038048;stroke-width:1.0;fill:none;"/><text fill="#000000" font-family="sans-serif" font-size="11" lengthAdjust="spacing" text-decoration="underline" textLength="30" x="524.5" y="295.6348">id: Int</text><ellipse cx="515.5" cy="304.9551" rx="3" ry="3" style="stroke:#038048;stroke-width:1.0;fill:none;"/><text fill="#000000" font-family="sans-serif" font-size="11" lengthAdjust="spacing" text-decoration="underline" textLength="203" x="524.5" y="308.5898">objects: HashMap&lt;Int, TribuoObject&gt;</text><line style="stroke:#A80036;stroke-width:1.5;" x1="505.5" x2="826.5" y1="314.9102" y2="314.9102"/><ellipse cx="515.5" cy="325.9102" fill="#84BE84" rx="3" ry="3" style="stroke:#038048;stroke-width:1.0;"/><text fill="#000000" font-family="sans-serif" font-size="11" lengthAdjust="spacing" text-decoration="underline" textLength="297" x="524.5" y="329.5449">&lt;T: TribuoObject&gt; encode(function: () -&gt; T): ByteArray</text><!--MD5=[96dc21af906a864c26a2e0786950d9f6]
class common_classification--><rect codeLine="17" fill="#FEFECE" filter="url(#fb097evi696vn)" height="48" id="common_classification" style="stroke:#A80036;stroke-width:1.5;" width="106" x="278" y="396"/><ellipse cx="293" cy="412" fill="#ADD1B2" rx="11" ry="11" style="stroke:#A80036;stroke-width:1.0;"/><path d="M295.4731,418.1431 Q294.8921,418.4419 294.2529,418.5913 Q293.6138,418.7407 292.9082,418.7407 Q290.4014,418.7407 289.0815,417.0889 Q287.7617,415.437 287.7617,412.3159 Q287.7617,409.1865 289.0815,407.5347 Q290.4014,405.8828 292.9082,405.8828 Q293.6138,405.8828 294.2612,406.0322 Q294.9087,406.1816 295.4731,406.4805 L295.4731,409.2031 Q294.8423,408.6221 294.2488,408.3523 Q293.6553,408.0825 293.0244,408.0825 Q291.6797,408.0825 290.9949,409.1492 Q290.3101,410.2158 290.3101,412.3159 Q290.3101,414.4077 290.9949,415.4744 Q291.6797,416.541 293.0244,416.541 Q293.6553,416.541 294.2488,416.2712 Q294.8423,416.0015 295.4731,415.4204 Z " fill="#000000"/><text fill="#000000" font-family="sans-serif" font-size="12" lengthAdjust="spacing" textLength="74" x="307" y="416.5352">Classification</text><line style="stroke:#A80036;stroke-width:1.5;" x1="279" x2="383" y1="428" y2="428"/><line style="stroke:#A80036;stroke-width:1.5;" x1="279" x2="383" y1="436" y2="436"/><!--MD5=[14ab531d374cbb22cdd745cf8ae3b009]
class common_clustering--><rect codeLine="18" fill="#FEFECE" filter="url(#fb097evi696vn)" height="48" id="common_clustering" style="stroke:#A80036;stroke-width:1.5;" width="89" x="419.5" y="396"/><ellipse cx="434.5" cy="412" fill="#ADD1B2" rx="11" ry="11" style="stroke:#A80036;stroke-width:1.0;"/><path d="M436.9731,418.1431 Q436.3921,418.4419 435.7529,418.5913 Q435.1138,418.7407 434.4082,418.7407 Q431.9014,418.7407 430.5815,417.0889 Q429.2617,415.437 429.2617,412.3159 Q429.2617,409.1865 430.5815,407.5347 Q431.9014,405.8828 434.4082,405.8828 Q435.1138,405.8828 435.7612,406.0322 Q436.4087,406.1816 436.9731,406.4805 L436.9731,409.2031 Q436.3423,408.6221 435.7488,408.3523 Q435.1553,408.0825 434.5244,408.0825 Q433.1797,408.0825 432.4949,409.1492 Q431.8101,410.2158 431.8101,412.3159 Q431.8101,414.4077 432.4949,415.4744 Q433.1797,416.541 434.5244,416.541 Q435.1553,416.541 435.7488,416.2712 Q436.3423,416.0015 436.9731,415.4204 Z " fill="#000000"/><text fill="#000000" font-family="sans-serif" font-size="12" lengthAdjust="spacing" textLength="57" x="448.5" y="416.5352">Clustering</text><line style="stroke:#A80036;stroke-width:1.5;" x1="420.5" x2="507.5" y1="428" y2="428"/><line style="stroke:#A80036;stroke-width:1.5;" x1="420.5" x2="507.5" y1="436" y2="436"/><!--MD5=[df7a0345382cf737f6a42af10fe68554]
class common_regression--><rect codeLine="19" fill="#FEFECE" filter="url(#fb097evi696vn)" height="48" id="common_regression" style="stroke:#A80036;stroke-width:1.5;" width="95" x="543.5" y="396"/><ellipse cx="558.5" cy="412" fill="#ADD1B2" rx="11" ry="11" style="stroke:#A80036;stroke-width:1.0;"/><path d="M560.9731,418.1431 Q560.3921,418.4419 559.7529,418.5913 Q559.1138,418.7407 558.4082,418.7407 Q555.9014,418.7407 554.5815,417.0889 Q553.2617,415.437 553.2617,412.3159 Q553.2617,409.1865 554.5815,407.5347 Q555.9014,405.8828 558.4082,405.8828 Q559.1138,405.8828 559.7612,406.0322 Q560.4087,406.1816 560.9731,406.4805 L560.9731,409.2031 Q560.3423,408.6221 559.7488,408.3523 Q559.1553,408.0825 558.5244,408.0825 Q557.1797,408.0825 556.4949,409.1492 Q555.8101,410.2158 555.8101,412.3159 Q555.8101,414.4077 556.4949,415.4744 Q557.1797,416.541 558.5244,416.541 Q559.1553,416.541 559.7488,416.2712 Q560.3423,416.0015 560.9731,415.4204 Z " fill="#000000"/><text fill="#000000" font-family="sans-serif" font-size="12" lengthAdjust="spacing" textLength="63" x="572.5" y="416.5352">Regression</text><line style="stroke:#A80036;stroke-width:1.5;" x1="544.5" x2="637.5" y1="428" y2="428"/><line style="stroke:#A80036;stroke-width:1.5;" x1="544.5" x2="637.5" y1="436" y2="436"/><!--MD5=[bb9937edd3538a431fc1b74eab276c28]
class common_anomaly_detection--><rect codeLine="20" fill="#FEFECE" filter="url(#fb097evi696vn)" height="48" id="common_anomaly_detection" style="stroke:#A80036;stroke-width:1.5;" width="135" x="673.5" y="396"/><ellipse cx="688.5" cy="412" fill="#ADD1B2" rx="11" ry="11" style="stroke:#A80036;stroke-width:1.0;"/><path d="M690.9731,418.1431 Q690.3921,418.4419 689.7529,418.5913 Q689.1138,418.7407 688.4082,418.7407 Q685.9014,418.7407 684.5815,417.0889 Q683.2617,415.437 683.2617,412.3159 Q683.2617,409.1865 684.5815,407.5347 Q685.9014,405.8828 688.4082,405.8828 Q689.1138,405.8828 689.7612,406.0322 Q690.4087,406.1816 690.9731,406.4805 L690.9731,409.2031 Q690.3423,408.6221 689.7488,408.3523 Q689.1553,408.0825 688.5244,408.0825 Q687.1797,408.0825 686.4949,409.1492 Q685.8101,410.2158 685.8101,412.3159 Q685.8101,414.4077 686.4949,415.4744 Q687.1797,416.541 688.5244,416.541 Q689.1553,416.541 689.7488,416.2712 Q690.3423,416.0015 690.9731,415.4204 Z " fill="#000000"/><text fill="#000000" font-family="sans-serif" font-size="12" lengthAdjust="spacing" textLength="103" x="702.5" y="416.5352">AnomalyDetection</text><line style="stroke:#A80036;stroke-width:1.5;" x1="674.5" x2="807.5" y1="428" y2="428"/><line style="stroke:#A80036;stroke-width:1.5;" x1="674.5" x2="807.5" y1="436" y2="436"/><!--MD5=[a7e37f5ed935d3a049ea1d38640e6bf8]
class common_configuration--><rect codeLine="21" fill="#FEFECE" filter="url(#fb097evi696vn)" height="48" id="common_configuration" style="stroke:#A80036;stroke-width:1.5;" width="108" x="844" y="396"/><ellipse cx="859" cy="412" fill="#ADD1B2" rx="11" ry="11" style="stroke:#A80036;stroke-width:1.0;"/><path d="M861.4731,418.1431 Q860.8921,418.4419 860.2529,418.5913 Q859.6138,418.7407 858.9082,418.7407 Q856.4014,418.7407 855.0815,417.0889 Q853.7617,415.437 853.7617,412.3159 Q853.7617,409.1865 855.0815,407.5347 Q856.4014,405.8828 858.9082,405.8828 Q859.6138,405.8828 860.2612,406.0322 Q860.9087,406.1816 861.4731,406.4805 L861.4731,409.2031 Q860.8423,408.6221 860.2488,408.3523 Q859.6553,408.0825 859.0244,408.0825 Q857.6797,408.0825 856.9949,409.1492 Q856.3101,410.2158 856.3101,412.3159 Q856.3101,414.4077 856.9949,415.4744 Q857.6797,416.541 859.0244,416.541 Q859.6553,416.541 860.2488,416.2712 Q860.8423,416.0015 861.4731,415.4204 Z " fill="#000000"/><text fill="#000000" font-family="sans-serif" font-size="12" lengthAdjust="spacing" textLength="76" x="873" y="416.5352">Configuration</text><line style="stroke:#A80036;stroke-width:1.5;" x1="845" x2="951" y1="428" y2="428"/><line style="stroke:#A80036;stroke-width:1.5;" x1="845" x2="951" y1="436" y2="436"/><!--MD5=[9c93712604d1a69279fb627fee8aec65]
class InitializeClassification--><rect codeLine="6" fill="#FEFECE" filter="url(#fb097evi696vn)" height="48" id="InitializeClassification" style="stroke:#A80036;stroke-width:1.5;" width="153" x="629.5" y="128"/><ellipse cx="644.5" cy="144" fill="#ADD1B2" rx="11" ry="11" style="stroke:#A80036;stroke-width:1.0;"/><path d="M646.9731,150.1431 Q646.3921,150.4419 645.7529,150.5913 Q645.1138,150.7407 644.4082,150.7407 Q641.9014,150.7407 640.5815,149.0889 Q639.2617,147.437 639.2617,144.3159 Q639.2617,141.1865 640.5815,139.5347 Q641.9014,137.8828 644.4082,137.8828 Q645.1138,137.8828 645.7612,138.0322 Q646.4087,138.1816 646.9731,138.4805 L646.9731,141.2031 Q646.3423,140.6221 645.7488,140.3523 Q645.1553,140.0825 644.5244,140.0825 Q643.1797,140.0825 642.4949,141.1492 Q641.8101,142.2158 641.8101,144.3159 Q641.8101,146.4077 642.4949,147.4744 Q643.1797,148.541 644.5244,148.541 Q645.1553,148.541 645.7488,148.2712 Q646.3423,148.0015 646.9731,147.4204 Z " fill="#000000"/><text fill="#000000" font-family="sans-serif" font-size="12" lengthAdjust="spacing" textLength="121" x="658.5" y="148.5352">InitializeClassification</text><line style="stroke:#A80036;stroke-width:1.5;" x1="630.5" x2="781.5" y1="160" y2="160"/><line style="stroke:#A80036;stroke-width:1.5;" x1="630.5" x2="781.5" y1="168" y2="168"/><!--MD5=[cd3044b27f8c559d25d8da1fdeae0329]
class DataStats--><rect codeLine="7" fill="#FEFECE" filter="url(#fb097evi696vn)" height="48" id="DataStats" style="stroke:#A80036;stroke-width:1.5;" width="86" x="508" y="128"/><ellipse cx="523" cy="144" fill="#ADD1B2" rx="11" ry="11" style="stroke:#A80036;stroke-width:1.0;"/><path d="M525.4731,150.1431 Q524.8921,150.4419 524.2529,150.5913 Q523.6138,150.7407 522.9082,150.7407 Q520.4014,150.7407 519.0815,149.0889 Q517.7617,147.437 517.7617,144.3159 Q517.7617,141.1865 519.0815,139.5347 Q520.4014,137.8828 522.9082,137.8828 Q523.6138,137.8828 524.2612,138.0322 Q524.9087,138.1816 525.4731,138.4805 L525.4731,141.2031 Q524.8423,140.6221 524.2488,140.3523 Q523.6553,140.0825 523.0244,140.0825 Q521.6797,140.0825 520.9949,141.1492 Q520.3101,142.2158 520.3101,144.3159 Q520.3101,146.4077 520.9949,147.4744 Q521.6797,148.541 523.0244,148.541 Q523.6553,148.541 524.2488,148.2712 Q524.8423,148.0015 525.4731,147.4204 Z " fill="#000000"/><text fill="#000000" font-family="sans-serif" font-size="12" lengthAdjust="spacing" textLength="54" x="537" y="148.5352">DataStats</text><line style="stroke:#A80036;stroke-width:1.5;" x1="509" x2="593" y1="160" y2="160"/><line style="stroke:#A80036;stroke-width:1.5;" x1="509" x2="593" y1="168" y2="168"/><!--MD5=[49e38df922dd3a16be955050f5f7b30c]
class TrainerInfo--><rect codeLine="9" fill="#FEFECE" filter="url(#fb097evi696vn)" height="48" id="TrainerInfo" style="stroke:#A80036;stroke-width:1.5;" width="95" x="377.5" y="128"/><ellipse cx="392.5" cy="144" fill="#ADD1B2" rx="11" ry="11" style="stroke:#A80036;stroke-width:1.0;"/><path d="M394.9731,150.1431 Q394.3921,150.4419 393.7529,150.5913 Q393.1138,150.7407 392.4082,150.7407 Q389.9014,150.7407 388.5815,149.0889 Q387.2617,147.437 387.2617,144.3159 Q387.2617,141.1865 388.5815,139.5347 Q389.9014,137.8828 392.4082,137.8828 Q393.1138,137.8828 393.7612,138.0322 Q394.4087,138.1816 394.9731,138.4805 L394.9731,141.2031 Q394.3423,140.6221 393.7488,140.3523 Q393.1553,140.0825 392.5244,140.0825 Q391.1797,140.0825 390.4949,141.1492 Q389.8101,142.2158 389.8101,144.3159 Q389.8101,146.4077 390.4949,147.4744 Q391.1797,148.541 392.5244,148.541 Q393.1553,148.541 393.7488,148.2712 Q394.3423,148.0015 394.9731,147.4204 Z " fill="#000000"/><text fill="#000000" font-family="sans-serif" font-size="12" lengthAdjust="spacing" textLength="63" x="406.5" y="148.5352">TrainerInfo</text><line style="stroke:#A80036;stroke-width:1.5;" x1="378.5" x2="471.5" y1="160" y2="160"/><line style="stroke:#A80036;stroke-width:1.5;" x1="378.5" x2="471.5" y1="168" y2="168"/><!--MD5=[69020310643386b44d64bac4c1f6ccfe]
class TrainAndEvaluate--><rect codeLine="10" fill="#FEFECE" filter="url(#fb097evi696vn)" height="48" id="TrainAndEvaluate" style="stroke:#A80036;stroke-width:1.5;" width="133" x="209.5" y="128"/><ellipse cx="224.5" cy="144" fill="#ADD1B2" rx="11" ry="11" style="stroke:#A80036;stroke-width:1.0;"/><path d="M226.9731,150.1431 Q226.3921,150.4419 225.7529,150.5913 Q225.1138,150.7407 224.4082,150.7407 Q221.9014,150.7407 220.5815,149.0889 Q219.2617,147.437 219.2617,144.3159 Q219.2617,141.1865 220.5815,139.5347 Q221.9014,137.8828 224.4082,137.8828 Q225.1138,137.8828 225.7612,138.0322 Q226.4087,138.1816 226.9731,138.4805 L226.9731,141.2031 Q226.3423,140.6221 225.7488,140.3523 Q225.1553,140.0825 224.5244,140.0825 Q223.1797,140.0825 222.4949,141.1492 Q221.8101,142.2158 221.8101,144.3159 Q221.8101,146.4077 222.4949,147.4744 Q223.1797,148.541 224.5244,148.541 Q225.1553,148.541 225.7488,148.2712 Q226.3423,148.0015 226.9731,147.4204 Z " fill="#000000"/><text fill="#000000" font-family="sans-serif" font-size="12" lengthAdjust="spacing" textLength="101" x="238.5" y="148.5352">TrainAndEvaluate</text><line style="stroke:#A80036;stroke-width:1.5;" x1="210.5" x2="341.5" y1="160" y2="160"/><line style="stroke:#A80036;stroke-width:1.5;" x1="210.5" x2="341.5" y1="168" y2="168"/><!--MD5=[179568b94427a75d0eabbbfb7d2c61e1]
class DataStatsResponse--><rect codeLine="8" fill="#FEFECE" filter="url(#fb097evi696vn)" height="48" id="DataStatsResponse" style="stroke:#A80036;stroke-width:1.5;" width="142" x="32" y="128"/><ellipse cx="47" cy="144" fill="#ADD1B2" rx="11" ry="11" style="stroke:#A80036;stroke-width:1.0;"/><path d="M49.4731,150.1431 Q48.8921,150.4419 48.2529,150.5913 Q47.6138,150.7407 46.9082,150.7407 Q44.4014,150.7407 43.0815,149.0889 Q41.7617,147.437 41.7617,144.3159 Q41.7617,141.1865 43.0815,139.5347 Q44.4014,137.8828 46.9082,137.8828 Q47.6138,137.8828 48.2612,138.0322 Q48.9087,138.1816 49.4731,138.4805 L49.4731,141.2031 Q48.8423,140.6221 48.2488,140.3523 Q47.6553,140.0825 47.0244,140.0825 Q45.6797,140.0825 44.9949,141.1492 Q44.3101,142.2158 44.3101,144.3159 Q44.3101,146.4077 44.9949,147.4744 Q45.6797,148.541 47.0244,148.541 Q47.6553,148.541 48.2488,148.2712 Q48.8423,148.0015 49.4731,147.4204 Z " fill="#000000"/><text fill="#000000" font-family="sans-serif" font-size="12" lengthAdjust="spacing" textLength="110" x="61" y="148.5352">DataStatsResponse</text><line style="stroke:#A80036;stroke-width:1.5;" x1="33" x2="173" y1="160" y2="160"/><line style="stroke:#A80036;stroke-width:1.5;" x1="33" x2="173" y1="168" y2="168"/><!--MD5=[cc3de0a176daa3c4ec875deafdf5ddd1]
class Serializable--><rect codeLine="3" fill="#FEFECE" filter="url(#fb097evi696vn)" height="48" id="Serializable" style="stroke:#A80036;stroke-width:1.5;" width="98" x="376" y="7"/><ellipse cx="391" cy="23" fill="#E3664A" rx="11" ry="11" style="stroke:#A80036;stroke-width:1.0;"/><path d="M393.0767,23.2261 Q393.0767,22.2881 392.6533,21.7568 Q392.23,21.2256 391.4912,21.2256 Q390.7524,21.2256 390.3333,21.7568 Q389.9141,22.2881 389.9141,23.2261 Q389.9141,24.1724 390.3333,24.7036 Q390.7524,25.2349 391.4912,25.2349 Q392.23,25.2349 392.6533,24.7036 Q393.0767,24.1724 393.0767,23.2261 Z M394.6206,26.6294 L392.9937,26.6294 L392.9937,25.9487 Q392.6782,26.3887 392.2507,26.592 Q391.8232,26.7954 391.2256,26.7954 Q389.8643,26.7954 389.03,25.8159 Q388.1958,24.8364 388.1958,23.2261 Q388.1958,21.624 389.0259,20.6487 Q389.856,19.6733 391.2256,19.6733 Q391.8149,19.6733 392.2632,19.8767 Q392.7114,20.0801 392.9937,20.4702 L392.9937,20.1299 Q392.9937,19.001 392.3752,18.3867 Q391.7568,17.7725 390.6113,17.7725 Q388.8848,17.7725 387.7932,19.2915 Q386.7017,20.8105 386.7017,23.2427 Q386.7017,25.791 387.9634,27.2976 Q389.2251,28.8042 391.3252,28.8042 Q391.9893,28.8042 392.6118,28.6091 Q393.2344,28.4141 393.8071,28.0239 L394.5708,29.4849 Q393.8984,29.9414 393.1057,30.1697 Q392.313,30.3979 391.4082,30.3979 Q388.5029,30.3979 386.7764,28.4639 Q385.0498,26.5298 385.0498,23.2427 Q385.0498,20.0303 386.6021,18.1003 Q388.1543,16.1704 390.7109,16.1704 Q392.5205,16.1704 393.5706,17.262 Q394.6206,18.3535 394.6206,20.2378 Z " fill="#000000"/><text fill="#000000" font-family="sans-serif" font-size="12" lengthAdjust="spacing" textLength="66" x="405" y="27.5352">Serializable</text><line style="stroke:#A80036;stroke-width:1.5;" x1="377" x2="473" y1="39" y2="39"/><line style="stroke:#A80036;stroke-width:1.5;" x1="377" x2="473" y1="47" y2="47"/><!--MD5=[c8807c0e005bfa8806abfd1967ad229c]
reverse link TribuoTask to TribuoObject--><path codeLine="15" d="M822.75,194.28 C822.75,194.28 822.75,248.81 822.75,248.81 " fill="none" id="TribuoTask-backto-TribuoObject" style="stroke:#A80036;stroke-width:1.0;"/><polygon fill="#A80036" points="822.75,189.28,818.75,198.28,822.75,194.28,826.75,198.28,822.75,189.28" style="stroke:#A80036;stroke-width:1.0;"/><!--MD5=[0e20ce78078a5407d5381b594c67a62d]
reverse link TribuoObject to common_classification--><path codeLine="23" d="M499.09,293 C499.09,293 359.25,293 359.25,293 C359.25,293 359.25,358.97 359.25,395.81 " fill="none" id="TribuoObject-backto-common_classification" style="stroke:#A80036;stroke-width:1.0;"/><polygon fill="#A80036" points="504.09,293,495.09,289,499.09,293,495.09,297,504.09,293" style="stroke:#A80036;stroke-width:1.0;"/><!--MD5=[49ee059c65a1c46681b2b4037efee4d5]
reverse link TribuoObject to common_clustering--><path codeLine="24" d="M526,341.02 C526,341.02 526,420 526,420 C526,420 518.51,420 508.73,420 " fill="none" id="TribuoObject-backto-common_clustering" style="stroke:#A80036;stroke-width:1.0;"/><polygon fill="#A80036" points="526,336.02,522,345.02,526,341.02,530,345.02,526,336.02" style="stroke:#A80036;stroke-width:1.0;"/><!--MD5=[27ffafce761e00ced37ebcce34d60d95]
reverse link TribuoObject to common_regression--><path codeLine="25" d="M591,341.02 C591,341.02 591,395.98 591,395.98 " fill="none" id="TribuoObject-backto-common_regression" style="stroke:#A80036;stroke-width:1.0;"/><polygon fill="#A80036" points="591,336.02,587,345.02,591,341.02,595,345.02,591,336.02" style="stroke:#A80036;stroke-width:1.0;"/><!--MD5=[62cd75012bdae0f802f47b803105ed8a]
reverse link TribuoObject to common_anomaly_detection--><path codeLine="26" d="M741,341.02 C741,341.02 741,395.98 741,395.98 " fill="none" id="TribuoObject-backto-common_anomaly_detection" style="stroke:#A80036;stroke-width:1.0;"/><polygon fill="#A80036" points="741,336.02,737,345.02,741,341.02,745,345.02,741,336.02" style="stroke:#A80036;stroke-width:1.0;"/><!--MD5=[2a086e80cf0298454219efc79517d811]
reverse link TribuoObject to common_configuration--><path codeLine="27" d="M818,341.02 C818,341.02 818,420 818,420 C818,420 829.49,420 843.75,420 " fill="none" id="TribuoObject-backto-common_configuration" style="stroke:#A80036;stroke-width:1.0;"/><polygon fill="#A80036" points="818,336.02,814,345.02,818,341.02,822,345.02,818,336.02" style="stroke:#A80036;stroke-width:1.0;"/><!--MD5=[6cd5229714ffc54ac9cad68a270cce62]
link InitializeClassification to TribuoTask--><path codeLine="29" d="M782.69,152 C782.69,152 812.78,152 812.78,152 " fill="none" id="InitializeClassification-to-TribuoTask" style="stroke:#A80036;stroke-width:1.0;"/><polygon fill="#A80036" points="817.78,152,808.78,148,812.78,152,808.78,156,817.78,152" style="stroke:#A80036;stroke-width:1.0;"/><!--MD5=[d9cc1e46f65f40878b7b4f294a2aaf2a]
link DataStats to TribuoTask--><path codeLine="30" d="M536.67,127.78 C536.67,124.37 536.67,122 536.67,122 C536.67,122 812.84,122 812.84,122 " fill="none" id="DataStats-to-TribuoTask" style="stroke:#A80036;stroke-width:1.0;"/><polygon fill="#A80036" points="817.84,122,808.84,118,812.84,122,808.84,126,817.84,122" style="stroke:#A80036;stroke-width:1.0;"/><!--MD5=[24e611dc3212ab82a4094932f6f93a2a]
link TrainerInfo to TribuoTask--><path codeLine="31" d="M446,176.21 C446,179.07 446,181 446,181 C446,181 812.85,181 812.85,181 " fill="none" id="TrainerInfo-to-TribuoTask" style="stroke:#A80036;stroke-width:1.0;"/><polygon fill="#A80036" points="817.85,181,808.85,177,812.85,181,808.85,185,817.85,181" style="stroke:#A80036;stroke-width:1.0;"/><!--MD5=[ba5fbb8db85b2441c135e6f2b1f7e6dd]
link TrainAndEvaluate to TribuoTask--><path codeLine="32" d="M310.25,176.33 C310.25,181.28 310.25,185 310.25,185 C310.25,185 812.94,185 812.94,185 " fill="none" id="TrainAndEvaluate-to-TribuoTask" style="stroke:#A80036;stroke-width:1.0;"/><polygon fill="#A80036" points="817.94,185,808.94,181,812.94,185,808.94,189,817.94,185" style="stroke:#A80036;stroke-width:1.0;"/><!--MD5=[98b3c8175e14a4ba2bc174b9c2456e8f]
reverse link Serializable to InitializeClassification--><path codeLine="13" d="M479.27,23 C479.27,23 706,23 706,23 C706,23 706,90.37 706,127.74 " fill="none" id="Serializable-backto-InitializeClassification" style="stroke:#A80036;stroke-width:1.0;"/><polygon fill="#A80036" points="474.27,23,483.27,27,479.27,23,483.27,19,474.27,23" style="stroke:#A80036;stroke-width:1.0;"/><!--MD5=[bd5849ffe5b161644764765dc095cd1a]
reverse link Serializable to DataStats--><path codeLine="14" d="M479.08,39 C479.08,39 565.33,39 565.33,39 C565.33,39 565.33,94.56 565.33,127.76 " fill="none" id="Serializable-backto-DataStats" style="stroke:#A80036;stroke-width:1.0;"/><polygon fill="#A80036" points="474.08,39,483.08,43,479.08,39,483.08,35,474.08,39" style="stroke:#A80036;stroke-width:1.0;"/><!--MD5=[3ad4db81e9cfea006b7987bebd8c4024]
reverse link Serializable to DataStatsResponse--><path codeLine="15" d="M370.74,23 C370.74,23 103,23 103,23 C103,23 103,90.37 103,127.74 " fill="none" id="Serializable-backto-DataStatsResponse" style="stroke:#A80036;stroke-width:1.0;"/><polygon fill="#A80036" points="375.74,23,366.74,19,370.74,23,366.74,27,375.74,23" style="stroke:#A80036;stroke-width:1.0;"/><!--MD5=[8f3bd4681b9805a9962bb548e4b23d74]
reverse link Serializable to TrainerInfo--><path codeLine="16" d="M425,60.2 C425,60.2 425,127.85 425,127.85 " fill="none" id="Serializable-backto-TrainerInfo" style="stroke:#A80036;stroke-width:1.0;"/><polygon fill="#A80036" points="425,55.2,421,64.2,425,60.2,429,64.2,425,55.2" style="stroke:#A80036;stroke-width:1.0;"/><!--MD5=[89b0abc0b2bd8c733ad8aa5acc761ba9]
reverse link Serializable to TrainAndEvaluate--><path codeLine="17" d="M370.8,39 C370.8,39 276,39 276,39 C276,39 276,94.56 276,127.76 " fill="none" id="Serializable-backto-TrainAndEvaluate" style="stroke:#A80036;stroke-width:1.0;"/><polygon fill="#A80036" points="375.8,39,366.8,35,370.8,39,366.8,43,375.8,39" style="stroke:#A80036;stroke-width:1.0;"/><!--MD5=[c88be3d336b57ebb2ca93b938720daa1]
@startuml "tribuo-task"
skinparam linetype ortho

annotation Serializable

package common {
    abstract TribuoTask {
        + {abstract} execute(): ByteArray
        + encode(): ByteArray
    }
    abstract TribuoObject {
        + {static} id: Int
        + {static} objects: HashMap<Int, TribuoObject>
        + {static} <T: TribuoObject> encode(function: () -> T): ByteArray
    }
    TribuoObject -u-> TribuoTask

    class "Classification" as common_classification
    class "Clustering" as common_clustering
    class "Regression" as common_regression
    class "AnomalyDetection" as common_anomaly_detection
    class "Configuration" as common_configuration

    common_classification -u-> TribuoObject
    common_clustering -u-> TribuoObject
    common_regression -u-> TribuoObject
    common_anomaly_detection -u-> TribuoObject
    common_configuration -u-> TribuoObject

    InitializeClassification -r-> TribuoTask
    DataStats -r-> TribuoTask
    TrainerInfo -r-> TribuoTask
    TrainAndEvaluate -r-> TribuoTask
}

!include classification.puml


@enduml

@startuml "tribuo-task"
skinparam linetype ortho

annotation Serializable

package common {
    abstract TribuoTask {
        + {abstract} execute(): ByteArray
        + encode(): ByteArray
    }
    abstract TribuoObject {
        + {static} id: Int
        + {static} objects: HashMap<Int, TribuoObject>
        + {static} <T: TribuoObject> encode(function: () -> T): ByteArray
    }
    TribuoObject -u-> TribuoTask

    class "Classification" as common_classification
    class "Clustering" as common_clustering
    class "Regression" as common_regression
    class "AnomalyDetection" as common_anomaly_detection
    class "Configuration" as common_configuration

    common_classification -u-> TribuoObject
    common_clustering -u-> TribuoObject
    common_regression -u-> TribuoObject
    common_anomaly_detection -u-> TribuoObject
    common_configuration -u-> TribuoObject

    InitializeClassification -r-> TribuoTask
    DataStats -r-> TribuoTask
    TrainerInfo -r-> TribuoTask
    TrainAndEvaluate -r-> TribuoTask
}

skinparam linetype ortho

annotation Serializable

package common {
    class InitializeClassification
    class DataStats
    class DataStatsResponse
    class TrainerInfo
    class TrainAndEvaluate
}

InitializeClassification -u-> Serializable
DataStats -u-> Serializable
DataStatsResponse -u-> Serializable
TrainerInfo -u-> Serializable
TrainAndEvaluate -u-> Serializable



@enduml

PlantUML version 1.2021.7(Sun May 23 13:40:07 BST 2021)
(GPL source distribution)
Java Runtime: OpenJDK Runtime Environment
JVM: OpenJDK 64-Bit Server VM
Default Encoding: UTF-8
Language: en
Country: GB
--></g></svg>