<?xml version="1.0" encoding="UTF-8" standalone="no"?><svg xmlns="http://www.w3.org/2000/svg" xmlns:xlink="http://www.w3.org/1999/xlink" contentScriptType="application/ecmascript" contentStyleType="text/css" height="467px" preserveAspectRatio="none" style="width:1009px;height:467px;background:#FFFFFF;" version="1.1" viewBox="0 0 1009 467" width="1009px" zoomAndPan="magnify"><defs><filter height="300%" id="fv8vb0mpko4iv" width="300%" x="-1" y="-1"><feGaussianBlur result="blurOut" stdDeviation="2.0"/><feColorMatrix in="blurOut" result="blurOut2" type="matrix" values="0 0 0 0 0 0 0 0 0 0 0 0 0 0 0 0 0 0 .4 0"/><feOffset dx="4.0" dy="4.0" in="blurOut2" result="blurOut3"/><feBlend in="SourceGraphic" in2="blurOut3" mode="normal"/></filter></defs><g><!--MD5=[b28fcb397abe995d6d4652e4c54b3002]
cluster common--><polygon fill="#FFFFFF" filter="url(#fv8vb0mpko4iv)" points="16,80,84,80,91,102.4883,992,102.4883,992,460,16,460,16,80" style="stroke:#000000;stroke-width:1.5;"/><line style="stroke:#000000;stroke-width:1.5;" x1="16" x2="91" y1="102.4883" y2="102.4883"/><text fill="#000000" font-family="sans-serif" font-size="14" font-weight="bold" lengthAdjust="spacing" textLength="62" x="20" y="95.5352">common</text><!--MD5=[db75156e3f5fd2da0ae07e924fadffdf]
class TribuoTask--><rect codeLine="6" fill="#FEFECE" filter="url(#fv8vb0mpko4iv)" height="73.9102" id="TribuoTask" style="stroke:#A80036;stroke-width:1.5;" width="134" x="842" y="115"/><ellipse cx="873.2" cy="131" fill="#A9DCDF" rx="11" ry="11" style="stroke:#A80036;stroke-width:1.0;"/><path d="M873.3133,126.5981 L872.1595,131.6699 L874.4754,131.6699 Z M871.8191,124.3569 L874.8157,124.3569 L878.1609,136.75 L875.7122,136.75 L874.9485,133.687 L871.6697,133.687 L870.9227,136.75 L868.4739,136.75 Z " fill="#000000"/><text fill="#000000" font-family="sans-serif" font-size="12" font-style="italic" lengthAdjust="spacing" textLength="66" x="890.8" y="135.5352">TribuoTask</text><line style="stroke:#A80036;stroke-width:1.5;" x1="843" x2="975" y1="147" y2="147"/><line style="stroke:#A80036;stroke-width:1.5;" x1="843" x2="975" y1="155" y2="155"/><ellipse cx="853" cy="166" fill="#84BE84" rx="3" ry="3" style="stroke:#038048;stroke-width:1.0;"/><text fill="#000000" font-family="sans-serif" font-size="11" lengthAdjust="spacing" textLength="108" x="862" y="169.6348">execute(): ByteArray</text><ellipse cx="853" cy="178.9551" fill="#84BE84" rx="3" ry="3" style="stroke:#038048;stroke-width:1.0;"/><text fill="#000000" font-family="sans-serif" font-size="11" lengthAdjust="spacing" textLength="105" x="862" y="182.5898">encode(): ByteArray</text><!--MD5=[fa87e93831cb810591d9992e0e5855bd]
class TribuoObject--><rect codeLine="10" fill="#FEFECE" filter="url(#fv8vb0mpko4iv)" height="86.8652" id="TribuoObject" style="stroke:#A80036;stroke-width:1.5;" width="323" x="528.5" y="249"/><ellipse cx="647.75" cy="265" fill="#A9DCDF" rx="11" ry="11" style="stroke:#A80036;stroke-width:1.0;"/><path d="M647.8633,260.5981 L646.7095,265.6699 L649.0254,265.6699 Z M646.3691,258.3569 L649.3657,258.3569 L652.7109,270.75 L650.2622,270.75 L649.4985,267.687 L646.2197,267.687 L645.4727,270.75 L643.0239,270.75 Z " fill="#000000"/><text fill="#000000" font-family="sans-serif" font-size="12" font-style="italic" lengthAdjust="spacing" textLength="76" x="668.25" y="269.5352">TribuoObject</text><line style="stroke:#A80036;stroke-width:1.5;" x1="529.5" x2="850.5" y1="281" y2="281"/><ellipse cx="539.5" cy="292" rx="3" ry="3" style="stroke:#038048;stroke-width:1.0;fill:none;"/><text fill="#000000" font-family="sans-serif" font-size="11" lengthAdjust="spacing" textLength="30" x="548.5" y="295.6348">id: Int</text><ellipse cx="539.5" cy="304.9551" rx="3" ry="3" style="stroke:#038048;stroke-width:1.0;fill:none;"/><text fill="#000000" font-family="sans-serif" font-size="11" lengthAdjust="spacing" textLength="203" x="548.5" y="308.5898">objects: HashMap&lt;Int, TribuoObject&gt;</text><line style="stroke:#A80036;stroke-width:1.5;" x1="529.5" x2="850.5" y1="314.9102" y2="314.9102"/><ellipse cx="539.5" cy="325.9102" fill="#84BE84" rx="3" ry="3" style="stroke:#038048;stroke-width:1.0;"/><text fill="#000000" font-family="sans-serif" font-size="11" lengthAdjust="spacing" textLength="297" x="548.5" y="329.5449">&lt;T: TribuoObject&gt; encode(function: () -&gt; T): ByteArray</text><!--MD5=[96dc21af906a864c26a2e0786950d9f6]
class common_classification--><rect codeLine="17" fill="#FEFECE" filter="url(#fv8vb0mpko4iv)" height="48" id="common_classification" style="stroke:#A80036;stroke-width:1.5;" width="106" x="302" y="396"/><ellipse cx="317" cy="412" fill="#ADD1B2" rx="11" ry="11" style="stroke:#A80036;stroke-width:1.0;"/><path d="M319.4731,418.1431 Q318.8921,418.4419 318.2529,418.5913 Q317.6138,418.7407 316.9082,418.7407 Q314.4014,418.7407 313.0815,417.0889 Q311.7617,415.437 311.7617,412.3159 Q311.7617,409.1865 313.0815,407.5347 Q314.4014,405.8828 316.9082,405.8828 Q317.6138,405.8828 318.2612,406.0322 Q318.9087,406.1816 319.4731,406.4805 L319.4731,409.2031 Q318.8423,408.6221 318.2488,408.3523 Q317.6553,408.0825 317.0244,408.0825 Q315.6797,408.0825 314.9949,409.1492 Q314.3101,410.2158 314.3101,412.3159 Q314.3101,414.4077 314.9949,415.4744 Q315.6797,416.541 317.0244,416.541 Q317.6553,416.541 318.2488,416.2712 Q318.8423,416.0015 319.4731,415.4204 Z " fill="#000000"/><text fill="#000000" font-family="sans-serif" font-size="12" lengthAdjust="spacing" textLength="74" x="331" y="416.5352">Classification</text><line style="stroke:#A80036;stroke-width:1.5;" x1="303" x2="407" y1="428" y2="428"/><line style="stroke:#A80036;stroke-width:1.5;" x1="303" x2="407" y1="436" y2="436"/><!--MD5=[14ab531d374cbb22cdd745cf8ae3b009]
class common_clustering--><rect codeLine="18" fill="#FEFECE" filter="url(#fv8vb0mpko4iv)" height="48" id="common_clustering" style="stroke:#A80036;stroke-width:1.5;" width="89" x="443.5" y="396"/><ellipse cx="458.5" cy="412" fill="#ADD1B2" rx="11" ry="11" style="stroke:#A80036;stroke-width:1.0;"/><path d="M460.9731,418.1431 Q460.3921,418.4419 459.7529,418.5913 Q459.1138,418.7407 458.4082,418.7407 Q455.9014,418.7407 454.5815,417.0889 Q453.2617,415.437 453.2617,412.3159 Q453.2617,409.1865 454.5815,407.5347 Q455.9014,405.8828 458.4082,405.8828 Q459.1138,405.8828 459.7612,406.0322 Q460.4087,406.1816 460.9731,406.4805 L460.9731,409.2031 Q460.3423,408.6221 459.7488,408.3523 Q459.1553,408.0825 458.5244,408.0825 Q457.1797,408.0825 456.4949,409.1492 Q455.8101,410.2158 455.8101,412.3159 Q455.8101,414.4077 456.4949,415.4744 Q457.1797,416.541 458.5244,416.541 Q459.1553,416.541 459.7488,416.2712 Q460.3423,416.0015 460.9731,415.4204 Z " fill="#000000"/><text fill="#000000" font-family="sans-serif" font-size="12" lengthAdjust="spacing" textLength="57" x="472.5" y="416.5352">Clustering</text><line style="stroke:#A80036;stroke-width:1.5;" x1="444.5" x2="531.5" y1="428" y2="428"/><line style="stroke:#A80036;stroke-width:1.5;" x1="444.5" x2="531.5" y1="436" y2="436"/><!--MD5=[df7a0345382cf737f6a42af10fe68554]
class common_regression--><rect codeLine="19" fill="#FEFECE" filter="url(#fv8vb0mpko4iv)" height="48" id="common_regression" style="stroke:#A80036;stroke-width:1.5;" width="95" x="567.5" y="396"/><ellipse cx="582.5" cy="412" fill="#ADD1B2" rx="11" ry="11" style="stroke:#A80036;stroke-width:1.0;"/><path d="M584.9731,418.1431 Q584.3921,418.4419 583.7529,418.5913 Q583.1138,418.7407 582.4082,418.7407 Q579.9014,418.7407 578.5815,417.0889 Q577.2617,415.437 577.2617,412.3159 Q577.2617,409.1865 578.5815,407.5347 Q579.9014,405.8828 582.4082,405.8828 Q583.1138,405.8828 583.7612,406.0322 Q584.4087,406.1816 584.9731,406.4805 L584.9731,409.2031 Q584.3423,408.6221 583.7488,408.3523 Q583.1553,408.0825 582.5244,408.0825 Q581.1797,408.0825 580.4949,409.1492 Q579.8101,410.2158 579.8101,412.3159 Q579.8101,414.4077 580.4949,415.4744 Q581.1797,416.541 582.5244,416.541 Q583.1553,416.541 583.7488,416.2712 Q584.3423,416.0015 584.9731,415.4204 Z " fill="#000000"/><text fill="#000000" font-family="sans-serif" font-size="12" lengthAdjust="spacing" textLength="63" x="596.5" y="416.5352">Regression</text><line style="stroke:#A80036;stroke-width:1.5;" x1="568.5" x2="661.5" y1="428" y2="428"/><line style="stroke:#A80036;stroke-width:1.5;" x1="568.5" x2="661.5" y1="436" y2="436"/><!--MD5=[bb9937edd3538a431fc1b74eab276c28]
class common_anomaly_detection--><rect codeLine="20" fill="#FEFECE" filter="url(#fv8vb0mpko4iv)" height="48" id="common_anomaly_detection" style="stroke:#A80036;stroke-width:1.5;" width="135" x="697.5" y="396"/><ellipse cx="712.5" cy="412" fill="#ADD1B2" rx="11" ry="11" style="stroke:#A80036;stroke-width:1.0;"/><path d="M714.9731,418.1431 Q714.3921,418.4419 713.7529,418.5913 Q713.1138,418.7407 712.4082,418.7407 Q709.9014,418.7407 708.5815,417.0889 Q707.2617,415.437 707.2617,412.3159 Q707.2617,409.1865 708.5815,407.5347 Q709.9014,405.8828 712.4082,405.8828 Q713.1138,405.8828 713.7612,406.0322 Q714.4087,406.1816 714.9731,406.4805 L714.9731,409.2031 Q714.3423,408.6221 713.7488,408.3523 Q713.1553,408.0825 712.5244,408.0825 Q711.1797,408.0825 710.4949,409.1492 Q709.8101,410.2158 709.8101,412.3159 Q709.8101,414.4077 710.4949,415.4744 Q711.1797,416.541 712.5244,416.541 Q713.1553,416.541 713.7488,416.2712 Q714.3423,416.0015 714.9731,415.4204 Z " fill="#000000"/><text fill="#000000" font-family="sans-serif" font-size="12" lengthAdjust="spacing" textLength="103" x="726.5" y="416.5352">AnomalyDetection</text><line style="stroke:#A80036;stroke-width:1.5;" x1="698.5" x2="831.5" y1="428" y2="428"/><line style="stroke:#A80036;stroke-width:1.5;" x1="698.5" x2="831.5" y1="436" y2="436"/><!--MD5=[a7e37f5ed935d3a049ea1d38640e6bf8]
class common_configuration--><rect codeLine="21" fill="#FEFECE" filter="url(#fv8vb0mpko4iv)" height="48" id="common_configuration" style="stroke:#A80036;stroke-width:1.5;" width="108" x="868" y="396"/><ellipse cx="883" cy="412" fill="#ADD1B2" rx="11" ry="11" style="stroke:#A80036;stroke-width:1.0;"/><path d="M885.4731,418.1431 Q884.8921,418.4419 884.2529,418.5913 Q883.6138,418.7407 882.9082,418.7407 Q880.4014,418.7407 879.0815,417.0889 Q877.7617,415.437 877.7617,412.3159 Q877.7617,409.1865 879.0815,407.5347 Q880.4014,405.8828 882.9082,405.8828 Q883.6138,405.8828 884.2612,406.0322 Q884.9087,406.1816 885.4731,406.4805 L885.4731,409.2031 Q884.8423,408.6221 884.2488,408.3523 Q883.6553,408.0825 883.0244,408.0825 Q881.6797,408.0825 880.9949,409.1492 Q880.3101,410.2158 880.3101,412.3159 Q880.3101,414.4077 880.9949,415.4744 Q881.6797,416.541 883.0244,416.541 Q883.6553,416.541 884.2488,416.2712 Q884.8423,416.0015 885.4731,415.4204 Z " fill="#000000"/><text fill="#000000" font-family="sans-serif" font-size="12" lengthAdjust="spacing" textLength="76" x="897" y="416.5352">Configuration</text><line style="stroke:#A80036;stroke-width:1.5;" x1="869" x2="975" y1="428" y2="428"/><line style="stroke:#A80036;stroke-width:1.5;" x1="869" x2="975" y1="436" y2="436"/><!--MD5=[cd3044b27f8c559d25d8da1fdeae0329]
class DataStats--><rect codeLine="7" fill="#FEFECE" filter="url(#fv8vb0mpko4iv)" height="48" id="DataStats" style="stroke:#A80036;stroke-width:1.5;" width="86" x="508" y="128"/><ellipse cx="523" cy="144" fill="#ADD1B2" rx="11" ry="11" style="stroke:#A80036;stroke-width:1.0;"/><path d="M525.4731,150.1431 Q524.8921,150.4419 524.2529,150.5913 Q523.6138,150.7407 522.9082,150.7407 Q520.4014,150.7407 519.0815,149.0889 Q517.7617,147.437 517.7617,144.3159 Q517.7617,141.1865 519.0815,139.5347 Q520.4014,137.8828 522.9082,137.8828 Q523.6138,137.8828 524.2612,138.0322 Q524.9087,138.1816 525.4731,138.4805 L525.4731,141.2031 Q524.8423,140.6221 524.2488,140.3523 Q523.6553,140.0825 523.0244,140.0825 Q521.6797,140.0825 520.9949,141.1492 Q520.3101,142.2158 520.3101,144.3159 Q520.3101,146.4077 520.9949,147.4744 Q521.6797,148.541 523.0244,148.541 Q523.6553,148.541 524.2488,148.2712 Q524.8423,148.0015 525.4731,147.4204 Z " fill="#000000"/><text fill="#000000" font-family="sans-serif" font-size="12" lengthAdjust="spacing" textLength="54" x="537" y="148.5352">DataStats</text><line style="stroke:#A80036;stroke-width:1.5;" x1="509" x2="593" y1="160" y2="160"/><line style="stroke:#A80036;stroke-width:1.5;" x1="509" x2="593" y1="168" y2="168"/><!--MD5=[7fc02401e47c21fce73e5c0c479ec515]
class ClassificationInitializeImpl--><rect codeLine="6" fill="#FEFECE" filter="url(#fv8vb0mpko4iv)" height="48" id="ClassificationInitializeImpl" style="stroke:#A80036;stroke-width:1.5;" width="178" x="629" y="128"/><ellipse cx="644" cy="144" fill="#ADD1B2" rx="11" ry="11" style="stroke:#A80036;stroke-width:1.0;"/><path d="M646.4731,150.1431 Q645.8921,150.4419 645.2529,150.5913 Q644.6138,150.7407 643.9082,150.7407 Q641.4014,150.7407 640.0815,149.0889 Q638.7617,147.437 638.7617,144.3159 Q638.7617,141.1865 640.0815,139.5347 Q641.4014,137.8828 643.9082,137.8828 Q644.6138,137.8828 645.2612,138.0322 Q645.9087,138.1816 646.4731,138.4805 L646.4731,141.2031 Q645.8423,140.6221 645.2488,140.3523 Q644.6553,140.0825 644.0244,140.0825 Q642.6797,140.0825 641.9949,141.1492 Q641.3101,142.2158 641.3101,144.3159 Q641.3101,146.4077 641.9949,147.4744 Q642.6797,148.541 644.0244,148.541 Q644.6553,148.541 645.2488,148.2712 Q645.8423,148.0015 646.4731,147.4204 Z " fill="#000000"/><text fill="#000000" font-family="sans-serif" font-size="12" lengthAdjust="spacing" textLength="146" x="658" y="148.5352">ClassificationInitializeImpl</text><line style="stroke:#A80036;stroke-width:1.5;" x1="630" x2="806" y1="160" y2="160"/><line style="stroke:#A80036;stroke-width:1.5;" x1="630" x2="806" y1="168" y2="168"/><!--MD5=[49e38df922dd3a16be955050f5f7b30c]
class TrainerInfo--><rect codeLine="9" fill="#FEFECE" filter="url(#fv8vb0mpko4iv)" height="48" id="TrainerInfo" style="stroke:#A80036;stroke-width:1.5;" width="95" x="377.5" y="128"/><ellipse cx="392.5" cy="144" fill="#ADD1B2" rx="11" ry="11" style="stroke:#A80036;stroke-width:1.0;"/><path d="M394.9731,150.1431 Q394.3921,150.4419 393.7529,150.5913 Q393.1138,150.7407 392.4082,150.7407 Q389.9014,150.7407 388.5815,149.0889 Q387.2617,147.437 387.2617,144.3159 Q387.2617,141.1865 388.5815,139.5347 Q389.9014,137.8828 392.4082,137.8828 Q393.1138,137.8828 393.7612,138.0322 Q394.4087,138.1816 394.9731,138.4805 L394.9731,141.2031 Q394.3423,140.6221 393.7488,140.3523 Q393.1553,140.0825 392.5244,140.0825 Q391.1797,140.0825 390.4949,141.1492 Q389.8101,142.2158 389.8101,144.3159 Q389.8101,146.4077 390.4949,147.4744 Q391.1797,148.541 392.5244,148.541 Q393.1553,148.541 393.7488,148.2712 Q394.3423,148.0015 394.9731,147.4204 Z " fill="#000000"/><text fill="#000000" font-family="sans-serif" font-size="12" lengthAdjust="spacing" textLength="63" x="406.5" y="148.5352">TrainerInfo</text><line style="stroke:#A80036;stroke-width:1.5;" x1="378.5" x2="471.5" y1="160" y2="160"/><line style="stroke:#A80036;stroke-width:1.5;" x1="378.5" x2="471.5" y1="168" y2="168"/><!--MD5=[69020310643386b44d64bac4c1f6ccfe]
class TrainAndEvaluate--><rect codeLine="10" fill="#FEFECE" filter="url(#fv8vb0mpko4iv)" height="48" id="TrainAndEvaluate" style="stroke:#A80036;stroke-width:1.5;" width="133" x="209.5" y="128"/><ellipse cx="224.5" cy="144" fill="#ADD1B2" rx="11" ry="11" style="stroke:#A80036;stroke-width:1.0;"/><path d="M226.9731,150.1431 Q226.3921,150.4419 225.7529,150.5913 Q225.1138,150.7407 224.4082,150.7407 Q221.9014,150.7407 220.5815,149.0889 Q219.2617,147.437 219.2617,144.3159 Q219.2617,141.1865 220.5815,139.5347 Q221.9014,137.8828 224.4082,137.8828 Q225.1138,137.8828 225.7612,138.0322 Q226.4087,138.1816 226.9731,138.4805 L226.9731,141.2031 Q226.3423,140.6221 225.7488,140.3523 Q225.1553,140.0825 224.5244,140.0825 Q223.1797,140.0825 222.4949,141.1492 Q221.8101,142.2158 221.8101,144.3159 Q221.8101,146.4077 222.4949,147.4744 Q223.1797,148.541 224.5244,148.541 Q225.1553,148.541 225.7488,148.2712 Q226.3423,148.0015 226.9731,147.4204 Z " fill="#000000"/><text fill="#000000" font-family="sans-serif" font-size="12" lengthAdjust="spacing" textLength="101" x="238.5" y="148.5352">TrainAndEvaluate</text><line style="stroke:#A80036;stroke-width:1.5;" x1="210.5" x2="341.5" y1="160" y2="160"/><line style="stroke:#A80036;stroke-width:1.5;" x1="210.5" x2="341.5" y1="168" y2="168"/><!--MD5=[179568b94427a75d0eabbbfb7d2c61e1]
class DataStatsResponse--><rect codeLine="8" fill="#FEFECE" filter="url(#fv8vb0mpko4iv)" height="48" id="DataStatsResponse" style="stroke:#A80036;stroke-width:1.5;" width="142" x="32" y="128"/><ellipse cx="47" cy="144" fill="#ADD1B2" rx="11" ry="11" style="stroke:#A80036;stroke-width:1.0;"/><path d="M49.4731,150.1431 Q48.8921,150.4419 48.2529,150.5913 Q47.6138,150.7407 46.9082,150.7407 Q44.4014,150.7407 43.0815,149.0889 Q41.7617,147.437 41.7617,144.3159 Q41.7617,141.1865 43.0815,139.5347 Q44.4014,137.8828 46.9082,137.8828 Q47.6138,137.8828 48.2612,138.0322 Q48.9087,138.1816 49.4731,138.4805 L49.4731,141.2031 Q48.8423,140.6221 48.2488,140.3523 Q47.6553,140.0825 47.0244,140.0825 Q45.6797,140.0825 44.9949,141.1492 Q44.3101,142.2158 44.3101,144.3159 Q44.3101,146.4077 44.9949,147.4744 Q45.6797,148.541 47.0244,148.541 Q47.6553,148.541 48.2488,148.2712 Q48.8423,148.0015 49.4731,147.4204 Z " fill="#000000"/><text fill="#000000" font-family="sans-serif" font-size="12" lengthAdjust="spacing" textLength="110" x="61" y="148.5352">DataStatsResponse</text><line style="stroke:#A80036;stroke-width:1.5;" x1="33" x2="173" y1="160" y2="160"/><line style="stroke:#A80036;stroke-width:1.5;" x1="33" x2="173" y1="168" y2="168"/><!--MD5=[cc3de0a176daa3c4ec875deafdf5ddd1]
class Serializable--><rect codeLine="3" fill="#FEFECE" filter="url(#fv8vb0mpko4iv)" height="48" id="Serializable" style="stroke:#A80036;stroke-width:1.5;" width="98" x="376" y="7"/><ellipse cx="391" cy="23" fill="#E3664A" rx="11" ry="11" style="stroke:#A80036;stroke-width:1.0;"/><path d="M393.0767,23.2261 Q393.0767,22.2881 392.6533,21.7568 Q392.23,21.2256 391.4912,21.2256 Q390.7524,21.2256 390.3333,21.7568 Q389.9141,22.2881 389.9141,23.2261 Q389.9141,24.1724 390.3333,24.7036 Q390.7524,25.2349 391.4912,25.2349 Q392.23,25.2349 392.6533,24.7036 Q393.0767,24.1724 393.0767,23.2261 Z M394.6206,26.6294 L392.9937,26.6294 L392.9937,25.9487 Q392.6782,26.3887 392.2507,26.592 Q391.8232,26.7954 391.2256,26.7954 Q389.8643,26.7954 389.03,25.8159 Q388.1958,24.8364 388.1958,23.2261 Q388.1958,21.624 389.0259,20.6487 Q389.856,19.6733 391.2256,19.6733 Q391.8149,19.6733 392.2632,19.8767 Q392.7114,20.0801 392.9937,20.4702 L392.9937,20.1299 Q392.9937,19.001 392.3752,18.3867 Q391.7568,17.7725 390.6113,17.7725 Q388.8848,17.7725 387.7932,19.2915 Q386.7017,20.8105 386.7017,23.2427 Q386.7017,25.791 387.9634,27.2976 Q389.2251,28.8042 391.3252,28.8042 Q391.9893,28.8042 392.6118,28.6091 Q393.2344,28.4141 393.8071,28.0239 L394.5708,29.4849 Q393.8984,29.9414 393.1057,30.1697 Q392.313,30.3979 391.4082,30.3979 Q388.5029,30.3979 386.7764,28.4639 Q385.0498,26.5298 385.0498,23.2427 Q385.0498,20.0303 386.6021,18.1003 Q388.1543,16.1704 390.7109,16.1704 Q392.5205,16.1704 393.5706,17.262 Q394.6206,18.3535 394.6206,20.2378 Z " fill="#000000"/><text fill="#000000" font-family="sans-serif" font-size="12" lengthAdjust="spacing" textLength="66" x="405" y="27.5352">Serializable</text><line style="stroke:#A80036;stroke-width:1.5;" x1="377" x2="473" y1="39" y2="39"/><line style="stroke:#A80036;stroke-width:1.5;" x1="377" x2="473" y1="47" y2="47"/><!--MD5=[c8807c0e005bfa8806abfd1967ad229c]
reverse link TribuoTask to TribuoObject--><path codeLine="15" d="M846.75,194.28 C846.75,194.28 846.75,248.81 846.75,248.81 " fill="none" id="TribuoTask-backto-TribuoObject" style="stroke:#A80036;stroke-width:1.0;"/><polygon fill="#A80036" points="846.75,189.28,842.75,198.28,846.75,194.28,850.75,198.28,846.75,189.28" style="stroke:#A80036;stroke-width:1.0;"/><!--MD5=[0e20ce78078a5407d5381b594c67a62d]
reverse link TribuoObject to common_classification--><path codeLine="23" d="M523.33,293 C523.33,293 392.75,293 392.75,293 C392.75,293 392.75,358.97 392.75,395.81 " fill="none" id="TribuoObject-backto-common_classification" style="stroke:#A80036;stroke-width:1.0;"/><polygon fill="#A80036" points="528.33,293,519.33,289,523.33,293,519.33,297,528.33,293" style="stroke:#A80036;stroke-width:1.0;"/><!--MD5=[49ee059c65a1c46681b2b4037efee4d5]
reverse link TribuoObject to common_clustering--><path codeLine="24" d="M550,341.02 C550,341.02 550,420 550,420 C550,420 542.51,420 532.73,420 " fill="none" id="TribuoObject-backto-common_clustering" style="stroke:#A80036;stroke-width:1.0;"/><polygon fill="#A80036" points="550,336.02,546,345.02,550,341.02,554,345.02,550,336.02" style="stroke:#A80036;stroke-width:1.0;"/><!--MD5=[27ffafce761e00ced37ebcce34d60d95]
reverse link TribuoObject to common_regression--><path codeLine="25" d="M615,341.02 C615,341.02 615,395.98 615,395.98 " fill="none" id="TribuoObject-backto-common_regression" style="stroke:#A80036;stroke-width:1.0;"/><polygon fill="#A80036" points="615,336.02,611,345.02,615,341.02,619,345.02,615,336.02" style="stroke:#A80036;stroke-width:1.0;"/><!--MD5=[62cd75012bdae0f802f47b803105ed8a]
reverse link TribuoObject to common_anomaly_detection--><path codeLine="26" d="M765,341.02 C765,341.02 765,395.98 765,395.98 " fill="none" id="TribuoObject-backto-common_anomaly_detection" style="stroke:#A80036;stroke-width:1.0;"/><polygon fill="#A80036" points="765,336.02,761,345.02,765,341.02,769,345.02,765,336.02" style="stroke:#A80036;stroke-width:1.0;"/><!--MD5=[2a086e80cf0298454219efc79517d811]
reverse link TribuoObject to common_configuration--><path codeLine="27" d="M842,341.02 C842,341.02 842,420 842,420 C842,420 853.49,420 867.75,420 " fill="none" id="TribuoObject-backto-common_configuration" style="stroke:#A80036;stroke-width:1.0;"/><polygon fill="#A80036" points="842,336.02,838,345.02,842,341.02,846,345.02,842,336.02" style="stroke:#A80036;stroke-width:1.0;"/><!--MD5=[82e1b0853a64bb19acf5286d7403725a]
link ClassificationInitializeImpl to TribuoTask--><path codeLine="30" d="M807.07,152 C807.07,152 836.77,152 836.77,152 " fill="none" id="ClassificationInitializeImpl-to-TribuoTask" style="stroke:#A80036;stroke-width:1.0;"/><polygon fill="#A80036" points="841.77,152,832.77,148,836.77,152,832.77,156,841.77,152" style="stroke:#A80036;stroke-width:1.0;"/><!--MD5=[d9cc1e46f65f40878b7b4f294a2aaf2a]
link DataStats to TribuoTask--><path codeLine="31" d="M561.25,176.11 C561.25,178.46 561.25,180 561.25,180 C561.25,180 836.95,180 836.95,180 " fill="none" id="DataStats-to-TribuoTask" style="stroke:#A80036;stroke-width:1.0;"/><polygon fill="#A80036" points="841.95,180,832.95,176,836.95,180,832.95,184,841.95,180" style="stroke:#A80036;stroke-width:1.0;"/><!--MD5=[24e611dc3212ab82a4094932f6f93a2a]
link TrainerInfo to TribuoTask--><path codeLine="32" d="M458,176.12 C458,180.12 458,183 458,183 C458,183 836.97,183 836.97,183 " fill="none" id="TrainerInfo-to-TribuoTask" style="stroke:#A80036;stroke-width:1.0;"/><polygon fill="#A80036" points="841.97,183,832.97,179,836.97,183,832.97,187,841.97,183" style="stroke:#A80036;stroke-width:1.0;"/><!--MD5=[ba5fbb8db85b2441c135e6f2b1f7e6dd]
link TrainAndEvaluate to TribuoTask--><path codeLine="33" d="M322.25,176.35 C322.25,181.8 322.25,186 322.25,186 C322.25,186 836.98,186 836.98,186 " fill="none" id="TrainAndEvaluate-to-TribuoTask" style="stroke:#A80036;stroke-width:1.0;"/><polygon fill="#A80036" points="841.98,186,832.98,182,836.98,186,832.98,190,841.98,186" style="stroke:#A80036;stroke-width:1.0;"/><!--MD5=[2c29fa90420da6ef8580b6c0a1d64662]
reverse link Serializable to ClassificationInitializeImpl--><path codeLine="13" d="M479.04,23 C479.04,23 718,23 718,23 C718,23 718,90.37 718,127.74 " fill="none" id="Serializable-backto-ClassificationInitializeImpl" style="stroke:#A80036;stroke-width:1.0;"/><polygon fill="#A80036" points="474.04,23,483.04,27,479.04,23,483.04,19,474.04,23" style="stroke:#A80036;stroke-width:1.0;"/><!--MD5=[bd5849ffe5b161644764765dc095cd1a]
reverse link Serializable to DataStats--><path codeLine="14" d="M479.08,39 C479.08,39 551,39 551,39 C551,39 551,94.56 551,127.76 " fill="none" id="Serializable-backto-DataStats" style="stroke:#A80036;stroke-width:1.0;"/><polygon fill="#A80036" points="474.08,39,483.08,43,479.08,39,483.08,35,474.08,39" style="stroke:#A80036;stroke-width:1.0;"/><!--MD5=[3ad4db81e9cfea006b7987bebd8c4024]
reverse link Serializable to DataStatsResponse--><path codeLine="15" d="M370.74,23 C370.74,23 103,23 103,23 C103,23 103,90.37 103,127.74 " fill="none" id="Serializable-backto-DataStatsResponse" style="stroke:#A80036;stroke-width:1.0;"/><polygon fill="#A80036" points="375.74,23,366.74,19,370.74,23,366.74,27,375.74,23" style="stroke:#A80036;stroke-width:1.0;"/><!--MD5=[8f3bd4681b9805a9962bb548e4b23d74]
reverse link Serializable to TrainerInfo--><path codeLine="16" d="M425,60.2 C425,60.2 425,127.85 425,127.85 " fill="none" id="Serializable-backto-TrainerInfo" style="stroke:#A80036;stroke-width:1.0;"/><polygon fill="#A80036" points="425,55.2,421,64.2,425,60.2,429,64.2,425,55.2" style="stroke:#A80036;stroke-width:1.0;"/><!--MD5=[89b0abc0b2bd8c733ad8aa5acc761ba9]
reverse link Serializable to TrainAndEvaluate--><path codeLine="17" d="M370.8,39 C370.8,39 276,39 276,39 C276,39 276,94.56 276,127.76 " fill="none" id="Serializable-backto-TrainAndEvaluate" style="stroke:#A80036;stroke-width:1.0;"/><polygon fill="#A80036" points="375.8,39,366.8,35,370.8,39,366.8,43,375.8,39" style="stroke:#A80036;stroke-width:1.0;"/><!--MD5=[e0fceffeb90c04314581a2f337065399]
@startuml "tribuo-task"
skinparam linetype ortho

annotation Serializable

package common {
    abstract TribuoTask {
        + execute(): ByteArray
        + encode(): ByteArray
    }
    abstract TribuoObject {
        + id: Int
        + objects: HashMap<Int, TribuoObject>
        + <T: TribuoObject> encode(function: () -> T): ByteArray
    }
    TribuoObject -u-> TribuoTask

    class "Classification" as common_classification
    class "Clustering" as common_clustering
    class "Regression" as common_regression
    class "AnomalyDetection" as common_anomaly_detection
    class "Configuration" as common_configuration

    common_classification -u-> TribuoObject
    common_clustering -u-> TribuoObject
    common_regression -u-> TribuoObject
    common_anomaly_detection -u-> TribuoObject
    common_configuration -u-> TribuoObject

    class DataStats
    ClassificationInitializeImpl -r-> TribuoTask
    DataStats -r-> TribuoTask
    TrainerInfo -r-> TribuoTask
    TrainAndEvaluate -r-> TribuoTask
}

!include classification.puml


@enduml

@startuml "tribuo-task"
skinparam linetype ortho

annotation Serializable

package common {
    abstract TribuoTask {
        + execute(): ByteArray
        + encode(): ByteArray
    }
    abstract TribuoObject {
        + id: Int
        + objects: HashMap<Int, TribuoObject>
        + <T: TribuoObject> encode(function: () -> T): ByteArray
    }
    TribuoObject -u-> TribuoTask

    class "Classification" as common_classification
    class "Clustering" as common_clustering
    class "Regression" as common_regression
    class "AnomalyDetection" as common_anomaly_detection
    class "Configuration" as common_configuration

    common_classification -u-> TribuoObject
    common_clustering -u-> TribuoObject
    common_regression -u-> TribuoObject
    common_anomaly_detection -u-> TribuoObject
    common_configuration -u-> TribuoObject

    class DataStats
    ClassificationInitializeImpl -r-> TribuoTask
    DataStats -r-> TribuoTask
    TrainerInfo -r-> TribuoTask
    TrainAndEvaluate -r-> TribuoTask
}

skinparam linetype ortho

annotation Serializable

package common {
    class ClassificationInitializeImpl
    class DataStats
    class DataStatsResponse
    class TrainerInfo
    class TrainAndEvaluate
}

ClassificationInitializeImpl -u-> Serializable
DataStats -u-> Serializable
DataStatsResponse -u-> Serializable
TrainerInfo -u-> Serializable
TrainAndEvaluate -u-> Serializable



@enduml

PlantUML version 1.2021.7(Sun May 23 13:40:07 BST 2021)
(GPL source distribution)
Java Runtime: OpenJDK Runtime Environment
JVM: OpenJDK 64-Bit Server VM
Default Encoding: UTF-8
Language: en
Country: GB
--></g></svg>