<svg id="Layer_1" data-name="Layer 1" xmlns="http://www.w3.org/2000/svg" viewBox="0 0 282 72"><defs><style>.cls-1,.cls-2{fill:#fff;}.cls-2{fill-rule:evenodd;}.cls-3{fill:#ec1d24;}</style></defs><path class="cls-1" d="M83.15,58.54V26.06h9.56L93,29.59a11.31,11.31,0,0,1,4.22-3.11,13.06,13.06,0,0,1,5.4-1.18,12,12,0,0,1,8.87,3.32q3.33,3.33,3.32,9.84V58.54h-10V39.84a6.41,6.41,0,0,0-1.35-4.29A4.68,4.68,0,0,0,99.71,34a5.93,5.93,0,0,0-5,2.14,7.84,7.84,0,0,0-1.69,5V58.54Z"/><path class="cls-1" d="M151.66,58.54V12.35h10V58.54Z"/><path class="cls-1" d="M211.94,58.54,198.23,26.06h11.08L217,47.39l7.41-21.33h10.87L221.36,58.54Z"/><path class="cls-1" d="M263.35,48.71l4.09,6.3c-.46.33-1.28.86-2.46,1.6a22.26,22.26,0,0,1-4.68,2.07,22.58,22.58,0,0,1-7.13,1,19.6,19.6,0,0,1-9.56-2.21,15.25,15.25,0,0,1-6.16-6.17,18.68,18.68,0,0,1-2.15-9.07,18.73,18.73,0,0,1,2-8.52A15.72,15.72,0,0,1,243,27.34a16.58,16.58,0,0,1,9-2.39,15.52,15.52,0,0,1,8.83,2.39,15,15,0,0,1,5.41,6.58,24,24,0,0,1,1.83,9.66v1.67H245a6.19,6.19,0,0,0,2.35,4.57,9,9,0,0,0,6.17,2,14.75,14.75,0,0,0,6.3-1.15A21.66,21.66,0,0,0,263.35,48.71ZM245,38.87h13.71a6.06,6.06,0,0,0-.73-2.8,6.21,6.21,0,0,0-2.21-2.39,6.78,6.78,0,0,0-3.78-1,7.11,7.11,0,0,0-3.84,1,6.66,6.66,0,0,0-2.36,2.39A5.7,5.7,0,0,0,245,38.87Z"/><path class="cls-2" d="M41.1,28.3a17.4,17.4,0,0,0-6.21,8.63A6.45,6.45,0,0,0,31,35.65,6.67,6.67,0,0,0,31,49a6.52,6.52,0,0,0,3.88-1.28,17.44,17.44,0,0,0,6.21,8.63A17,17,0,0,1,31,59.65,17.34,17.34,0,0,1,31,25,17,17,0,0,1,41.1,28.3Z"/><path class="cls-3" d="M60.07,25A17.34,17.34,0,1,0,77.4,42.32,17.35,17.35,0,0,0,60.07,25ZM63.7,50.56H56.44l1.19-7.39a4.54,4.54,0,1,1,4.87,0Z"/><path class="cls-1" d="M193.43,28.94q-3.54-4-11-4a25.89,25.89,0,0,0-9.21,1.35,21.34,21.34,0,0,0-5.47,2.95l4.09,6.09a17.84,17.84,0,0,1,3.74-1.87,15.74,15.74,0,0,1,5.47-.83,8.74,8.74,0,0,1,4.33,1.07,3.78,3.78,0,0,1,1.9,3.57V38a14.15,14.15,0,0,0-2.32-.2c-1.18-.05-2.34-.07-3.5-.07a20.52,20.52,0,0,0-7.62,1.35,12.12,12.12,0,0,0-5.36,4,10.41,10.41,0,0,0-2,6.44,9.41,9.41,0,0,0,1.8,6.1,9.56,9.56,0,0,0,4.33,3.08,14.8,14.8,0,0,0,4.82.86q6.36,0,9.83-4l.28,3H197V39.64Q197,32.92,193.43,28.94Zm-7,17.9a3.94,3.94,0,0,1-1.6,3.4A6.12,6.12,0,0,1,181,51.51c-3.47,0-3.92-1.64-3.92-3.08a2.84,2.84,0,0,1,1.33-2.55c.68-.46,2.16-1,5.36-1,.79,0,1.5,0,2.11.09l.49.06Z"/><path class="cls-2" d="M147.12,28.3a17.34,17.34,0,0,0-6.21,8.63A6.47,6.47,0,0,0,137,35.65,6.67,6.67,0,0,0,137,49a6.54,6.54,0,0,0,3.88-1.28,17.38,17.38,0,0,0,6.21,8.63A17,17,0,0,1,137,59.65,17.34,17.34,0,0,1,137,25a17,17,0,0,1,10.09,3.32Z"/></svg>